<?xml version='1.0' encoding='UTF-8' standalone='no'?>
<svg height="1000pt" viewBox="0 0 1600 1000" width="1600pt" xmlns="http://www.w3.org/2000/svg" xmlns:xlink="http://www.w3.org/1999/xlink">
 <title>Figure 15: EIS: |Z| vs f</title>
 <desc>
Creator: GL2PS 1.4.2, (C) 1999-2020 C. Geuzaine
For: Octave
CreationDate: Sun Nov  9 14:35:27 2025
</desc>
 <defs/>
 <polygon fill="#ffffff" points="0,0 1600,0 1600,1000 0,1000"/>
 <g>
  <polygon fill="#ffffff" points="0,1000 1600,1000 1600,0 0,0" shape-rendering="crispEdges"/>
  <clipPath id="cp0016001000">
   <polygon points="0,1000 1600,1000 1600,0 0,0"/>
  </clipPath>
  <g clip-path="url(#cp0016001000)">
   <polygon fill="#ffffff" points="208,871.497 1448,871.497 1448,75 208,75" shape-rendering="crispEdges"/>
   <polyline fill="none" points="208,871.497 208,75" stroke="#262626" stroke-dasharray="16,0" stroke-linecap="butt" stroke-linejoin="miter" stroke-opacity="0.15" stroke-width="0.7"/>
   <polyline fill="none" points="414.667,871.497 414.667,75" stroke="#262626" stroke-dasharray="16,0" stroke-linecap="butt" stroke-linejoin="miter" stroke-opacity="0.15" stroke-width="0.7"/>
   <polyline fill="none" points="621.333,871.497 621.333,75" stroke="#262626" stroke-dasharray="16,0" stroke-linecap="butt" stroke-linejoin="miter" stroke-opacity="0.15" stroke-width="0.7"/>
   <polyline fill="none" points="828,871.497 828,75" stroke="#262626" stroke-dasharray="16,0" stroke-linecap="butt" stroke-linejoin="miter" stroke-opacity="0.15" stroke-width="0.7"/>
   <polyline fill="none" points="1034.67,871.497 1034.67,75" stroke="#262626" stroke-dasharray="16,0" stroke-linecap="butt" stroke-linejoin="miter" stroke-opacity="0.15" stroke-width="0.7"/>
   <polyline fill="none" points="1241.33,871.497 1241.33,75" stroke="#262626" stroke-dasharray="16,0" stroke-linecap="butt" stroke-linejoin="miter" stroke-opacity="0.15" stroke-width="0.7"/>
   <polyline fill="none" points="1448,871.497 1448,75" stroke="#262626" stroke-dasharray="16,0" stroke-linecap="butt" stroke-linejoin="miter" stroke-opacity="0.15" stroke-width="0.7"/>
   <polyline fill="none" points="208,871.497 208,859.089" stroke="#262626" stroke-linecap="butt" stroke-linejoin="miter" stroke-width="0.7"/>
   <polyline fill="none" points="414.667,871.497 414.667,859.089" stroke="#262626" stroke-linecap="butt" stroke-linejoin="miter" stroke-width="0.7"/>
   <polyline fill="none" points="621.333,871.497 621.333,859.089" stroke="#262626" stroke-linecap="butt" stroke-linejoin="miter" stroke-width="0.7"/>
   <polyline fill="none" points="828,871.497 828,859.089" stroke="#262626" stroke-linecap="butt" stroke-linejoin="miter" stroke-width="0.7"/>
   <polyline fill="none" points="1034.67,871.497 1034.67,859.089" stroke="#262626" stroke-linecap="butt" stroke-linejoin="miter" stroke-width="0.7"/>
   <polyline fill="none" points="1241.33,871.497 1241.33,859.089" stroke="#262626" stroke-linecap="butt" stroke-linejoin="miter" stroke-width="0.7"/>
   <polyline fill="none" points="1448,871.497 1448,859.089" stroke="#262626" stroke-linecap="butt" stroke-linejoin="miter" stroke-width="0.7"/>
   <g font-family="'Noto Sans'" font-size="40.6709" font-style="normal" font-weight="normal" transform="translate(172.5,940.019) rotate(-0,35.5,-38)" xml:space="preserve">
    <text fill="rgb(38,38,38)" x="0 23 " y="-1">10</text>
    <text fill="rgb(38,38,38)" font-size="28.4696" x="46 56 " y="-18">-1</text>
   </g>
   <g font-family="'Noto Sans'" font-size="40.6709" font-style="normal" font-weight="normal" transform="translate(384.167,941.019) rotate(-0,30.5,-39)" xml:space="preserve">
    <text fill="rgb(38,38,38)" x="0 23 " y="-1">10</text>
    <text fill="rgb(38,38,38)" font-size="28.4696" x="46 " y="-18">0</text>
   </g>
   <g font-family="'Noto Sans'" font-size="40.6709" font-style="normal" font-weight="normal" transform="translate(590.833,940.019) rotate(-0,30.5,-38)" xml:space="preserve">
    <text fill="rgb(38,38,38)" x="0 23 " y="-1">10</text>
    <text fill="rgb(38,38,38)" font-size="28.4696" x="46 " y="-18">1</text>
   </g>
   <g font-family="'Noto Sans'" font-size="40.6709" font-style="normal" font-weight="normal" transform="translate(797.5,941.019) rotate(-0,30.5,-39)" xml:space="preserve">
    <text fill="rgb(38,38,38)" x="0 23 " y="-1">10</text>
    <text fill="rgb(38,38,38)" font-size="28.4696" x="46 " y="-18">2</text>
   </g>
   <g font-family="'Noto Sans'" font-size="40.6709" font-style="normal" font-weight="normal" transform="translate(1004.17,941.019) rotate(-0,30.5,-39)" xml:space="preserve">
    <text fill="rgb(38,38,38)" x="0 23 " y="-1">10</text>
    <text fill="rgb(38,38,38)" font-size="28.4696" x="46 " y="-18">3</text>
   </g>
   <g font-family="'Noto Sans'" font-size="40.6709" font-style="normal" font-weight="normal" transform="translate(1210.83,941.019) rotate(-0,30.5,-39)" xml:space="preserve">
    <text fill="rgb(38,38,38)" x="0 23 " y="-1">10</text>
    <text fill="rgb(38,38,38)" font-size="28.4696" x="46 " y="-18">4</text>
   </g>
   <g font-family="'Noto Sans'" font-size="40.6709" font-style="normal" font-weight="normal" transform="translate(1417.5,940.019) rotate(-0,30.5,-38)" xml:space="preserve">
    <text fill="rgb(38,38,38)" x="0 23 " y="-1">10</text>
    <text fill="rgb(38,38,38)" font-size="28.4696" x="46 " y="-18">5</text>
   </g>
   <polyline fill="none" points="208,871.497 1448,871.497" stroke="#262626" stroke-dasharray="16,0" stroke-linecap="butt" stroke-linejoin="miter" stroke-opacity="0.15" stroke-width="0.7"/>
   <polyline fill="none" points="208,672.373 1448,672.373" stroke="#262626" stroke-dasharray="16,0" stroke-linecap="butt" stroke-linejoin="miter" stroke-opacity="0.15" stroke-width="0.7"/>
   <polyline fill="none" points="208,473.249 1448,473.249" stroke="#262626" stroke-dasharray="16,0" stroke-linecap="butt" stroke-linejoin="miter" stroke-opacity="0.15" stroke-width="0.7"/>
   <polyline fill="none" points="208,274.124 1448,274.124" stroke="#262626" stroke-dasharray="16,0" stroke-linecap="butt" stroke-linejoin="miter" stroke-opacity="0.15" stroke-width="0.7"/>
   <polyline fill="none" points="208,75 1448,75" stroke="#262626" stroke-dasharray="16,0" stroke-linecap="butt" stroke-linejoin="miter" stroke-opacity="0.15" stroke-width="0.7"/>
   <polyline fill="none" points="208,871.497 220.4,871.497" stroke="#262626" stroke-linecap="butt" stroke-linejoin="miter" stroke-width="0.7"/>
   <polyline fill="none" points="208,672.373 220.4,672.373" stroke="#262626" stroke-linecap="butt" stroke-linejoin="miter" stroke-width="0.7"/>
   <polyline fill="none" points="208,473.249 220.4,473.249" stroke="#262626" stroke-linecap="butt" stroke-linejoin="miter" stroke-width="0.7"/>
   <polyline fill="none" points="208,274.124 220.4,274.124" stroke="#262626" stroke-linecap="butt" stroke-linejoin="miter" stroke-width="0.7"/>
   <polyline fill="none" points="208,75 220.4,75" stroke="#262626" stroke-linecap="butt" stroke-linejoin="miter" stroke-width="0.7"/>
   <g font-family="'Noto Sans'" font-size="40.6709" font-style="normal" font-weight="normal" transform="translate(164.665,886.997) rotate(-0,23,-15.5)" xml:space="preserve">
    <text fill="rgb(38,38,38)" x="0 " y="-1">0</text>
   </g>
   <g font-family="'Noto Sans'" font-size="40.6709" font-style="normal" font-weight="normal" transform="translate(107.665,687.873) rotate(-0,80,-15.5)" xml:space="preserve">
    <text fill="rgb(38,38,38)" x="0 23 34 57 " y="-1">0.02</text>
   </g>
   <g font-family="'Noto Sans'" font-size="40.6709" font-style="normal" font-weight="normal" transform="translate(107.665,488.748) rotate(-0,80,-15.5)" xml:space="preserve">
    <text fill="rgb(38,38,38)" x="0 23 34 57 " y="-1">0.04</text>
   </g>
   <g font-family="'Noto Sans'" font-size="40.6709" font-style="normal" font-weight="normal" transform="translate(107.665,289.624) rotate(-0,80,-15.5)" xml:space="preserve">
    <text fill="rgb(38,38,38)" x="0 23 34 57 " y="-1">0.06</text>
   </g>
   <g font-family="'Noto Sans'" font-size="40.6709" font-style="normal" font-weight="normal" transform="translate(107.665,90.5) rotate(-0,80,-15.5)" xml:space="preserve">
    <text fill="rgb(38,38,38)" x="0 23 34 57 " y="-1">0.08</text>
   </g>
   <polyline fill="none" points="208,871.497 1448,871.497" stroke="#262626" stroke-dasharray="16,0" stroke-linecap="square" stroke-linejoin="miter" stroke-width="0.7"/>
   <polyline fill="none" points="208,871.497 208,75" stroke="#262626" stroke-dasharray="16,0" stroke-linecap="square" stroke-linejoin="miter" stroke-width="0.7"/>
   <g font-family="'Noto Sans'" font-size="44.7379" font-style="normal" font-weight="normal" transform="translate(771.5,1000.02) rotate(-0,56.5,-54)" xml:space="preserve">
    <text fill="rgb(38,38,38)" x="0 15 27 43 76 97 " y="-13">f (Hz)</text>
   </g>
   <g font-family="'Noto Sans'" font-size="44.7379" font-style="normal" font-weight="normal" transform="translate(-43.3354,473.248) rotate(-90,146,0)" xml:space="preserve">
    <text fill="rgb(38,38,38)" x="0 24 50 74 86 102 121 156 198 223 251 276 " y="-13">|Z| (\Omega)</text>
   </g>
   <g font-family="'Noto Sans'" font-size="44.7379" font-style="normal" font-weight="normal" transform="translate(645,65) rotate(-0,183,0)" xml:space="preserve">
    <text fill="rgb(0,0,0)" x="0 29 56 84 109 122 134 176 201 229 257 269 285 313 341 " y="-11">Bode: magnitude</text>
   </g>
   <polygon fill="#0071bc" points="1245.3,766.371 1244.67,768.292 1243.04,769.478 1241.02,769.478 1239.39,768.292 1238.77,766.371 1239.39,764.451 1241.02,763.265 1243.04,763.265 1244.67,764.451" shape-rendering="crispEdges"/>
   <polygon fill="#0071bc" points="1203.53,765.864 1202.91,767.785 1201.27,768.971 1199.25,768.971 1197.62,767.785 1197,765.864 1197.62,763.944 1199.25,762.758 1201.27,762.758 1202.91,763.944" shape-rendering="crispEdges"/>
   <polygon fill="#0071bc" points="1162.01,765.034 1161.38,766.954 1159.75,768.141 1157.73,768.141 1156.1,766.954 1155.47,765.034 1156.1,763.114 1157.73,761.927 1159.75,761.927 1161.38,763.114" shape-rendering="crispEdges"/>
   <polygon fill="#0071bc" points="1121.16,763.857 1120.53,765.777 1118.9,766.964 1116.88,766.964 1115.25,765.777 1114.63,763.857 1115.25,761.937 1116.88,760.75 1118.9,760.75 1120.53,761.937" shape-rendering="crispEdges"/>
   <polygon fill="#0071bc" points="1078.85,761.998 1078.22,763.917 1076.59,765.104 1074.57,765.104 1072.94,763.917 1072.31,761.998 1072.94,760.078 1074.57,758.891 1076.59,758.891 1078.22,760.078" shape-rendering="crispEdges"/>
   <polygon fill="#0071bc" points="1037.78,759.542 1037.15,761.461 1035.52,762.648 1033.5,762.648 1031.87,761.461 1031.24,759.542 1031.87,757.621 1033.5,756.435 1035.52,756.435 1037.15,757.621" shape-rendering="crispEdges"/>
   <polygon fill="#d85218" points="1245.3,778.498 1244.67,780.417 1243.04,781.604 1241.02,781.604 1239.39,780.417 1238.77,778.498 1239.39,776.578 1241.02,775.391 1243.04,775.391 1244.67,776.578" shape-rendering="crispEdges"/>
   <polygon fill="#d85218" points="1203.53,778.574 1202.91,780.494 1201.27,781.681 1199.25,781.681 1197.62,780.494 1197,778.574 1197.62,776.654 1199.25,775.467 1201.27,775.467 1202.91,776.654" shape-rendering="crispEdges"/>
   <polygon fill="#d85218" points="1162.01,778.234 1161.38,780.154 1159.75,781.341 1157.73,781.341 1156.1,780.154 1155.47,778.234 1156.1,776.314 1157.73,775.127 1159.75,775.127 1161.38,776.314" shape-rendering="crispEdges"/>
   <polygon fill="#d85218" points="1121.16,777.579 1120.53,779.499 1118.9,780.685 1116.88,780.685 1115.25,779.499 1114.63,777.579 1115.25,775.658 1116.88,774.472 1118.9,774.472 1120.53,775.658" shape-rendering="crispEdges"/>
   <polygon fill="#d85218" points="1078.85,776.499 1078.22,778.419 1076.59,779.606 1074.57,779.606 1072.94,778.419 1072.31,776.499 1072.94,774.579 1074.57,773.393 1076.59,773.393 1078.22,774.579" shape-rendering="crispEdges"/>
   <polygon fill="#d85218" points="1037.78,774.801 1037.15,776.721 1035.52,777.908 1033.5,777.908 1031.87,776.721 1031.24,774.801 1031.87,772.881 1033.5,771.694 1035.52,771.694 1037.15,772.881" shape-rendering="crispEdges"/>
   <polygon fill="#ecb01f" points="1245.3,768.858 1244.67,770.778 1243.04,771.965 1241.02,771.965 1239.39,770.778 1238.77,768.858 1239.39,766.938 1241.02,765.751 1243.04,765.751 1244.67,766.938" shape-rendering="crispEdges"/>
   <polygon fill="#ecb01f" points="1224.75,766.929 1224.12,768.849 1222.49,770.036 1220.47,770.036 1218.84,768.849 1218.21,766.929 1218.84,765.009 1220.47,763.822 1222.49,763.822 1224.12,765.009" shape-rendering="crispEdges"/>
   <polygon fill="#ecb01f" points="1203.53,764.322 1202.91,766.243 1201.27,767.429 1199.25,767.429 1197.62,766.243 1197,764.322 1197.62,762.402 1199.25,761.216 1201.27,761.216 1202.91,762.402" shape-rendering="crispEdges"/>
   <polygon fill="#ecb01f" points="1182.67,760.96 1182.04,762.88 1180.41,764.067 1178.39,764.067 1176.76,762.88 1176.13,760.96 1176.76,759.04 1178.39,757.854 1180.41,757.854 1182.04,759.04" shape-rendering="crispEdges"/>
   <polygon fill="#ecb01f" points="1162.01,756.641 1161.38,758.562 1159.75,759.748 1157.73,759.748 1156.1,758.562 1155.47,756.641 1156.1,754.721 1157.73,753.535 1159.75,753.535 1161.38,754.721" shape-rendering="crispEdges"/>
   <polygon fill="#ecb01f" points="1141.51,751.25 1140.89,753.17 1139.26,754.357 1137.24,754.357 1135.6,753.17 1134.98,751.25 1135.6,749.33 1137.24,748.144 1139.26,748.144 1140.89,749.33" shape-rendering="crispEdges"/>
   <polygon fill="#ecb01f" points="1121.16,744.597 1120.53,746.518 1118.9,747.704 1116.88,747.704 1115.25,746.518 1114.63,744.597 1115.25,742.677 1116.88,741.491 1118.9,741.491 1120.53,742.677" shape-rendering="crispEdges"/>
   <polygon fill="#ecb01f" points="1099.07,735.628 1098.44,737.548 1096.81,738.735 1094.79,738.735 1093.16,737.548 1092.53,735.628 1093.16,733.708 1094.79,732.521 1096.81,732.521 1098.44,733.708" shape-rendering="crispEdges"/>
   <polygon fill="#ecb01f" points="1078.85,725.76 1078.22,727.68 1076.59,728.866 1074.57,728.866 1072.94,727.68 1072.31,725.76 1072.94,723.839 1074.57,722.653 1076.59,722.653 1078.22,723.839" shape-rendering="crispEdges"/>
   <polygon fill="#ecb01f" points="1059.08,714.319 1058.45,716.24 1056.82,717.426 1054.8,717.426 1053.17,716.24 1052.54,714.319 1053.17,712.399 1054.8,711.213 1056.82,711.213 1058.45,712.399" shape-rendering="crispEdges"/>
   <polygon fill="#ecb01f" points="1037.78,700.329 1037.15,702.249 1035.52,703.436 1033.5,703.436 1031.87,702.249 1031.24,700.329 1031.87,698.409 1033.5,697.222 1035.52,697.222 1037.15,698.409" shape-rendering="crispEdges"/>
   <polygon fill="#ecb01f" points="1017.55,685.57 1016.93,687.49 1015.3,688.677 1013.28,688.677 1011.64,687.49 1011.02,685.57 1011.64,683.65 1013.28,682.463 1015.3,682.463 1016.93,683.65" shape-rendering="crispEdges"/>
   <polygon fill="#ecb01f" points="996.148,669.121 995.524,671.041 993.891,672.228 991.872,672.228 990.239,671.041 989.615,669.121 990.239,667.2 991.872,666.014 993.891,666.014 995.524,667.2" shape-rendering="crispEdges"/>
   <polygon fill="#ecb01f" points="976.705,653.547 976.081,655.467 974.448,656.654 972.429,656.654 970.795,655.467 970.171,653.547 970.795,651.627 972.429,650.44 974.448,650.44 976.081,651.627" shape-rendering="crispEdges"/>
   <polygon fill="#ecb01f" points="955.241,636.513 954.618,638.433 952.984,639.62 950.965,639.62 949.332,638.433 948.708,636.513 949.332,634.593 950.965,633.406 952.984,633.406 954.618,634.593" shape-rendering="crispEdges"/>
   <polygon fill="#ecb01f" points="934.395,620.483 933.771,622.403 932.137,623.59 930.119,623.59 928.485,622.403 927.861,620.483 928.485,618.563 930.119,617.376 932.137,617.376 933.771,618.563" shape-rendering="crispEdges"/>
   <polygon fill="#ecb01f" points="914.367,605.937 913.743,607.857 912.109,609.044 910.09,609.044 908.457,607.857 907.833,605.937 908.457,604.017 910.09,602.831 912.109,602.831 913.743,604.017" shape-rendering="crispEdges"/>
   <polygon fill="#ecb01f" points="892.859,591.458 892.235,593.377 890.602,594.564 888.583,594.564 886.95,593.377 886.326,591.458 886.95,589.537 888.583,588.351 890.602,588.351 892.235,589.537" shape-rendering="crispEdges"/>
   <polygon fill="#ecb01f" points="872.527,578.524 871.904,580.444 870.271,581.63 868.251,581.63 866.618,580.444 865.994,578.524 866.618,576.604 868.251,575.417 870.271,575.417 871.904,576.604" shape-rendering="crispEdges"/>
   <polygon fill="#ecb01f" points="851.694,566.208 851.071,568.128 849.438,569.315 847.418,569.315 845.785,568.128 845.161,566.208 845.785,564.288 847.418,563.102 849.438,563.102 851.071,564.288" shape-rendering="crispEdges"/>
   <polygon fill="#ecb01f" points="831.667,554.234 831.042,556.154 829.409,557.341 827.39,557.341 825.757,556.154 825.133,554.234 825.757,552.314 827.39,551.127 829.409,551.127 831.042,552.314" shape-rendering="crispEdges"/>
   <polygon fill="#ecb01f" points="810.113,541.787 809.489,543.708 807.855,544.894 805.837,544.894 804.203,543.708 803.58,541.787 804.203,539.867 805.837,538.681 807.855,538.681 809.489,539.867" shape-rendering="crispEdges"/>
   <polygon fill="#ecb01f" points="790.287,529.779 789.663,531.7 788.029,532.886 786.01,532.886 784.377,531.7 783.753,529.779 784.377,527.859 786.01,526.672 788.029,526.672 789.663,527.859" shape-rendering="crispEdges"/>
   <polygon fill="#ecb01f" points="769.454,516.164 768.83,518.083 767.196,519.27 765.178,519.27 763.544,518.083 762.92,516.164 763.544,514.243 765.178,513.057 767.196,513.057 768.83,514.243" shape-rendering="crispEdges"/>
   <polygon fill="#ecb01f" points="745.414,498.911 744.79,500.831 743.156,502.018 741.137,502.018 739.504,500.831 738.88,498.911 739.504,496.99 741.137,495.804 743.156,495.804 744.79,496.99" shape-rendering="crispEdges"/>
   <polygon fill="#ecb01f" points="726.869,483.528 726.245,485.449 724.612,486.635 722.593,486.635 720.959,485.449 720.335,483.528 720.959,481.608 722.593,480.421 724.612,480.421 726.245,481.608" shape-rendering="crispEdges"/>
   <polygon fill="#ecb01f" points="706.602,465.015 705.978,466.935 704.345,468.122 702.326,468.122 700.692,466.935 700.068,465.015 700.692,463.095 702.326,461.908 704.345,461.908 705.978,463.095" shape-rendering="crispEdges"/>
   <polygon fill="#ecb01f" points="686.193,443.413 685.569,445.333 683.936,446.52 681.917,446.52 680.283,445.333 679.659,443.413 680.283,441.493 681.917,440.306 683.936,440.306 685.569,441.493" shape-rendering="crispEdges"/>
   <polygon fill="#ecb01f" points="664.656,418.191 664.032,420.112 662.399,421.298 660.38,421.298 658.747,420.112 658.123,418.191 658.747,416.271 660.38,415.085 662.399,415.085 664.032,416.271" shape-rendering="crispEdges"/>
   <polygon fill="#ecb01f" points="643.913,391.166 643.289,393.086 641.656,394.272 639.637,394.272 638.003,393.086 637.379,391.166 638.003,389.246 639.637,388.059 641.656,388.059 643.289,389.246" shape-rendering="crispEdges"/>
   <polygon fill="#ecb01f" points="623.98,363.416 623.356,365.336 621.723,366.523 619.704,366.523 618.07,365.336 617.446,363.416 618.07,361.496 619.704,360.309 621.723,360.309 623.356,361.496" shape-rendering="crispEdges"/>
   <polygon fill="#ecb01f" points="603.952,333.25 603.328,335.17 601.694,336.357 599.676,336.357 598.042,335.17 597.418,333.25 598.042,331.33 599.676,330.144 601.694,330.144 603.328,331.33" shape-rendering="crispEdges"/>
   <polygon fill="#ecb01f" points="583.378,298.919 582.754,300.839 581.121,302.026 579.102,302.026 577.468,300.839 576.844,298.919 577.468,296.999 579.102,295.812 581.121,295.812 582.754,296.999" shape-rendering="crispEdges"/>
   <polygon fill="#ecb01f" points="562.531,265.037 561.907,266.957 560.274,268.144 558.255,268.144 556.622,266.957 555.998,265.037 556.622,263.117 558.255,261.93 560.274,261.93 561.907,263.117" shape-rendering="crispEdges"/>
   <polygon fill="#ecb01f" points="541.132,229.582 540.509,231.502 538.875,232.688 536.856,232.688 535.223,231.502 534.599,229.582 535.223,227.662 536.856,226.475 538.875,226.475 540.509,227.662" shape-rendering="crispEdges"/>
   <polygon fill="#ecb01f" points="521.165,198.95 520.541,200.87 518.908,202.057 516.889,202.057 515.255,200.87 514.631,198.95 515.255,197.03 516.889,195.843 518.908,195.843 520.541,197.03" shape-rendering="crispEdges"/>
   <polygon fill="#ecb01f" points="500.318,170.147 499.694,172.068 498.061,173.254 496.042,173.254 494.409,172.068 493.785,170.147 494.409,168.228 496.042,167.041 498.061,167.041 499.694,168.228" shape-rendering="crispEdges"/>
   <polygon fill="#ecb01f" points="480.06,148.527 479.436,150.448 477.803,151.634 475.784,151.634 474.15,150.448 473.527,148.527 474.15,146.607 475.784,145.421 477.803,145.421 479.436,146.607" shape-rendering="crispEdges"/>
   <polygon fill="#ecb01f" points="459.255,129.178 458.631,131.098 456.998,132.285 454.979,132.285 453.346,131.098 452.722,129.178 453.346,127.258 454.979,126.071 456.998,126.071 458.631,127.258" shape-rendering="crispEdges"/>
   <polygon fill="#ecb01f" points="439.166,112.875 438.542,114.795 436.909,115.981 434.89,115.981 433.257,114.795 432.633,112.875 433.257,110.955 434.89,109.768 436.909,109.768 438.542,110.955" shape-rendering="crispEdges"/>
   <polygon fill="#ecb01f" points="417.847,103.295 417.223,105.216 415.59,106.402 413.571,106.402 411.938,105.216 411.314,103.295 411.938,101.375 413.571,100.188 415.59,100.188 417.223,101.375" shape-rendering="crispEdges"/>
   <polygon fill="#ecb01f" points="397.042,97.6948 396.418,99.6147 394.785,100.802 392.766,100.802 391.133,99.6147 390.509,97.6948 391.133,95.7749 392.766,94.5879 394.785,94.5879 396.418,95.7749" shape-rendering="crispEdges"/>
   <polygon fill="#ecb01f" points="376.953,88.8945 376.33,90.8145 374.696,92.001 372.677,92.001 371.044,90.8145 370.42,88.8945 371.044,86.9741 372.677,85.7876 374.696,85.7876 376.33,86.9741" shape-rendering="crispEdges"/>
   <polygon fill="#7d2e8d" points="1245.3,766.017 1244.67,767.937 1243.04,769.124 1241.02,769.124 1239.39,767.937 1238.77,766.017 1239.39,764.097 1241.02,762.91 1243.04,762.91 1244.67,764.097" shape-rendering="crispEdges"/>
   <polygon fill="#7d2e8d" points="1224.75,764.173 1224.12,766.094 1222.49,767.28 1220.47,767.28 1218.84,766.094 1218.21,764.173 1218.84,762.253 1220.47,761.067 1222.49,761.067 1224.12,762.253" shape-rendering="crispEdges"/>
   <polygon fill="#7d2e8d" points="1203.53,761.872 1202.91,763.792 1201.27,764.978 1199.25,764.978 1197.62,763.792 1197,761.872 1197.62,759.951 1199.25,758.765 1201.27,758.765 1202.91,759.951" shape-rendering="crispEdges"/>
   <polygon fill="#7d2e8d" points="1182.67,759.206 1182.04,761.125 1180.41,762.313 1178.39,762.313 1176.76,761.125 1176.13,759.206 1176.76,757.286 1178.39,756.099 1180.41,756.099 1182.04,757.286" shape-rendering="crispEdges"/>
   <polygon fill="#7d2e8d" points="1162.01,756.204 1161.38,758.124 1159.75,759.311 1157.73,759.311 1156.1,758.124 1155.47,756.204 1156.1,754.283 1157.73,753.097 1159.75,753.097 1161.38,754.283" shape-rendering="crispEdges"/>
   <polygon fill="#7d2e8d" points="1141.51,752.896 1140.89,754.815 1139.26,756.002 1137.24,756.002 1135.6,754.815 1134.98,752.896 1135.6,750.975 1137.24,749.789 1139.26,749.789 1140.89,750.975" shape-rendering="crispEdges"/>
   <polygon fill="#7d2e8d" points="1121.16,749.417 1120.53,751.337 1118.9,752.524 1116.88,752.524 1115.25,751.337 1114.63,749.417 1115.25,747.497 1116.88,746.311 1118.9,746.311 1120.53,747.497" shape-rendering="crispEdges"/>
   <polygon fill="#7d2e8d" points="1099.07,745.486 1098.44,747.406 1096.81,748.593 1094.79,748.593 1093.16,747.406 1092.53,745.486 1093.16,743.566 1094.79,742.379 1096.81,742.379 1098.44,743.566" shape-rendering="crispEdges"/>
   <polygon fill="#7d2e8d" points="1078.85,741.754 1078.22,743.675 1076.59,744.861 1074.57,744.861 1072.94,743.675 1072.31,741.754 1072.94,739.834 1074.57,738.648 1076.59,738.648 1078.22,739.834" shape-rendering="crispEdges"/>
   <polygon fill="#7d2e8d" points="1059.08,738.38 1058.45,740.3 1056.82,741.486 1054.8,741.486 1053.17,740.3 1052.54,738.38 1053.17,736.459 1054.8,735.273 1056.82,735.273 1058.45,736.459" shape-rendering="crispEdges"/>
   <polygon fill="#7d2e8d" points="1037.78,734.841 1037.15,736.761 1035.52,737.948 1033.5,737.948 1031.87,736.761 1031.24,734.841 1031.87,732.921 1033.5,731.734 1035.52,731.734 1037.15,732.921" shape-rendering="crispEdges"/>
   <polygon fill="#7d2e8d" points="1017.55,731.898 1016.93,733.819 1015.3,735.005 1013.28,735.005 1011.64,733.819 1011.02,731.898 1011.64,729.979 1013.28,728.792 1015.3,728.792 1016.93,729.979" shape-rendering="crispEdges"/>
   <polygon fill="#7d2e8d" points="996.148,728.891 995.524,730.811 993.891,731.998 991.872,731.998 990.239,730.811 989.615,728.891 990.239,726.971 991.872,725.784 993.891,725.784 995.524,726.971" shape-rendering="crispEdges"/>
   <polygon fill="#7d2e8d" points="976.705,726.479 976.081,728.399 974.448,729.586 972.429,729.586 970.795,728.399 970.171,726.479 970.795,724.559 972.429,723.373 974.448,723.373 976.081,724.559" shape-rendering="crispEdges"/>
   <polygon fill="#7d2e8d" points="955.241,723.893 954.618,725.813 952.984,726.999 950.965,726.999 949.332,725.813 948.708,723.893 949.332,721.972 950.965,720.786 952.984,720.786 954.618,721.972" shape-rendering="crispEdges"/>
   <polygon fill="#7d2e8d" points="934.395,721.49 933.771,723.41 932.137,724.597 930.119,724.597 928.485,723.41 927.861,721.49 928.485,719.569 930.119,718.383 932.137,718.383 933.771,719.569" shape-rendering="crispEdges"/>
   <polygon fill="#7d2e8d" points="914.367,719.042 913.743,720.962 912.109,722.148 910.09,722.148 908.457,720.962 907.833,719.042 908.457,717.122 910.09,715.935 912.109,715.935 913.743,717.122" shape-rendering="crispEdges"/>
   <polygon fill="#7d2e8d" points="892.859,716.096 892.235,718.016 890.602,719.203 888.583,719.203 886.95,718.016 886.326,716.096 886.95,714.176 888.583,712.989 890.602,712.989 892.235,714.176" shape-rendering="crispEdges"/>
   <polygon fill="#7d2e8d" points="872.527,712.974 871.904,714.895 870.271,716.081 868.251,716.081 866.618,714.895 865.994,712.974 866.618,711.054 868.251,709.868 870.271,709.868 871.904,711.054" shape-rendering="crispEdges"/>
   <polygon fill="#7d2e8d" points="851.694,709.149 851.071,711.069 849.438,712.256 847.418,712.256 845.785,711.069 845.161,709.149 845.785,707.229 847.418,706.042 849.438,706.042 851.071,707.229" shape-rendering="crispEdges"/>
   <polygon fill="#7d2e8d" points="831.667,704.904 831.042,706.824 829.409,708.011 827.39,708.011 825.757,706.824 825.133,704.904 825.757,702.984 827.39,701.797 829.409,701.797 831.042,702.984" shape-rendering="crispEdges"/>
   <polygon fill="#7d2e8d" points="810.113,699.623 809.489,701.543 807.855,702.729 805.837,702.729 804.203,701.543 803.58,699.623 804.203,697.703 805.837,696.516 807.855,696.516 809.489,697.703" shape-rendering="crispEdges"/>
   <polygon fill="#7d2e8d" points="790.287,694.323 789.663,696.243 788.029,697.43 786.01,697.43 784.377,696.243 783.753,694.323 784.377,692.403 786.01,691.216 788.029,691.216 789.663,692.403" shape-rendering="crispEdges"/>
   <polygon fill="#7d2e8d" points="769.454,688.259 768.83,690.179 767.196,691.366 765.178,691.366 763.544,690.179 762.92,688.259 763.544,686.339 765.178,685.152 767.196,685.152 768.83,686.339" shape-rendering="crispEdges"/>
   <polygon fill="#7d2e8d" points="745.414,681.181 744.79,683.101 743.156,684.288 741.137,684.288 739.504,683.101 738.88,681.181 739.504,679.261 741.137,678.074 743.156,678.074 744.79,679.261" shape-rendering="crispEdges"/>
   <polygon fill="#7d2e8d" points="726.869,675.838 726.245,677.758 724.612,678.945 722.593,678.945 720.959,677.758 720.335,675.838 720.959,673.918 722.593,672.731 724.612,672.731 726.245,673.918" shape-rendering="crispEdges"/>
   <polygon fill="#7d2e8d" points="706.602,670.316 705.978,672.236 704.345,673.423 702.326,673.423 700.692,672.236 700.068,670.316 700.692,668.396 702.326,667.209 704.345,667.209 705.978,668.396" shape-rendering="crispEdges"/>
   <polygon fill="#7d2e8d" points="686.193,665.502 685.569,667.422 683.936,668.609 681.917,668.609 680.283,667.422 679.659,665.502 680.283,663.582 681.917,662.396 683.936,662.396 685.569,663.582" shape-rendering="crispEdges"/>
   <polygon fill="#7d2e8d" points="664.656,660.415 664.032,662.335 662.399,663.521 660.38,663.521 658.747,662.335 658.123,660.415 658.747,658.495 660.38,657.308 662.399,657.308 664.032,658.495" shape-rendering="crispEdges"/>
   <polygon fill="#7d2e8d" points="643.913,657.183 643.289,659.103 641.656,660.29 639.637,660.29 638.003,659.103 637.379,657.183 638.003,655.263 639.637,654.076 641.656,654.076 643.289,655.263" shape-rendering="crispEdges"/>
   <polygon fill="#7d2e8d" points="623.98,653.515 623.356,655.435 621.723,656.622 619.704,656.622 618.07,655.435 617.446,653.515 618.07,651.595 619.704,650.408 621.723,650.408 623.356,651.595" shape-rendering="crispEdges"/>
   <polygon fill="#7d2e8d" points="603.952,651.099 603.328,653.019 601.694,654.206 599.676,654.206 598.042,653.019 597.418,651.099 598.042,649.179 599.676,647.992 601.694,647.992 603.328,649.179" shape-rendering="crispEdges"/>
   <polygon fill="#7d2e8d" points="583.378,648.112 582.754,650.032 581.121,651.219 579.102,651.219 577.468,650.032 576.844,648.112 577.468,646.192 579.102,645.005 581.121,645.005 582.754,646.192" shape-rendering="crispEdges"/>
   <polygon fill="#7d2e8d" points="562.531,645.913 561.907,647.833 560.274,649.02 558.255,649.02 556.622,647.833 555.998,645.913 556.622,643.993 558.255,642.807 560.274,642.807 561.907,643.993" shape-rendering="crispEdges"/>
   <polygon fill="#7d2e8d" points="541.132,644.074 540.509,645.995 538.875,647.181 536.856,647.181 535.223,645.995 534.599,644.074 535.223,642.154 536.856,640.968 538.875,640.968 540.509,642.154" shape-rendering="crispEdges"/>
   <polygon fill="#7d2e8d" points="521.165,641.42 520.541,643.341 518.908,644.527 516.889,644.527 515.255,643.341 514.631,641.42 515.255,639.5 516.889,638.313 518.908,638.313 520.541,639.5" shape-rendering="crispEdges"/>
   <polygon fill="#7d2e8d" points="500.318,640.056 499.694,641.976 498.061,643.163 496.042,643.163 494.409,641.976 493.785,640.056 494.409,638.136 496.042,636.949 498.061,636.949 499.694,638.136" shape-rendering="crispEdges"/>
   <polygon fill="#7d2e8d" points="480.06,637.911 479.436,639.831 477.803,641.018 475.784,641.018 474.15,639.831 473.527,637.911 474.15,635.991 475.784,634.804 477.803,634.804 479.436,635.991" shape-rendering="crispEdges"/>
   <polygon fill="#7d2e8d" points="459.255,635.982 458.631,637.902 456.998,639.089 454.979,639.089 453.346,637.902 452.722,635.982 453.346,634.062 454.979,632.875 456.998,632.875 458.631,634.062" shape-rendering="crispEdges"/>
   <polygon fill="#7d2e8d" points="439.166,634.183 438.542,636.104 436.909,637.29 434.89,637.29 433.257,636.104 432.633,634.183 433.257,632.263 434.89,631.077 436.909,631.077 438.542,632.263" shape-rendering="crispEdges"/>
   <polygon fill="#7d2e8d" points="417.847,631.926 417.223,633.846 415.59,635.032 413.571,635.032 411.938,633.846 411.314,631.926 411.938,630.005 413.571,628.819 415.59,628.819 417.223,630.005" shape-rendering="crispEdges"/>
   <polygon fill="#7d2e8d" points="397.042,629.53 396.418,631.45 394.785,632.637 392.766,632.637 391.133,631.45 390.509,629.53 391.133,627.61 392.766,626.423 394.785,626.423 396.418,627.61" shape-rendering="crispEdges"/>
   <polygon fill="#7d2e8d" points="376.953,626.915 376.33,628.834 374.696,630.021 372.677,630.021 371.044,628.834 370.42,626.915 371.044,624.995 372.677,623.808 374.696,623.808 376.33,624.995" shape-rendering="crispEdges"/>
   <polygon fill="#76ab2f" points="1245.3,775.142 1244.67,777.062 1243.04,778.249 1241.02,778.249 1239.39,777.062 1238.77,775.142 1239.39,773.222 1241.02,772.035 1243.04,772.035 1244.67,773.222" shape-rendering="crispEdges"/>
   <polygon fill="#76ab2f" points="1224.75,774.727 1224.12,776.647 1222.49,777.834 1220.47,777.834 1218.84,776.647 1218.21,774.727 1218.84,772.807 1220.47,771.621 1222.49,771.621 1224.12,772.807" shape-rendering="crispEdges"/>
   <polygon fill="#76ab2f" points="1203.53,774.135 1202.91,776.055 1201.27,777.242 1199.25,777.242 1197.62,776.055 1197,774.135 1197.62,772.215 1199.25,771.028 1201.27,771.028 1202.91,772.215" shape-rendering="crispEdges"/>
   <polygon fill="#76ab2f" points="1182.67,773.386 1182.04,775.306 1180.41,776.493 1178.39,776.493 1176.76,775.306 1176.13,773.386 1176.76,771.466 1178.39,770.279 1180.41,770.279 1182.04,771.466" shape-rendering="crispEdges"/>
   <polygon fill="#76ab2f" points="1162.01,772.475 1161.38,774.395 1159.75,775.582 1157.73,775.582 1156.1,774.395 1155.47,772.475 1156.1,770.555 1157.73,769.368 1159.75,769.368 1161.38,770.555" shape-rendering="crispEdges"/>
   <polygon fill="#76ab2f" points="1141.51,771.497 1140.89,773.417 1139.26,774.604 1137.24,774.604 1135.6,773.417 1134.98,771.497 1135.6,769.577 1137.24,768.39 1139.26,768.39 1140.89,769.577" shape-rendering="crispEdges"/>
   <polygon fill="#76ab2f" points="1121.16,770.359 1120.53,772.279 1118.9,773.466 1116.88,773.466 1115.25,772.279 1114.63,770.359 1115.25,768.439 1116.88,767.252 1118.9,767.252 1120.53,768.439" shape-rendering="crispEdges"/>
   <polygon fill="#76ab2f" points="1099.07,768.986 1098.44,770.907 1096.81,772.093 1094.79,772.093 1093.16,770.907 1092.53,768.986 1093.16,767.066 1094.79,765.88 1096.81,765.88 1098.44,767.066" shape-rendering="crispEdges"/>
   <polygon fill="#76ab2f" points="1078.85,767.498 1078.22,769.418 1076.59,770.605 1074.57,770.605 1072.94,769.418 1072.31,767.498 1072.94,765.578 1074.57,764.392 1076.59,764.392 1078.22,765.578" shape-rendering="crispEdges"/>
   <polygon fill="#76ab2f" points="1059.08,765.955 1058.45,767.875 1056.82,769.062 1054.8,769.062 1053.17,767.875 1052.54,765.955 1053.17,764.035 1054.8,762.848 1056.82,762.848 1058.45,764.035" shape-rendering="crispEdges"/>
   <polygon fill="#76ab2f" points="1037.78,764.073 1037.15,765.993 1035.52,767.18 1033.5,767.18 1031.87,765.993 1031.24,764.073 1031.87,762.153 1033.5,760.966 1035.52,760.966 1037.15,762.153" shape-rendering="crispEdges"/>
   <polygon fill="#76ab2f" points="1017.55,761.987 1016.93,763.907 1015.3,765.093 1013.28,765.093 1011.64,763.907 1011.02,761.987 1011.64,760.066 1013.28,758.88 1015.3,758.88 1016.93,760.066" shape-rendering="crispEdges"/>
   <polygon fill="#76ab2f" points="996.148,759.65 995.524,761.571 993.891,762.757 991.872,762.757 990.239,761.571 989.615,759.65 990.239,757.73 991.872,756.544 993.891,756.544 995.524,757.73" shape-rendering="crispEdges"/>
   <polygon fill="#76ab2f" points="976.705,757.26 976.081,759.181 974.448,760.367 972.429,760.367 970.795,759.181 970.171,757.26 970.795,755.34 972.429,754.153 974.448,754.153 976.081,755.34" shape-rendering="crispEdges"/>
   <polygon fill="#76ab2f" points="955.241,754.433 954.618,756.354 952.984,757.54 950.965,757.54 949.332,756.354 948.708,754.433 949.332,752.513 950.965,751.327 952.984,751.327 954.618,752.513" shape-rendering="crispEdges"/>
   <polygon fill="#76ab2f" points="934.395,751.39 933.771,753.31 932.137,754.497 930.119,754.497 928.485,753.31 927.861,751.39 928.485,749.47 930.119,748.283 932.137,748.283 933.771,749.47" shape-rendering="crispEdges"/>
   <polygon fill="#76ab2f" points="914.367,748.276 913.743,750.196 912.109,751.383 910.09,751.383 908.457,750.196 907.833,748.276 908.457,746.356 910.09,745.169 912.109,745.169 913.743,746.356" shape-rendering="crispEdges"/>
   <polygon fill="#76ab2f" points="892.859,744.652 892.235,746.572 890.602,747.759 888.583,747.759 886.95,746.572 886.326,744.652 886.95,742.732 888.583,741.545 890.602,741.545 892.235,742.732" shape-rendering="crispEdges"/>
   <polygon fill="#76ab2f" points="872.527,740.95 871.904,742.87 870.271,744.056 868.251,744.056 866.618,742.87 865.994,740.95 866.618,739.029 868.251,737.843 870.271,737.843 871.904,739.029" shape-rendering="crispEdges"/>
   <polygon fill="#76ab2f" points="851.694,736.896 851.071,738.816 849.438,740.003 847.418,740.003 845.785,738.816 845.161,736.896 845.785,734.976 847.418,733.79 849.438,733.79 851.071,734.976" shape-rendering="crispEdges"/>
   <polygon fill="#76ab2f" points="831.667,732.808 831.042,734.728 829.409,735.915 827.39,735.915 825.757,734.728 825.133,732.808 825.757,730.888 827.39,729.701 829.409,729.701 831.042,730.888" shape-rendering="crispEdges"/>
   <polygon fill="#76ab2f" points="810.113,728.285 809.489,730.205 807.855,731.392 805.837,731.392 804.203,730.205 803.58,728.285 804.203,726.365 805.837,725.178 807.855,725.178 809.489,726.365" shape-rendering="crispEdges"/>
   <polygon fill="#76ab2f" points="790.287,724.113 789.663,726.033 788.029,727.219 786.01,727.219 784.377,726.033 783.753,724.113 784.377,722.192 786.01,721.006 788.029,721.006 789.663,722.192" shape-rendering="crispEdges"/>
   <polygon fill="#76ab2f" points="769.454,719.671 768.83,721.591 767.196,722.778 765.178,722.778 763.544,721.591 762.92,719.671 763.544,717.751 765.178,716.564 767.196,716.564 768.83,717.751" shape-rendering="crispEdges"/>
   <polygon fill="#76ab2f" points="745.414,714.607 744.79,716.527 743.156,717.714 741.137,717.714 739.504,716.527 738.88,714.607 739.504,712.687 741.137,711.5 743.156,711.5 744.79,712.687" shape-rendering="crispEdges"/>
   <polygon fill="#76ab2f" points="726.869,710.922 726.245,712.842 724.612,714.029 722.593,714.029 720.959,712.842 720.335,710.922 720.959,709.002 722.593,707.815 724.612,707.815 726.245,709.002" shape-rendering="crispEdges"/>
   <polygon fill="#76ab2f" points="706.602,706.422 705.978,708.342 704.345,709.529 702.326,709.529 700.692,708.342 700.068,706.422 700.692,704.502 702.326,703.315 704.345,703.315 705.978,704.502" shape-rendering="crispEdges"/>
   <polygon fill="#76ab2f" points="686.193,701.883 685.569,703.803 683.936,704.989 681.917,704.989 680.283,703.803 679.659,701.883 680.283,699.962 681.917,698.776 683.936,698.776 685.569,699.962" shape-rendering="crispEdges"/>
   <polygon fill="#76ab2f" points="664.656,697.039 664.032,698.959 662.399,700.146 660.38,700.146 658.747,698.959 658.123,697.039 658.747,695.119 660.38,693.932 662.399,693.932 664.032,695.119" shape-rendering="crispEdges"/>
   <polygon fill="#76ab2f" points="643.913,692.047 643.289,693.967 641.656,695.154 639.637,695.154 638.003,693.967 637.379,692.047 638.003,690.127 639.637,688.94 641.656,688.94 643.289,690.127" shape-rendering="crispEdges"/>
   <polygon fill="#76ab2f" points="623.98,688.058 623.356,689.979 621.723,691.165 619.704,691.165 618.07,689.979 617.446,688.058 618.07,686.138 619.704,684.952 621.723,684.952 623.356,686.138" shape-rendering="crispEdges"/>
   <polygon fill="#76ab2f" points="603.952,682.673 603.328,684.594 601.694,685.78 599.676,685.78 598.042,684.594 597.418,682.673 598.042,680.753 599.676,679.567 601.694,679.567 603.328,680.753" shape-rendering="crispEdges"/>
   <polygon fill="#76ab2f" points="583.378,677.506 582.754,679.427 581.121,680.613 579.102,680.613 577.468,679.427 576.844,677.506 577.468,675.586 579.102,674.4 581.121,674.4 582.754,675.586" shape-rendering="crispEdges"/>
   <polygon fill="#76ab2f" points="562.531,672.412 561.907,674.332 560.274,675.518 558.255,675.518 556.622,674.332 555.998,672.412 556.622,670.491 558.255,669.305 560.274,669.305 561.907,670.491" shape-rendering="crispEdges"/>
   <polygon fill="#76ab2f" points="541.132,665.827 540.509,667.747 538.875,668.934 536.856,668.934 535.223,667.747 534.599,665.827 535.223,663.907 536.856,662.72 538.875,662.72 540.509,663.907" shape-rendering="crispEdges"/>
   <polygon fill="#76ab2f" points="521.165,659.716 520.541,661.636 518.908,662.823 516.889,662.823 515.255,661.636 514.631,659.716 515.255,657.796 516.889,656.609 518.908,656.609 520.541,657.796" shape-rendering="crispEdges"/>
   <polygon fill="#76ab2f" points="500.318,652.009 499.694,653.929 498.061,655.116 496.042,655.116 494.409,653.929 493.785,652.009 494.409,650.089 496.042,648.902 498.061,648.902 499.694,650.089" shape-rendering="crispEdges"/>
   <polygon fill="#76ab2f" points="480.06,644.058 479.436,645.978 477.803,647.165 475.784,647.165 474.15,645.978 473.527,644.058 474.15,642.138 475.784,640.951 477.803,640.951 479.436,642.138" shape-rendering="crispEdges"/>
   <polygon fill="#76ab2f" points="459.255,637.216 458.631,639.136 456.998,640.323 454.979,640.323 453.346,639.136 452.722,637.216 453.346,635.296 454.979,634.109 456.998,634.109 458.631,635.296" shape-rendering="crispEdges"/>
   <polygon fill="#76ab2f" points="439.166,628.305 438.542,630.226 436.909,631.412 434.89,631.412 433.257,630.226 432.633,628.305 433.257,626.385 434.89,625.199 436.909,625.199 438.542,626.385" shape-rendering="crispEdges"/>
   <polygon fill="#76ab2f" points="417.847,619.86 417.223,621.78 415.59,622.967 413.571,622.967 411.938,621.78 411.314,619.86 411.938,617.94 413.571,616.753 415.59,616.753 417.223,617.94" shape-rendering="crispEdges"/>
   <polygon fill="#76ab2f" points="397.042,608.752 396.418,610.672 394.785,611.859 392.766,611.859 391.133,610.672 390.509,608.752 391.133,606.832 392.766,605.646 394.785,605.646 396.418,606.832" shape-rendering="crispEdges"/>
   <polygon fill="#76ab2f" points="376.953,599.071 376.33,600.991 374.696,602.177 372.677,602.177 371.044,600.991 370.42,599.071 371.044,597.15 372.677,595.964 374.696,595.964 376.33,597.15" shape-rendering="crispEdges"/>
  </g>
  <clipPath id="cp0016001000">
   <polygon points="0,1000 1600,1000 1600,0 0,0"/>
  </clipPath>
  <g clip-path="url(#cp0016001000)">
   <polygon fill="#ffffff" points="1107.29,266.9 1426.14,266.9 1426.14,93.2129 1107.29,93.2129" shape-rendering="crispEdges"/>
   <polyline fill="none" points="1107.29,266.9 1426.14,266.9" stroke="#262626" stroke-dasharray="16,0" stroke-linecap="square" stroke-linejoin="miter" stroke-width="0.7"/>
   <polyline fill="none" points="1107.29,93.2129 1426.14,93.2129" stroke="#262626" stroke-dasharray="16,0" stroke-linecap="square" stroke-linejoin="miter" stroke-width="0.7"/>
   <polyline fill="none" points="1107.29,266.9 1107.29,93.2129" stroke="#262626" stroke-dasharray="16,0" stroke-linecap="square" stroke-linejoin="miter" stroke-width="0.7"/>
   <polyline fill="none" points="1426.14,266.9 1426.14,93.2129" stroke="#262626" stroke-dasharray="16,0" stroke-linecap="square" stroke-linejoin="miter" stroke-width="0.7"/>
   <polygon fill="#0071bc" points="1147.87,114.224 1146.71,116.245 1144.37,116.245 1143.21,114.224 1144.37,112.204 1146.71,112.204 1147.87,114.224" shape-rendering="crispEdges"/>
   <polygon fill="#d85218" points="1147.87,147.141 1146.71,149.161 1144.37,149.161 1143.21,147.141 1144.37,145.12 1146.71,145.12 1147.87,147.141" shape-rendering="crispEdges"/>
   <polygon fill="#ecb01f" points="1147.87,180.057 1146.71,182.077 1144.37,182.077 1143.21,180.057 1144.37,178.036 1146.71,178.036 1147.87,180.057" shape-rendering="crispEdges"/>
   <polygon fill="#7d2e8d" points="1147.87,212.973 1146.71,214.993 1144.37,214.993 1143.21,212.973 1144.37,210.952 1146.71,210.952 1147.87,212.973" shape-rendering="crispEdges"/>
   <polygon fill="#76ab2f" points="1147.87,245.889 1146.71,247.909 1144.37,247.909 1143.21,245.889 1144.37,243.868 1146.71,243.868 1147.87,245.889" shape-rendering="crispEdges"/>
   <g font-family="'Noto Sans'" font-size="36.6038" font-style="normal" font-weight="normal" transform="translate(1183.79,130.724) rotate(-0,-0,-16.5)" xml:space="preserve">
    <text fill="rgb(0,0,0)" x="0 21 34 54 76 105 126 141 161 183 198 " y="-6">EISPOT_0V_1</text>
   </g>
   <g font-family="'Noto Sans'" font-size="36.6038" font-style="normal" font-weight="normal" transform="translate(1183.79,163.64) rotate(-0,-0,-16.5)" xml:space="preserve">
    <text fill="rgb(0,0,0)" x="0 21 34 54 76 105 126 141 161 183 198 " y="-6">EISPOT_0V_2</text>
   </g>
   <g font-family="'Noto Sans'" font-size="36.6038" font-style="normal" font-weight="normal" transform="translate(1183.79,196.556) rotate(-0,-0,-16.5)" xml:space="preserve">
    <text fill="rgb(0,0,0)" x="0 21 34 54 76 105 126 141 161 196 218 233 253 262 282 " y="-6">EISPOT_5mV_1,5A</text>
   </g>
   <g font-family="'Noto Sans'" font-size="36.6038" font-style="normal" font-weight="normal" transform="translate(1183.79,229.473) rotate(-0,-0,-16.5)" xml:space="preserve">
    <text fill="rgb(0,0,0)" x="0 21 34 54 76 105 126 141 161 196 218 233 253 " y="-6">EISPOT_5mV_9A</text>
   </g>
   <g font-family="'Noto Sans'" font-size="36.6038" font-style="normal" font-weight="normal" transform="translate(1183.79,262.389) rotate(-0,-0,-16.5)" xml:space="preserve">
    <text fill="rgb(0,0,0)" x="0 21 34 54 76 105 126 141 161 196 218 233 253 273 " y="-6">EISPOT_5mV_18A</text>
   </g>
  </g>
 </g>
</svg>
