<?xml version='1.0' encoding='UTF-8' standalone='no'?>
<svg height="1000pt" viewBox="0 0 1600 1000" width="1600pt" xmlns="http://www.w3.org/2000/svg" xmlns:xlink="http://www.w3.org/1999/xlink">
 <title>Figure 15: Rs from 0V checks (bar)</title>
 <desc>
Creator: GL2PS 1.4.2, (C) 1999-2020 C. Geuzaine
For: Octave
CreationDate: Sun Nov  9 14:35:32 2025
</desc>
 <defs/>
 <polygon fill="#ffffff" points="0,0 1600,0 1600,1000 0,1000"/>
 <g>
  <polygon fill="#ffffff" points="0,1000 1600,1000 1600,0 0,0" shape-rendering="crispEdges"/>
  <clipPath id="cp0016001000">
   <polygon points="0,1000 1600,1000 1600,0 0,0"/>
  </clipPath>
  <g clip-path="url(#cp0016001000)">
   <polygon fill="#ffffff" points="208,890 1448,890 1448,75 208,75" shape-rendering="crispEdges"/>
   <g font-family="'Noto Sans'" font-size="44.7379" font-style="normal" font-weight="normal" transform="translate(-63.8354,482.5) rotate(-90,143.5,0)" xml:space="preserve">
    <text fill="rgb(38,38,38)" x="0 28 47 69 81 97 116 151 193 218 246 271 " y="-13">R_s (\Omega)</text>
   </g>
   <g font-family="'Noto Sans'" font-size="44.7379" font-style="normal" font-weight="normal" transform="translate(469.5,65) rotate(-0,358.5,0)" xml:space="preserve">
    <text fill="rgb(0,0,0)" x="0 35 63 105 117 139 151 170 195 217 229 251 267 292 320 342 367 379 394 413 440 482 494 519 534 559 586 621 646 665 690 " y="-8">Ohmic resistance from EISPOT_0V</text>
   </g>
   <polygon fill="#0071bc" points="766,890 766,168.938 270,168.938 270,890" shape-rendering="crispEdges"/>
   <polygon fill="#0071bc" points="1386,890 1386,253.272 890,253.272 890,890" shape-rendering="crispEdges"/>
   <polyline fill="none" points="766,168.938 270,168.938 270,890 766,890 766,168.938" stroke="#000000" stroke-linecap="butt" stroke-linejoin="miter" stroke-width="0.7"/>
   <polyline fill="none" points="1386,253.272 890,253.272 890,890 1386,890 1386,253.272" stroke="#000000" stroke-linecap="butt" stroke-linejoin="miter" stroke-width="0.7"/>
   <polyline fill="none" points="518,890 518,877.6" stroke="#262626" stroke-linecap="butt" stroke-linejoin="miter" stroke-width="0.7"/>
   <polyline fill="none" points="518,75 518,87.3999" stroke="#262626" stroke-linecap="butt" stroke-linejoin="miter" stroke-width="0.7"/>
   <polyline fill="none" points="1138,890 1138,877.6" stroke="#262626" stroke-linecap="butt" stroke-linejoin="miter" stroke-width="0.7"/>
   <polyline fill="none" points="1138,75 1138,87.3999" stroke="#262626" stroke-linecap="butt" stroke-linejoin="miter" stroke-width="0.7"/>
   <g font-family="'Noto Sans'" font-size="40.6709" font-style="normal" font-weight="normal" transform="translate(420.5,958.503) rotate(-0,97.5,-38)" xml:space="preserve">
    <text fill="rgb(38,38,38)" x="0 23 37 60 85 117 " y="-8">EISPOT</text>
    <text fill="rgb(38,38,38)" font-size="28.4696" x="140 " y="-1">0</text>
    <text fill="rgb(38,38,38)" x="155 " y="-8">V</text>
    <text fill="rgb(38,38,38)" font-size="28.4696" x="180 " y="-1">1</text>
   </g>
   <g font-family="'Noto Sans'" font-size="40.6709" font-style="normal" font-weight="normal" transform="translate(1040.5,958.503) rotate(-0,97.5,-38)" xml:space="preserve">
    <text fill="rgb(38,38,38)" x="0 23 37 60 85 117 " y="-8">EISPOT</text>
    <text fill="rgb(38,38,38)" font-size="28.4696" x="140 " y="-1">0</text>
    <text fill="rgb(38,38,38)" x="155 " y="-8">V</text>
    <text fill="rgb(38,38,38)" font-size="28.4696" x="180 " y="-1">2</text>
   </g>
   <polyline fill="none" points="208,890 220.4,890" stroke="#262626" stroke-linecap="butt" stroke-linejoin="miter" stroke-width="0.7"/>
   <polyline fill="none" points="1448,890 1435.6,890" stroke="#262626" stroke-linecap="butt" stroke-linejoin="miter" stroke-width="0.7"/>
   <polyline fill="none" points="208,754.167 220.4,754.167" stroke="#262626" stroke-linecap="butt" stroke-linejoin="miter" stroke-width="0.7"/>
   <polyline fill="none" points="1448,754.167 1435.6,754.167" stroke="#262626" stroke-linecap="butt" stroke-linejoin="miter" stroke-width="0.7"/>
   <polyline fill="none" points="208,618.333 220.4,618.333" stroke="#262626" stroke-linecap="butt" stroke-linejoin="miter" stroke-width="0.7"/>
   <polyline fill="none" points="1448,618.333 1435.6,618.333" stroke="#262626" stroke-linecap="butt" stroke-linejoin="miter" stroke-width="0.7"/>
   <polyline fill="none" points="208,482.5 220.4,482.5" stroke="#262626" stroke-linecap="butt" stroke-linejoin="miter" stroke-width="0.7"/>
   <polyline fill="none" points="1448,482.5 1435.6,482.5" stroke="#262626" stroke-linecap="butt" stroke-linejoin="miter" stroke-width="0.7"/>
   <polyline fill="none" points="208,346.667 220.4,346.667" stroke="#262626" stroke-linecap="butt" stroke-linejoin="miter" stroke-width="0.7"/>
   <polyline fill="none" points="1448,346.667 1435.6,346.667" stroke="#262626" stroke-linecap="butt" stroke-linejoin="miter" stroke-width="0.7"/>
   <polyline fill="none" points="208,210.833 220.4,210.833" stroke="#262626" stroke-linecap="butt" stroke-linejoin="miter" stroke-width="0.7"/>
   <polyline fill="none" points="1448,210.833 1435.6,210.833" stroke="#262626" stroke-linecap="butt" stroke-linejoin="miter" stroke-width="0.7"/>
   <polyline fill="none" points="208,75 220.4,75" stroke="#262626" stroke-linecap="butt" stroke-linejoin="miter" stroke-width="0.7"/>
   <polyline fill="none" points="1448,75 1435.6,75" stroke="#262626" stroke-linecap="butt" stroke-linejoin="miter" stroke-width="0.7"/>
   <g font-family="'Noto Sans'" font-size="40.6709" font-style="normal" font-weight="normal" transform="translate(164.665,905.5) rotate(-0,23,-15.5)" xml:space="preserve">
    <text fill="rgb(38,38,38)" x="0 " y="-1">0</text>
   </g>
   <g font-family="'Noto Sans'" font-size="40.6709" font-style="normal" font-weight="normal" transform="translate(84.6646,769.667) rotate(-0,103,-15.5)" xml:space="preserve">
    <text fill="rgb(38,38,38)" x="0 23 34 57 80 " y="-1">0.002</text>
   </g>
   <g font-family="'Noto Sans'" font-size="40.6709" font-style="normal" font-weight="normal" transform="translate(84.6646,633.833) rotate(-0,103,-15.5)" xml:space="preserve">
    <text fill="rgb(38,38,38)" x="0 23 34 57 80 " y="-1">0.004</text>
   </g>
   <g font-family="'Noto Sans'" font-size="40.6709" font-style="normal" font-weight="normal" transform="translate(84.6646,498) rotate(-0,103,-15.5)" xml:space="preserve">
    <text fill="rgb(38,38,38)" x="0 23 34 57 80 " y="-1">0.006</text>
   </g>
   <g font-family="'Noto Sans'" font-size="40.6709" font-style="normal" font-weight="normal" transform="translate(84.6646,362.167) rotate(-0,103,-15.5)" xml:space="preserve">
    <text fill="rgb(38,38,38)" x="0 23 34 57 80 " y="-1">0.008</text>
   </g>
   <g font-family="'Noto Sans'" font-size="40.6709" font-style="normal" font-weight="normal" transform="translate(107.665,226.333) rotate(-0,80,-15.5)" xml:space="preserve">
    <text fill="rgb(38,38,38)" x="0 23 34 57 " y="-1">0.01</text>
   </g>
   <g font-family="'Noto Sans'" font-size="40.6709" font-style="normal" font-weight="normal" transform="translate(84.6646,90.5) rotate(-0,103,-15.5)" xml:space="preserve">
    <text fill="rgb(38,38,38)" x="0 23 34 57 80 " y="-1">0.012</text>
   </g>
   <polyline fill="none" points="208,890 1448,890" stroke="#262626" stroke-dasharray="16,0" stroke-linecap="square" stroke-linejoin="miter" stroke-width="0.7"/>
   <polyline fill="none" points="208,75 1448,75" stroke="#262626" stroke-dasharray="16,0" stroke-linecap="square" stroke-linejoin="miter" stroke-width="0.7"/>
   <polyline fill="none" points="208,890 208,75" stroke="#262626" stroke-dasharray="16,0" stroke-linecap="square" stroke-linejoin="miter" stroke-width="0.7"/>
   <polyline fill="none" points="1448,890 1448,75" stroke="#262626" stroke-dasharray="16,0" stroke-linecap="square" stroke-linejoin="miter" stroke-width="0.7"/>
  </g>
 </g>
</svg>
