<?xml version='1.0' encoding='UTF-8' standalone='no'?>
<svg height="1000pt" viewBox="0 0 1600 1000" width="1600pt" xmlns="http://www.w3.org/2000/svg" xmlns:xlink="http://www.w3.org/1999/xlink">
 <title>Figure 15: EIS: phase vs f</title>
 <desc>
Creator: GL2PS 1.4.2, (C) 1999-2020 C. Geuzaine
For: Octave
CreationDate: Sun Nov  9 14:35:28 2025
</desc>
 <defs/>
 <polygon fill="#ffffff" points="0,0 1600,0 1600,1000 0,1000"/>
 <g>
  <polygon fill="#ffffff" points="0,1000 1600,1000 1600,0 0,0" shape-rendering="crispEdges"/>
  <clipPath id="cp0016001000">
   <polygon points="0,1000 1600,1000 1600,0 0,0"/>
  </clipPath>
  <g clip-path="url(#cp0016001000)">
   <polygon fill="#ffffff" points="208,871.497 1448,871.497 1448,75 208,75" shape-rendering="crispEdges"/>
   <polyline fill="none" points="208,871.497 208,75" stroke="#262626" stroke-dasharray="16,0" stroke-linecap="butt" stroke-linejoin="miter" stroke-opacity="0.15" stroke-width="0.7"/>
   <polyline fill="none" points="414.667,871.497 414.667,75" stroke="#262626" stroke-dasharray="16,0" stroke-linecap="butt" stroke-linejoin="miter" stroke-opacity="0.15" stroke-width="0.7"/>
   <polyline fill="none" points="621.333,871.497 621.333,75" stroke="#262626" stroke-dasharray="16,0" stroke-linecap="butt" stroke-linejoin="miter" stroke-opacity="0.15" stroke-width="0.7"/>
   <polyline fill="none" points="828,871.497 828,75" stroke="#262626" stroke-dasharray="16,0" stroke-linecap="butt" stroke-linejoin="miter" stroke-opacity="0.15" stroke-width="0.7"/>
   <polyline fill="none" points="1034.67,871.497 1034.67,75" stroke="#262626" stroke-dasharray="16,0" stroke-linecap="butt" stroke-linejoin="miter" stroke-opacity="0.15" stroke-width="0.7"/>
   <polyline fill="none" points="1241.33,871.497 1241.33,75" stroke="#262626" stroke-dasharray="16,0" stroke-linecap="butt" stroke-linejoin="miter" stroke-opacity="0.15" stroke-width="0.7"/>
   <polyline fill="none" points="1448,871.497 1448,75" stroke="#262626" stroke-dasharray="16,0" stroke-linecap="butt" stroke-linejoin="miter" stroke-opacity="0.15" stroke-width="0.7"/>
   <polyline fill="none" points="208,871.497 208,859.089" stroke="#262626" stroke-linecap="butt" stroke-linejoin="miter" stroke-width="0.7"/>
   <polyline fill="none" points="414.667,871.497 414.667,859.089" stroke="#262626" stroke-linecap="butt" stroke-linejoin="miter" stroke-width="0.7"/>
   <polyline fill="none" points="621.333,871.497 621.333,859.089" stroke="#262626" stroke-linecap="butt" stroke-linejoin="miter" stroke-width="0.7"/>
   <polyline fill="none" points="828,871.497 828,859.089" stroke="#262626" stroke-linecap="butt" stroke-linejoin="miter" stroke-width="0.7"/>
   <polyline fill="none" points="1034.67,871.497 1034.67,859.089" stroke="#262626" stroke-linecap="butt" stroke-linejoin="miter" stroke-width="0.7"/>
   <polyline fill="none" points="1241.33,871.497 1241.33,859.089" stroke="#262626" stroke-linecap="butt" stroke-linejoin="miter" stroke-width="0.7"/>
   <polyline fill="none" points="1448,871.497 1448,859.089" stroke="#262626" stroke-linecap="butt" stroke-linejoin="miter" stroke-width="0.7"/>
   <g font-family="'Noto Sans'" font-size="40.6709" font-style="normal" font-weight="normal" transform="translate(172.5,940.019) rotate(-0,35.5,-38)" xml:space="preserve">
    <text fill="rgb(38,38,38)" x="0 23 " y="-1">10</text>
    <text fill="rgb(38,38,38)" font-size="28.4696" x="46 56 " y="-18">-1</text>
   </g>
   <g font-family="'Noto Sans'" font-size="40.6709" font-style="normal" font-weight="normal" transform="translate(384.167,941.019) rotate(-0,30.5,-39)" xml:space="preserve">
    <text fill="rgb(38,38,38)" x="0 23 " y="-1">10</text>
    <text fill="rgb(38,38,38)" font-size="28.4696" x="46 " y="-18">0</text>
   </g>
   <g font-family="'Noto Sans'" font-size="40.6709" font-style="normal" font-weight="normal" transform="translate(590.833,940.019) rotate(-0,30.5,-38)" xml:space="preserve">
    <text fill="rgb(38,38,38)" x="0 23 " y="-1">10</text>
    <text fill="rgb(38,38,38)" font-size="28.4696" x="46 " y="-18">1</text>
   </g>
   <g font-family="'Noto Sans'" font-size="40.6709" font-style="normal" font-weight="normal" transform="translate(797.5,941.019) rotate(-0,30.5,-39)" xml:space="preserve">
    <text fill="rgb(38,38,38)" x="0 23 " y="-1">10</text>
    <text fill="rgb(38,38,38)" font-size="28.4696" x="46 " y="-18">2</text>
   </g>
   <g font-family="'Noto Sans'" font-size="40.6709" font-style="normal" font-weight="normal" transform="translate(1004.17,941.019) rotate(-0,30.5,-39)" xml:space="preserve">
    <text fill="rgb(38,38,38)" x="0 23 " y="-1">10</text>
    <text fill="rgb(38,38,38)" font-size="28.4696" x="46 " y="-18">3</text>
   </g>
   <g font-family="'Noto Sans'" font-size="40.6709" font-style="normal" font-weight="normal" transform="translate(1210.83,941.019) rotate(-0,30.5,-39)" xml:space="preserve">
    <text fill="rgb(38,38,38)" x="0 23 " y="-1">10</text>
    <text fill="rgb(38,38,38)" font-size="28.4696" x="46 " y="-18">4</text>
   </g>
   <g font-family="'Noto Sans'" font-size="40.6709" font-style="normal" font-weight="normal" transform="translate(1417.5,940.019) rotate(-0,30.5,-38)" xml:space="preserve">
    <text fill="rgb(38,38,38)" x="0 23 " y="-1">10</text>
    <text fill="rgb(38,38,38)" font-size="28.4696" x="46 " y="-18">5</text>
   </g>
   <polyline fill="none" points="208,871.497 1448,871.497" stroke="#262626" stroke-dasharray="16,0" stroke-linecap="butt" stroke-linejoin="miter" stroke-opacity="0.15" stroke-width="0.7"/>
   <polyline fill="none" points="208,757.711 1448,757.711" stroke="#262626" stroke-dasharray="16,0" stroke-linecap="butt" stroke-linejoin="miter" stroke-opacity="0.15" stroke-width="0.7"/>
   <polyline fill="none" points="208,643.926 1448,643.926" stroke="#262626" stroke-dasharray="16,0" stroke-linecap="butt" stroke-linejoin="miter" stroke-opacity="0.15" stroke-width="0.7"/>
   <polyline fill="none" points="208,530.141 1448,530.141" stroke="#262626" stroke-dasharray="16,0" stroke-linecap="butt" stroke-linejoin="miter" stroke-opacity="0.15" stroke-width="0.7"/>
   <polyline fill="none" points="208,416.356 1448,416.356" stroke="#262626" stroke-dasharray="16,0" stroke-linecap="butt" stroke-linejoin="miter" stroke-opacity="0.15" stroke-width="0.7"/>
   <polyline fill="none" points="208,302.57 1448,302.57" stroke="#262626" stroke-dasharray="16,0" stroke-linecap="butt" stroke-linejoin="miter" stroke-opacity="0.15" stroke-width="0.7"/>
   <polyline fill="none" points="208,188.785 1448,188.785" stroke="#262626" stroke-dasharray="16,0" stroke-linecap="butt" stroke-linejoin="miter" stroke-opacity="0.15" stroke-width="0.7"/>
   <polyline fill="none" points="208,75 1448,75" stroke="#262626" stroke-dasharray="16,0" stroke-linecap="butt" stroke-linejoin="miter" stroke-opacity="0.15" stroke-width="0.7"/>
   <polyline fill="none" points="208,871.497 220.4,871.497" stroke="#262626" stroke-linecap="butt" stroke-linejoin="miter" stroke-width="0.7"/>
   <polyline fill="none" points="208,757.711 220.4,757.711" stroke="#262626" stroke-linecap="butt" stroke-linejoin="miter" stroke-width="0.7"/>
   <polyline fill="none" points="208,643.926 220.4,643.926" stroke="#262626" stroke-linecap="butt" stroke-linejoin="miter" stroke-width="0.7"/>
   <polyline fill="none" points="208,530.141 220.4,530.141" stroke="#262626" stroke-linecap="butt" stroke-linejoin="miter" stroke-width="0.7"/>
   <polyline fill="none" points="208,416.356 220.4,416.356" stroke="#262626" stroke-linecap="butt" stroke-linejoin="miter" stroke-width="0.7"/>
   <polyline fill="none" points="208,302.57 220.4,302.57" stroke="#262626" stroke-linecap="butt" stroke-linejoin="miter" stroke-width="0.7"/>
   <polyline fill="none" points="208,188.785 220.4,188.785" stroke="#262626" stroke-linecap="butt" stroke-linejoin="miter" stroke-width="0.7"/>
   <polyline fill="none" points="208,75 220.4,75" stroke="#262626" stroke-linecap="butt" stroke-linejoin="miter" stroke-width="0.7"/>
   <g font-family="'Noto Sans'" font-size="40.6709" font-style="normal" font-weight="normal" transform="translate(127.665,886.997) rotate(-0,60,-15.5)" xml:space="preserve">
    <text fill="rgb(38,38,38)" x="0 14 37 " y="-1">-30</text>
   </g>
   <g font-family="'Noto Sans'" font-size="40.6709" font-style="normal" font-weight="normal" transform="translate(127.665,773.212) rotate(-0,60,-15.5)" xml:space="preserve">
    <text fill="rgb(38,38,38)" x="0 14 37 " y="-1">-25</text>
   </g>
   <g font-family="'Noto Sans'" font-size="40.6709" font-style="normal" font-weight="normal" transform="translate(127.665,659.426) rotate(-0,60,-15.5)" xml:space="preserve">
    <text fill="rgb(38,38,38)" x="0 14 37 " y="-1">-20</text>
   </g>
   <g font-family="'Noto Sans'" font-size="40.6709" font-style="normal" font-weight="normal" transform="translate(127.665,545.641) rotate(-0,60,-15.5)" xml:space="preserve">
    <text fill="rgb(38,38,38)" x="0 14 37 " y="-1">-15</text>
   </g>
   <g font-family="'Noto Sans'" font-size="40.6709" font-style="normal" font-weight="normal" transform="translate(127.665,431.856) rotate(-0,60,-15.5)" xml:space="preserve">
    <text fill="rgb(38,38,38)" x="0 14 37 " y="-1">-10</text>
   </g>
   <g font-family="'Noto Sans'" font-size="40.6709" font-style="normal" font-weight="normal" transform="translate(150.665,318.071) rotate(-0,37,-15.5)" xml:space="preserve">
    <text fill="rgb(38,38,38)" x="0 14 " y="-1">-5</text>
   </g>
   <g font-family="'Noto Sans'" font-size="40.6709" font-style="normal" font-weight="normal" transform="translate(164.665,204.285) rotate(-0,23,-15.5)" xml:space="preserve">
    <text fill="rgb(38,38,38)" x="0 " y="-1">0</text>
   </g>
   <g font-family="'Noto Sans'" font-size="40.6709" font-style="normal" font-weight="normal" transform="translate(164.665,90.5) rotate(-0,23,-15.5)" xml:space="preserve">
    <text fill="rgb(38,38,38)" x="0 " y="-1">5</text>
   </g>
   <polyline fill="none" points="208,871.497 1448,871.497" stroke="#262626" stroke-dasharray="16,0" stroke-linecap="square" stroke-linejoin="miter" stroke-width="0.7"/>
   <polyline fill="none" points="208,871.497 208,75" stroke="#262626" stroke-dasharray="16,0" stroke-linecap="square" stroke-linejoin="miter" stroke-width="0.7"/>
   <g font-family="'Noto Sans'" font-size="44.7379" font-style="normal" font-weight="normal" transform="translate(771.5,1000.02) rotate(-0,56.5,-54)" xml:space="preserve">
    <text fill="rgb(38,38,38)" x="0 15 27 43 76 97 " y="-13">f (Hz)</text>
   </g>
   <g font-family="'Noto Sans'" font-size="44.7379" font-style="normal" font-weight="normal" transform="translate(-3.33543,473.248) rotate(-90,126,0)" xml:space="preserve">
    <text fill="rgb(38,38,38)" x="0 27 55 80 102 127 139 155 183 208 236 " y="-13">Phase (deg)</text>
   </g>
   <g font-family="'Noto Sans'" font-size="44.7379" font-style="normal" font-weight="normal" transform="translate(697,65) rotate(-0,131,0)" xml:space="preserve">
    <text fill="rgb(0,0,0)" x="0 29 56 84 109 122 134 162 190 215 237 " y="-11">Bode: phase</text>
   </g>
   <polygon fill="#0071bc" points="1245.3,142.332 1244.67,144.252 1243.04,145.438 1241.02,145.438 1239.39,144.252 1238.77,142.332 1239.39,140.412 1241.02,139.225 1243.04,139.225 1244.67,140.412" shape-rendering="crispEdges"/>
   <polygon fill="#0071bc" points="1203.53,190.582 1202.91,192.501 1201.27,193.688 1199.25,193.688 1197.62,192.501 1197,190.582 1197.62,188.661 1199.25,187.475 1201.27,187.475 1202.91,188.661" shape-rendering="crispEdges"/>
   <polygon fill="#0071bc" points="1162.01,232.459 1161.38,234.379 1159.75,235.566 1157.73,235.566 1156.1,234.379 1155.47,232.459 1156.1,230.539 1157.73,229.352 1159.75,229.352 1161.38,230.539" shape-rendering="crispEdges"/>
   <polygon fill="#0071bc" points="1121.16,274.608 1120.53,276.528 1118.9,277.715 1116.88,277.715 1115.25,276.528 1114.63,274.608 1115.25,272.688 1116.88,271.501 1118.9,271.501 1120.53,272.688" shape-rendering="crispEdges"/>
   <polygon fill="#0071bc" points="1078.85,325.493 1078.22,327.413 1076.59,328.6 1074.57,328.6 1072.94,327.413 1072.31,325.493 1072.94,323.573 1074.57,322.386 1076.59,322.386 1078.22,323.573" shape-rendering="crispEdges"/>
   <polygon fill="#0071bc" points="1037.78,388.227 1037.15,390.147 1035.52,391.333 1033.5,391.333 1031.87,390.147 1031.24,388.227 1031.87,386.307 1033.5,385.12 1035.52,385.12 1037.15,386.307" shape-rendering="crispEdges"/>
   <polygon fill="#d85218" points="1245.3,111.421 1244.67,113.341 1243.04,114.528 1241.02,114.528 1239.39,113.341 1238.77,111.421 1239.39,109.501 1241.02,108.314 1243.04,108.314 1244.67,109.501" shape-rendering="crispEdges"/>
   <polygon fill="#d85218" points="1203.53,163.651 1202.91,165.571 1201.27,166.758 1199.25,166.758 1197.62,165.571 1197,163.651 1197.62,161.73 1199.25,160.544 1201.27,160.544 1202.91,161.73" shape-rendering="crispEdges"/>
   <polygon fill="#d85218" points="1162.01,207.911 1161.38,209.832 1159.75,211.018 1157.73,211.018 1156.1,209.832 1155.47,207.911 1156.1,205.991 1157.73,204.805 1159.75,204.805 1161.38,205.991" shape-rendering="crispEdges"/>
   <polygon fill="#d85218" points="1121.16,249.861 1120.53,251.781 1118.9,252.968 1116.88,252.968 1115.25,251.781 1114.63,249.861 1115.25,247.941 1116.88,246.754 1118.9,246.754 1120.53,247.941" shape-rendering="crispEdges"/>
   <polygon fill="#d85218" points="1078.85,298.99 1078.22,300.911 1076.59,302.097 1074.57,302.097 1072.94,300.911 1072.31,298.99 1072.94,297.07 1074.57,295.884 1076.59,295.884 1078.22,297.07" shape-rendering="crispEdges"/>
   <polygon fill="#d85218" points="1037.78,359.194 1037.15,361.114 1035.52,362.301 1033.5,362.301 1031.87,361.114 1031.24,359.194 1031.87,357.274 1033.5,356.087 1035.52,356.087 1037.15,357.274" shape-rendering="crispEdges"/>
   <polygon fill="#ecb01f" points="1245.3,302.978 1244.67,304.898 1243.04,306.085 1241.02,306.085 1239.39,304.898 1238.77,302.978 1239.39,301.058 1241.02,299.872 1243.04,299.872 1244.67,301.058" shape-rendering="crispEdges"/>
   <polygon fill="#ecb01f" points="1224.75,358.638 1224.12,360.558 1222.49,361.745 1220.47,361.745 1218.84,360.558 1218.21,358.638 1218.84,356.718 1220.47,355.531 1222.49,355.531 1224.12,356.718" shape-rendering="crispEdges"/>
   <polygon fill="#ecb01f" points="1203.53,416.448 1202.91,418.368 1201.27,419.555 1199.25,419.555 1197.62,418.368 1197,416.448 1197.62,414.528 1199.25,413.341 1201.27,413.341 1202.91,414.528" shape-rendering="crispEdges"/>
   <polygon fill="#ecb01f" points="1182.67,472.71 1182.04,474.63 1180.41,475.817 1178.39,475.817 1176.76,474.63 1176.13,472.71 1176.76,470.791 1178.39,469.604 1180.41,469.604 1182.04,470.791" shape-rendering="crispEdges"/>
   <polygon fill="#ecb01f" points="1162.01,529.397 1161.38,531.317 1159.75,532.504 1157.73,532.504 1156.1,531.317 1155.47,529.397 1156.1,527.477 1157.73,526.291 1159.75,526.291 1161.38,527.477" shape-rendering="crispEdges"/>
   <polygon fill="#ecb01f" points="1141.51,583.708 1140.89,585.628 1139.26,586.815 1137.24,586.815 1135.6,585.628 1134.98,583.708 1135.6,581.788 1137.24,580.601 1139.26,580.601 1140.89,581.788" shape-rendering="crispEdges"/>
   <polygon fill="#ecb01f" points="1121.16,636.085 1120.53,638.005 1118.9,639.191 1116.88,639.191 1115.25,638.005 1114.63,636.085 1115.25,634.165 1116.88,632.978 1118.9,632.978 1120.53,634.165" shape-rendering="crispEdges"/>
   <polygon fill="#ecb01f" points="1099.07,686.937 1098.44,688.857 1096.81,690.043 1094.79,690.043 1093.16,688.857 1092.53,686.937 1093.16,685.017 1094.79,683.83 1096.81,683.83 1098.44,685.017" shape-rendering="crispEdges"/>
   <polygon fill="#ecb01f" points="1078.85,726.577 1078.22,728.497 1076.59,729.684 1074.57,729.684 1072.94,728.497 1072.31,726.577 1072.94,724.657 1074.57,723.47 1076.59,723.47 1078.22,724.657" shape-rendering="crispEdges"/>
   <polygon fill="#ecb01f" points="1059.08,755.688 1058.45,757.608 1056.82,758.794 1054.8,758.794 1053.17,757.608 1052.54,755.688 1053.17,753.768 1054.8,752.581 1056.82,752.581 1058.45,753.768" shape-rendering="crispEdges"/>
   <polygon fill="#ecb01f" points="1037.78,775.856 1037.15,777.776 1035.52,778.963 1033.5,778.963 1031.87,777.776 1031.24,775.856 1031.87,773.936 1033.5,772.75 1035.52,772.75 1037.15,773.936" shape-rendering="crispEdges"/>
   <polygon fill="#ecb01f" points="1017.55,783.054 1016.93,784.975 1015.3,786.161 1013.28,786.161 1011.64,784.975 1011.02,783.054 1011.64,781.134 1013.28,779.948 1015.3,779.948 1016.93,781.134" shape-rendering="crispEdges"/>
   <polygon fill="#ecb01f" points="996.148,775.705 995.524,777.625 993.891,778.812 991.872,778.812 990.239,777.625 989.615,775.705 990.239,773.784 991.872,772.598 993.891,772.598 995.524,773.784" shape-rendering="crispEdges"/>
   <polygon fill="#ecb01f" points="976.705,761.397 976.081,763.317 974.448,764.503 972.429,764.503 970.795,763.317 970.171,761.397 970.795,759.477 972.429,758.29 974.448,758.29 976.081,759.477" shape-rendering="crispEdges"/>
   <polygon fill="#ecb01f" points="955.241,737.054 954.618,738.974 952.984,740.161 950.965,740.161 949.332,738.974 948.708,737.054 949.332,735.134 950.965,733.947 952.984,733.947 954.618,735.134" shape-rendering="crispEdges"/>
   <polygon fill="#ecb01f" points="934.395,708.956 933.771,710.875 932.137,712.063 930.119,712.063 928.485,710.875 927.861,708.956 928.485,707.036 930.119,705.849 932.137,705.849 933.771,707.036" shape-rendering="crispEdges"/>
   <polygon fill="#ecb01f" points="914.367,681.068 913.743,682.989 912.109,684.175 910.09,684.175 908.457,682.989 907.833,681.068 908.457,679.148 910.09,677.962 912.109,677.962 913.743,679.148" shape-rendering="crispEdges"/>
   <polygon fill="#ecb01f" points="892.859,652.236 892.235,654.157 890.602,655.343 888.583,655.343 886.95,654.157 886.326,652.236 886.95,650.316 888.583,649.13 890.602,649.13 892.235,650.316" shape-rendering="crispEdges"/>
   <polygon fill="#ecb01f" points="872.527,628.885 871.904,630.805 870.271,631.992 868.251,631.992 866.618,630.805 865.994,628.885 866.618,626.965 868.251,625.778 870.271,625.778 871.904,626.965" shape-rendering="crispEdges"/>
   <polygon fill="#ecb01f" points="851.694,609.425 851.071,611.345 849.438,612.532 847.418,612.532 845.785,611.345 845.161,609.425 845.785,607.505 847.418,606.318 849.438,606.318 851.071,607.505" shape-rendering="crispEdges"/>
   <polygon fill="#ecb01f" points="831.667,597.02 831.042,598.939 829.409,600.126 827.39,600.126 825.757,598.939 825.133,597.02 825.757,595.099 827.39,593.913 829.409,593.913 831.042,595.099" shape-rendering="crispEdges"/>
   <polygon fill="#ecb01f" points="810.113,589.339 809.489,591.26 807.855,592.446 805.837,592.446 804.203,591.26 803.58,589.339 804.203,587.419 805.837,586.233 807.855,586.233 809.489,587.419" shape-rendering="crispEdges"/>
   <polygon fill="#ecb01f" points="790.287,587.642 789.663,589.562 788.029,590.749 786.01,590.749 784.377,589.562 783.753,587.642 784.377,585.722 786.01,584.535 788.029,584.535 789.663,585.722" shape-rendering="crispEdges"/>
   <polygon fill="#ecb01f" points="769.454,590.917 768.83,592.837 767.196,594.023 765.178,594.023 763.544,592.837 762.92,590.917 763.544,588.997 765.178,587.81 767.196,587.81 768.83,588.997" shape-rendering="crispEdges"/>
   <polygon fill="#ecb01f" points="745.414,599.596 744.79,601.516 743.156,602.703 741.137,602.703 739.504,601.516 738.88,599.596 739.504,597.676 741.137,596.489 743.156,596.489 744.79,597.676" shape-rendering="crispEdges"/>
   <polygon fill="#ecb01f" points="726.869,608.596 726.245,610.516 724.612,611.703 722.593,611.703 720.959,610.516 720.335,608.596 720.959,606.676 722.593,605.489 724.612,605.489 726.245,606.676" shape-rendering="crispEdges"/>
   <polygon fill="#ecb01f" points="706.602,619.32 705.978,621.24 704.345,622.427 702.326,622.427 700.692,621.24 700.068,619.32 700.692,617.4 702.326,616.213 704.345,616.213 705.978,617.4" shape-rendering="crispEdges"/>
   <polygon fill="#ecb01f" points="686.193,630.111 685.569,632.031 683.936,633.217 681.917,633.217 680.283,632.031 679.659,630.111 680.283,628.19 681.917,627.004 683.936,627.004 685.569,628.19" shape-rendering="crispEdges"/>
   <polygon fill="#ecb01f" points="664.656,638.547 664.032,640.467 662.399,641.654 660.38,641.654 658.747,640.467 658.123,638.547 658.747,636.627 660.38,635.44 662.399,635.44 664.032,636.627" shape-rendering="crispEdges"/>
   <polygon fill="#ecb01f" points="643.913,643.632 643.289,645.552 641.656,646.739 639.637,646.739 638.003,645.552 637.379,643.632 638.003,641.711 639.637,640.525 641.656,640.525 643.289,641.711" shape-rendering="crispEdges"/>
   <polygon fill="#ecb01f" points="623.98,642.675 623.356,644.595 621.723,645.782 619.704,645.782 618.07,644.595 617.446,642.675 618.07,640.755 619.704,639.568 621.723,639.568 623.356,640.755" shape-rendering="crispEdges"/>
   <polygon fill="#ecb01f" points="603.952,635.574 603.328,637.494 601.694,638.681 599.676,638.681 598.042,637.494 597.418,635.574 598.042,633.654 599.676,632.467 601.694,632.467 603.328,633.654" shape-rendering="crispEdges"/>
   <polygon fill="#ecb01f" points="583.378,622.193 582.754,624.113 581.121,625.3 579.102,625.3 577.468,624.113 576.844,622.193 577.468,620.273 579.102,619.086 581.121,619.086 582.754,620.273" shape-rendering="crispEdges"/>
   <polygon fill="#ecb01f" points="562.531,599.689 561.907,601.609 560.274,602.796 558.255,602.796 556.622,601.609 555.998,599.689 556.622,597.769 558.255,596.583 560.274,596.583 561.907,597.769" shape-rendering="crispEdges"/>
   <polygon fill="#ecb01f" points="541.132,570.548 540.509,572.469 538.875,573.655 536.856,573.655 535.223,572.469 534.599,570.548 535.223,568.628 536.856,567.441 538.875,567.441 540.509,568.628" shape-rendering="crispEdges"/>
   <polygon fill="#ecb01f" points="521.165,537.578 520.541,539.498 518.908,540.684 516.889,540.684 515.255,539.498 514.631,537.578 515.255,535.657 516.889,534.471 518.908,534.471 520.541,535.657" shape-rendering="crispEdges"/>
   <polygon fill="#ecb01f" points="500.318,495.079 499.694,496.999 498.061,498.186 496.042,498.186 494.409,496.999 493.785,495.079 494.409,493.159 496.042,491.972 498.061,491.972 499.694,493.159" shape-rendering="crispEdges"/>
   <polygon fill="#ecb01f" points="480.06,456.868 479.436,458.788 477.803,459.975 475.784,459.975 474.15,458.788 473.527,456.868 474.15,454.948 475.784,453.761 477.803,453.761 479.436,454.948" shape-rendering="crispEdges"/>
   <polygon fill="#ecb01f" points="459.255,418.639 458.631,420.56 456.998,421.746 454.979,421.746 453.346,420.56 452.722,418.639 453.346,416.719 454.979,415.533 456.998,415.533 458.631,416.719" shape-rendering="crispEdges"/>
   <polygon fill="#ecb01f" points="439.166,382.293 438.542,384.213 436.909,385.4 434.89,385.4 433.257,384.213 432.633,382.293 433.257,380.374 434.89,379.187 436.909,379.187 438.542,380.374" shape-rendering="crispEdges"/>
   <polygon fill="#ecb01f" points="417.847,345.637 417.223,347.557 415.59,348.744 413.571,348.744 411.938,347.557 411.314,345.637 411.938,343.717 413.571,342.53 415.59,342.53 417.223,343.717" shape-rendering="crispEdges"/>
   <polygon fill="#ecb01f" points="397.042,322.388 396.418,324.308 394.785,325.494 392.766,325.494 391.133,324.308 390.509,322.388 391.133,320.467 392.766,319.281 394.785,319.281 396.418,320.467" shape-rendering="crispEdges"/>
   <polygon fill="#ecb01f" points="376.953,305.101 376.33,307.021 374.696,308.208 372.677,308.208 371.044,307.021 370.42,305.101 371.044,303.181 372.677,301.995 374.696,301.995 376.33,303.181" shape-rendering="crispEdges"/>
   <polygon fill="#7d2e8d" points="1245.3,241.253 1244.67,243.173 1243.04,244.36 1241.02,244.36 1239.39,243.173 1238.77,241.253 1239.39,239.333 1241.02,238.146 1243.04,238.146 1244.67,239.333" shape-rendering="crispEdges"/>
   <polygon fill="#7d2e8d" points="1224.75,277.141 1224.12,279.061 1222.49,280.248 1220.47,280.248 1218.84,279.061 1218.21,277.141 1218.84,275.221 1220.47,274.034 1222.49,274.034 1224.12,275.221" shape-rendering="crispEdges"/>
   <polygon fill="#7d2e8d" points="1203.53,308.866 1202.91,310.786 1201.27,311.973 1199.25,311.973 1197.62,310.786 1197,308.866 1197.62,306.946 1199.25,305.759 1201.27,305.759 1202.91,306.946" shape-rendering="crispEdges"/>
   <polygon fill="#7d2e8d" points="1182.67,335.593 1182.04,337.514 1180.41,338.7 1178.39,338.7 1176.76,337.514 1176.13,335.593 1176.76,333.673 1178.39,332.486 1180.41,332.486 1182.04,333.673" shape-rendering="crispEdges"/>
   <polygon fill="#7d2e8d" points="1162.01,356.659 1161.38,358.579 1159.75,359.765 1157.73,359.765 1156.1,358.579 1155.47,356.659 1156.1,354.738 1157.73,353.552 1159.75,353.552 1161.38,354.738" shape-rendering="crispEdges"/>
   <polygon fill="#7d2e8d" points="1141.51,373.022 1140.89,374.942 1139.26,376.129 1137.24,376.129 1135.6,374.942 1134.98,373.022 1135.6,371.102 1137.24,369.916 1139.26,369.916 1140.89,371.102" shape-rendering="crispEdges"/>
   <polygon fill="#7d2e8d" points="1121.16,383.996 1120.53,385.916 1118.9,387.103 1116.88,387.103 1115.25,385.916 1114.63,383.996 1115.25,382.076 1116.88,380.889 1118.9,380.889 1120.53,382.076" shape-rendering="crispEdges"/>
   <polygon fill="#7d2e8d" points="1099.07,389.979 1098.44,391.899 1096.81,393.086 1094.79,393.086 1093.16,391.899 1092.53,389.979 1093.16,388.059 1094.79,386.873 1096.81,386.873 1098.44,388.059" shape-rendering="crispEdges"/>
   <polygon fill="#7d2e8d" points="1078.85,390.87 1078.22,392.79 1076.59,393.977 1074.57,393.977 1072.94,392.79 1072.31,390.87 1072.94,388.95 1074.57,387.763 1076.59,387.763 1078.22,388.95" shape-rendering="crispEdges"/>
   <polygon fill="#7d2e8d" points="1059.08,389.219 1058.45,391.139 1056.82,392.326 1054.8,392.326 1053.17,391.139 1052.54,389.219 1053.17,387.299 1054.8,386.112 1056.82,386.112 1058.45,387.299" shape-rendering="crispEdges"/>
   <polygon fill="#7d2e8d" points="1037.78,384.134 1037.15,386.054 1035.52,387.24 1033.5,387.24 1031.87,386.054 1031.24,384.134 1031.87,382.213 1033.5,381.027 1035.52,381.027 1037.15,382.213" shape-rendering="crispEdges"/>
   <polygon fill="#7d2e8d" points="1017.55,377.514 1016.93,379.434 1015.3,380.621 1013.28,380.621 1011.64,379.434 1011.02,377.514 1011.64,375.594 1013.28,374.407 1015.3,374.407 1016.93,375.594" shape-rendering="crispEdges"/>
   <polygon fill="#7d2e8d" points="996.148,371.566 995.524,373.486 993.891,374.673 991.872,374.673 990.239,373.486 989.615,371.566 990.239,369.646 991.872,368.459 993.891,368.459 995.524,369.646" shape-rendering="crispEdges"/>
   <polygon fill="#7d2e8d" points="976.705,368.372 976.081,370.292 974.448,371.478 972.429,371.478 970.795,370.292 970.171,368.372 970.795,366.451 972.429,365.265 974.448,365.265 976.081,366.451" shape-rendering="crispEdges"/>
   <polygon fill="#7d2e8d" points="955.241,366.873 954.618,368.793 952.984,369.98 950.965,369.98 949.332,368.793 948.708,366.873 949.332,364.953 950.965,363.767 952.984,363.767 954.618,364.953" shape-rendering="crispEdges"/>
   <polygon fill="#7d2e8d" points="934.395,368.257 933.771,370.177 932.137,371.364 930.119,371.364 928.485,370.177 927.861,368.257 928.485,366.337 930.119,365.15 932.137,365.15 933.771,366.337" shape-rendering="crispEdges"/>
   <polygon fill="#7d2e8d" points="914.367,372.76 913.743,374.68 912.109,375.866 910.09,375.866 908.457,374.68 907.833,372.76 908.457,370.839 910.09,369.653 912.109,369.653 913.743,370.839" shape-rendering="crispEdges"/>
   <polygon fill="#7d2e8d" points="892.859,380.524 892.235,382.445 890.602,383.631 888.583,383.631 886.95,382.445 886.326,380.524 886.95,378.604 888.583,377.418 890.602,377.418 892.235,378.604" shape-rendering="crispEdges"/>
   <polygon fill="#7d2e8d" points="872.527,390.246 871.904,392.166 870.271,393.353 868.251,393.353 866.618,392.166 865.994,390.246 866.618,388.326 868.251,387.139 870.271,387.139 871.904,388.326" shape-rendering="crispEdges"/>
   <polygon fill="#7d2e8d" points="851.694,401.087 851.071,403.007 849.438,404.194 847.418,404.194 845.785,403.007 845.161,401.087 845.785,399.167 847.418,397.98 849.438,397.98 851.071,399.167" shape-rendering="crispEdges"/>
   <polygon fill="#7d2e8d" points="831.667,411.113 831.042,413.033 829.409,414.22 827.39,414.22 825.757,413.033 825.133,411.113 825.757,409.193 827.39,408.006 829.409,408.006 831.042,409.193" shape-rendering="crispEdges"/>
   <polygon fill="#7d2e8d" points="810.113,419.648 809.489,421.568 807.855,422.755 805.837,422.755 804.203,421.568 803.58,419.648 804.203,417.728 805.837,416.541 807.855,416.541 809.489,417.728" shape-rendering="crispEdges"/>
   <polygon fill="#7d2e8d" points="790.287,424.133 789.663,426.054 788.029,427.24 786.01,427.24 784.377,426.054 783.753,424.133 784.377,422.213 786.01,421.026 788.029,421.026 789.663,422.213" shape-rendering="crispEdges"/>
   <polygon fill="#7d2e8d" points="769.454,423.843 768.83,425.763 767.196,426.949 765.178,426.949 763.544,425.763 762.92,423.843 763.544,421.922 765.178,420.736 767.196,420.736 768.83,421.922" shape-rendering="crispEdges"/>
   <polygon fill="#7d2e8d" points="745.414,416.471 744.79,418.391 743.156,419.578 741.137,419.578 739.504,418.391 738.88,416.471 739.504,414.551 741.137,413.364 743.156,413.364 744.79,414.551" shape-rendering="crispEdges"/>
   <polygon fill="#7d2e8d" points="726.869,407.231 726.245,409.151 724.612,410.337 722.593,410.337 720.959,409.151 720.335,407.231 720.959,405.311 722.593,404.124 724.612,404.124 726.245,405.311" shape-rendering="crispEdges"/>
   <polygon fill="#7d2e8d" points="706.602,393.723 705.978,395.643 704.345,396.83 702.326,396.83 700.692,395.643 700.068,393.723 700.692,391.802 702.326,390.616 704.345,390.616 705.978,391.802" shape-rendering="crispEdges"/>
   <polygon fill="#7d2e8d" points="686.193,377.73 685.569,379.65 683.936,380.837 681.917,380.837 680.283,379.65 679.659,377.73 680.283,375.81 681.917,374.624 683.936,374.624 685.569,375.81" shape-rendering="crispEdges"/>
   <polygon fill="#7d2e8d" points="664.656,361.145 664.032,363.065 662.399,364.251 660.38,364.251 658.747,363.065 658.123,361.145 658.747,359.225 660.38,358.038 662.399,358.038 664.032,359.225" shape-rendering="crispEdges"/>
   <polygon fill="#7d2e8d" points="643.913,346.393 643.289,348.313 641.656,349.5 639.637,349.5 638.003,348.313 637.379,346.393 638.003,344.473 639.637,343.286 641.656,343.286 643.289,344.473" shape-rendering="crispEdges"/>
   <polygon fill="#7d2e8d" points="623.98,332.225 623.356,334.145 621.723,335.332 619.704,335.332 618.07,334.145 617.446,332.225 618.07,330.305 619.704,329.118 621.723,329.118 623.356,330.305" shape-rendering="crispEdges"/>
   <polygon fill="#7d2e8d" points="603.952,319.441 603.328,321.361 601.694,322.547 599.676,322.547 598.042,321.361 597.418,319.441 598.042,317.521 599.676,316.334 601.694,316.334 603.328,317.521" shape-rendering="crispEdges"/>
   <polygon fill="#7d2e8d" points="583.378,307.635 582.754,309.556 581.121,310.742 579.102,310.742 577.468,309.556 576.844,307.635 577.468,305.715 579.102,304.529 581.121,304.529 582.754,305.715" shape-rendering="crispEdges"/>
   <polygon fill="#7d2e8d" points="562.531,299.057 561.907,300.977 560.274,302.163 558.255,302.163 556.622,300.977 555.998,299.057 556.622,297.136 558.255,295.95 560.274,295.95 561.907,297.136" shape-rendering="crispEdges"/>
   <polygon fill="#7d2e8d" points="541.132,290.867 540.509,292.787 538.875,293.973 536.856,293.973 535.223,292.787 534.599,290.867 535.223,288.946 536.856,287.76 538.875,287.76 540.509,288.946" shape-rendering="crispEdges"/>
   <polygon fill="#7d2e8d" points="521.165,284.266 520.541,286.186 518.908,287.373 516.889,287.373 515.255,286.186 514.631,284.266 515.255,282.346 516.889,281.159 518.908,281.159 520.541,282.346" shape-rendering="crispEdges"/>
   <polygon fill="#7d2e8d" points="500.318,280.052 499.694,281.972 498.061,283.159 496.042,283.159 494.409,281.972 493.785,280.052 494.409,278.132 496.042,276.945 498.061,276.945 499.694,278.132" shape-rendering="crispEdges"/>
   <polygon fill="#7d2e8d" points="480.06,276.974 479.436,278.894 477.803,280.08 475.784,280.08 474.15,278.894 473.527,276.974 474.15,275.053 475.784,273.867 477.803,273.867 479.436,275.053" shape-rendering="crispEdges"/>
   <polygon fill="#7d2e8d" points="459.255,276.703 458.631,278.624 456.998,279.81 454.979,279.81 453.346,278.624 452.722,276.703 453.346,274.783 454.979,273.597 456.998,273.597 458.631,274.783" shape-rendering="crispEdges"/>
   <polygon fill="#7d2e8d" points="439.166,278.054 438.542,279.974 436.909,281.16 434.89,281.16 433.257,279.974 432.633,278.054 433.257,276.133 434.89,274.947 436.909,274.947 438.542,276.133" shape-rendering="crispEdges"/>
   <polygon fill="#7d2e8d" points="417.847,276.635 417.223,278.555 415.59,279.742 413.571,279.742 411.938,278.555 411.314,276.635 411.938,274.715 413.571,273.528 415.59,273.528 417.223,274.715" shape-rendering="crispEdges"/>
   <polygon fill="#7d2e8d" points="397.042,278.356 396.418,280.276 394.785,281.463 392.766,281.463 391.133,280.276 390.509,278.356 391.133,276.436 392.766,275.25 394.785,275.25 396.418,276.436" shape-rendering="crispEdges"/>
   <polygon fill="#7d2e8d" points="376.953,279.482 376.33,281.402 374.696,282.589 372.677,282.589 371.044,281.402 370.42,279.482 371.044,277.562 372.677,276.375 374.696,276.375 376.33,277.562" shape-rendering="crispEdges"/>
   <polygon fill="#76ab2f" points="1245.3,158.186 1244.67,160.106 1243.04,161.292 1241.02,161.292 1239.39,160.106 1238.77,158.186 1239.39,156.266 1241.02,155.079 1243.04,155.079 1244.67,156.266" shape-rendering="crispEdges"/>
   <polygon fill="#76ab2f" points="1224.75,185.322 1224.12,187.243 1222.49,188.429 1220.47,188.429 1218.84,187.243 1218.21,185.322 1218.84,183.402 1220.47,182.216 1222.49,182.216 1224.12,183.402" shape-rendering="crispEdges"/>
   <polygon fill="#76ab2f" points="1203.53,210.053 1202.91,211.973 1201.27,213.16 1199.25,213.16 1197.62,211.973 1197,210.053 1197.62,208.133 1199.25,206.946 1201.27,206.946 1202.91,208.133" shape-rendering="crispEdges"/>
   <polygon fill="#76ab2f" points="1182.67,231.743 1182.04,233.663 1180.41,234.85 1178.39,234.85 1176.76,233.663 1176.13,231.743 1176.76,229.823 1178.39,228.636 1180.41,228.636 1182.04,229.823" shape-rendering="crispEdges"/>
   <polygon fill="#76ab2f" points="1162.01,250.491 1161.38,252.411 1159.75,253.598 1157.73,253.598 1156.1,252.411 1155.47,250.491 1156.1,248.571 1157.73,247.384 1159.75,247.384 1161.38,248.571" shape-rendering="crispEdges"/>
   <polygon fill="#76ab2f" points="1141.51,267.736 1140.89,269.656 1139.26,270.843 1137.24,270.843 1135.6,269.656 1134.98,267.736 1135.6,265.816 1137.24,264.629 1139.26,264.629 1140.89,265.816" shape-rendering="crispEdges"/>
   <polygon fill="#76ab2f" points="1121.16,283.84 1120.53,285.761 1118.9,286.947 1116.88,286.947 1115.25,285.761 1114.63,283.84 1115.25,281.92 1116.88,280.734 1118.9,280.734 1120.53,281.92" shape-rendering="crispEdges"/>
   <polygon fill="#76ab2f" points="1099.07,300.439 1098.44,302.359 1096.81,303.546 1094.79,303.546 1093.16,302.359 1092.53,300.439 1093.16,298.519 1094.79,297.333 1096.81,297.333 1098.44,298.519" shape-rendering="crispEdges"/>
   <polygon fill="#76ab2f" points="1078.85,315.659 1078.22,317.579 1076.59,318.766 1074.57,318.766 1072.94,317.579 1072.31,315.659 1072.94,313.739 1074.57,312.552 1076.59,312.552 1078.22,313.739" shape-rendering="crispEdges"/>
   <polygon fill="#76ab2f" points="1059.08,329.252 1058.45,331.172 1056.82,332.359 1054.8,332.359 1053.17,331.172 1052.54,329.252 1053.17,327.333 1054.8,326.146 1056.82,326.146 1058.45,327.333" shape-rendering="crispEdges"/>
   <polygon fill="#76ab2f" points="1037.78,344.271 1037.15,346.191 1035.52,347.378 1033.5,347.378 1031.87,346.191 1031.24,344.271 1031.87,342.352 1033.5,341.165 1035.52,341.165 1037.15,342.352" shape-rendering="crispEdges"/>
   <polygon fill="#76ab2f" points="1017.55,357.17 1016.93,359.09 1015.3,360.277 1013.28,360.277 1011.64,359.09 1011.02,357.17 1011.64,355.25 1013.28,354.063 1015.3,354.063 1016.93,355.25" shape-rendering="crispEdges"/>
   <polygon fill="#76ab2f" points="996.148,371.258 995.524,373.178 993.891,374.365 991.872,374.365 990.239,373.178 989.615,371.258 990.239,369.338 991.872,368.151 993.891,368.151 995.524,369.338" shape-rendering="crispEdges"/>
   <polygon fill="#76ab2f" points="976.705,383.191 976.081,385.111 974.448,386.298 972.429,386.298 970.795,385.111 970.171,383.191 970.795,381.271 972.429,380.084 974.448,380.084 976.081,381.271" shape-rendering="crispEdges"/>
   <polygon fill="#76ab2f" points="955.241,395.01 954.618,396.93 952.984,398.117 950.965,398.117 949.332,396.93 948.708,395.01 949.332,393.09 950.965,391.903 952.984,391.903 954.618,393.09" shape-rendering="crispEdges"/>
   <polygon fill="#76ab2f" points="934.395,406.123 933.771,408.042 932.137,409.229 930.119,409.229 928.485,408.042 927.861,406.123 928.485,404.202 930.119,403.016 932.137,403.016 933.771,404.202" shape-rendering="crispEdges"/>
   <polygon fill="#76ab2f" points="914.367,415.638 913.743,417.558 912.109,418.745 910.09,418.745 908.457,417.558 907.833,415.638 908.457,413.718 910.09,412.531 912.109,412.531 913.743,413.718" shape-rendering="crispEdges"/>
   <polygon fill="#76ab2f" points="892.859,424.797 892.235,426.717 890.602,427.904 888.583,427.904 886.95,426.717 886.326,424.797 886.95,422.877 888.583,421.69 890.602,421.69 892.235,422.877" shape-rendering="crispEdges"/>
   <polygon fill="#76ab2f" points="872.527,431.842 871.904,433.762 870.271,434.948 868.251,434.948 866.618,433.762 865.994,431.842 866.618,429.921 868.251,428.735 870.271,428.735 871.904,429.921" shape-rendering="crispEdges"/>
   <polygon fill="#76ab2f" points="851.694,437.473 851.071,439.393 849.438,440.58 847.418,440.58 845.785,439.393 845.161,437.473 845.785,435.553 847.418,434.366 849.438,434.366 851.071,435.553" shape-rendering="crispEdges"/>
   <polygon fill="#76ab2f" points="831.667,440.624 831.042,442.544 829.409,443.731 827.39,443.731 825.757,442.544 825.133,440.624 825.757,438.704 827.39,437.517 829.409,437.517 831.042,438.704" shape-rendering="crispEdges"/>
   <polygon fill="#76ab2f" points="810.113,442.084 809.489,444.004 807.855,445.191 805.837,445.191 804.203,444.004 803.58,442.084 804.203,440.164 805.837,438.978 807.855,438.978 809.489,440.164" shape-rendering="crispEdges"/>
   <polygon fill="#76ab2f" points="790.287,441.994 789.663,443.915 788.029,445.101 786.01,445.101 784.377,443.915 783.753,441.994 784.377,440.074 786.01,438.888 788.029,438.888 789.663,440.074" shape-rendering="crispEdges"/>
   <polygon fill="#76ab2f" points="769.454,441.647 768.83,443.567 767.196,444.753 765.178,444.753 763.544,443.567 762.92,441.647 763.544,439.727 765.178,438.54 767.196,438.54 768.83,439.727" shape-rendering="crispEdges"/>
   <polygon fill="#76ab2f" points="745.414,438.711 744.79,440.631 743.156,441.818 741.137,441.818 739.504,440.631 738.88,438.711 739.504,436.791 741.137,435.604 743.156,435.604 744.79,436.791" shape-rendering="crispEdges"/>
   <polygon fill="#76ab2f" points="726.869,439.312 726.245,441.232 724.612,442.418 722.593,442.418 720.959,441.232 720.335,439.312 720.959,437.392 722.593,436.205 724.612,436.205 726.245,437.392" shape-rendering="crispEdges"/>
   <polygon fill="#76ab2f" points="706.602,437.492 705.978,439.412 704.345,440.599 702.326,440.599 700.692,439.412 700.068,437.492 700.692,435.572 702.326,434.385 704.345,434.385 705.978,435.572" shape-rendering="crispEdges"/>
   <polygon fill="#76ab2f" points="686.193,438.401 685.569,440.321 683.936,441.508 681.917,441.508 680.283,440.321 679.659,438.401 680.283,436.481 681.917,435.294 683.936,435.294 685.569,436.481" shape-rendering="crispEdges"/>
   <polygon fill="#76ab2f" points="664.656,439.617 664.032,441.537 662.399,442.723 660.38,442.723 658.747,441.537 658.123,439.617 658.747,437.696 660.38,436.51 662.399,436.51 664.032,437.696" shape-rendering="crispEdges"/>
   <polygon fill="#76ab2f" points="643.913,442.37 643.289,444.29 641.656,445.476 639.637,445.476 638.003,444.29 637.379,442.37 638.003,440.449 639.637,439.263 641.656,439.263 643.289,440.449" shape-rendering="crispEdges"/>
   <polygon fill="#76ab2f" points="623.98,445.426 623.356,447.346 621.723,448.533 619.704,448.533 618.07,447.346 617.446,445.426 618.07,443.506 619.704,442.319 621.723,442.319 623.356,443.506" shape-rendering="crispEdges"/>
   <polygon fill="#76ab2f" points="603.952,449.159 603.328,451.08 601.694,452.266 599.676,452.266 598.042,451.08 597.418,449.159 598.042,447.239 599.676,446.052 601.694,446.052 603.328,447.239" shape-rendering="crispEdges"/>
   <polygon fill="#76ab2f" points="583.378,456.828 582.754,458.748 581.121,459.935 579.102,459.935 577.468,458.748 576.844,456.828 577.468,454.908 579.102,453.721 581.121,453.721 582.754,454.908" shape-rendering="crispEdges"/>
   <polygon fill="#76ab2f" points="562.531,464.596 561.907,466.516 560.274,467.703 558.255,467.703 556.622,466.516 555.998,464.596 556.622,462.675 558.255,461.489 560.274,461.489 561.907,462.675" shape-rendering="crispEdges"/>
   <polygon fill="#76ab2f" points="541.132,471.866 540.509,473.786 538.875,474.973 536.856,474.973 535.223,473.786 534.599,471.866 535.223,469.946 536.856,468.759 538.875,468.759 540.509,469.946" shape-rendering="crispEdges"/>
   <polygon fill="#76ab2f" points="521.165,476.55 520.541,478.47 518.908,479.656 516.889,479.656 515.255,478.47 514.631,476.55 515.255,474.629 516.889,473.443 518.908,473.443 520.541,474.629" shape-rendering="crispEdges"/>
   <polygon fill="#76ab2f" points="500.318,482.787 499.694,484.707 498.061,485.894 496.042,485.894 494.409,484.707 493.785,482.787 494.409,480.867 496.042,479.68 498.061,479.68 499.694,480.867" shape-rendering="crispEdges"/>
   <polygon fill="#76ab2f" points="480.06,492.308 479.436,494.228 477.803,495.415 475.784,495.415 474.15,494.228 473.527,492.308 474.15,490.388 475.784,489.201 477.803,489.201 479.436,490.388" shape-rendering="crispEdges"/>
   <polygon fill="#76ab2f" points="459.255,506.888 458.631,508.808 456.998,509.995 454.979,509.995 453.346,508.808 452.722,506.888 453.346,504.968 454.979,503.781 456.998,503.781 458.631,504.968" shape-rendering="crispEdges"/>
   <polygon fill="#76ab2f" points="439.166,505.849 438.542,507.769 436.909,508.956 434.89,508.956 433.257,507.769 432.633,505.849 433.257,503.929 434.89,502.742 436.909,502.742 438.542,503.929" shape-rendering="crispEdges"/>
   <polygon fill="#76ab2f" points="417.847,518.459 417.223,520.379 415.59,521.566 413.571,521.566 411.938,520.379 411.314,518.459 411.938,516.539 413.571,515.352 415.59,515.352 417.223,516.539" shape-rendering="crispEdges"/>
   <polygon fill="#76ab2f" points="397.042,526.595 396.418,528.516 394.785,529.702 392.766,529.702 391.133,528.516 390.509,526.595 391.133,524.675 392.766,523.488 394.785,523.488 396.418,524.675" shape-rendering="crispEdges"/>
   <polygon fill="#76ab2f" points="376.953,525.973 376.33,527.893 374.696,529.08 372.677,529.08 371.044,527.893 370.42,525.973 371.044,524.053 372.677,522.866 374.696,522.866 376.33,524.053" shape-rendering="crispEdges"/>
  </g>
  <clipPath id="cp0016001000">
   <polygon points="0,1000 1600,1000 1600,0 0,0"/>
  </clipPath>
  <g clip-path="url(#cp0016001000)">
   <polygon fill="#ffffff" points="1107.29,266.9 1426.14,266.9 1426.14,93.2129 1107.29,93.2129" shape-rendering="crispEdges"/>
   <polyline fill="none" points="1107.29,266.9 1426.14,266.9" stroke="#262626" stroke-dasharray="16,0" stroke-linecap="square" stroke-linejoin="miter" stroke-width="0.7"/>
   <polyline fill="none" points="1107.29,93.2129 1426.14,93.2129" stroke="#262626" stroke-dasharray="16,0" stroke-linecap="square" stroke-linejoin="miter" stroke-width="0.7"/>
   <polyline fill="none" points="1107.29,266.9 1107.29,93.2129" stroke="#262626" stroke-dasharray="16,0" stroke-linecap="square" stroke-linejoin="miter" stroke-width="0.7"/>
   <polyline fill="none" points="1426.14,266.9 1426.14,93.2129" stroke="#262626" stroke-dasharray="16,0" stroke-linecap="square" stroke-linejoin="miter" stroke-width="0.7"/>
   <polygon fill="#0071bc" points="1147.87,114.224 1146.71,116.245 1144.37,116.245 1143.21,114.224 1144.37,112.204 1146.71,112.204 1147.87,114.224" shape-rendering="crispEdges"/>
   <polygon fill="#d85218" points="1147.87,147.141 1146.71,149.161 1144.37,149.161 1143.21,147.141 1144.37,145.12 1146.71,145.12 1147.87,147.141" shape-rendering="crispEdges"/>
   <polygon fill="#ecb01f" points="1147.87,180.057 1146.71,182.077 1144.37,182.077 1143.21,180.057 1144.37,178.036 1146.71,178.036 1147.87,180.057" shape-rendering="crispEdges"/>
   <polygon fill="#7d2e8d" points="1147.87,212.973 1146.71,214.993 1144.37,214.993 1143.21,212.973 1144.37,210.952 1146.71,210.952 1147.87,212.973" shape-rendering="crispEdges"/>
   <polygon fill="#76ab2f" points="1147.87,245.889 1146.71,247.909 1144.37,247.909 1143.21,245.889 1144.37,243.868 1146.71,243.868 1147.87,245.889" shape-rendering="crispEdges"/>
   <g font-family="'Noto Sans'" font-size="36.6038" font-style="normal" font-weight="normal" transform="translate(1183.79,130.724) rotate(-0,-0,-16.5)" xml:space="preserve">
    <text fill="rgb(0,0,0)" x="0 21 34 54 76 105 126 141 161 183 198 " y="-6">EISPOT_0V_1</text>
   </g>
   <g font-family="'Noto Sans'" font-size="36.6038" font-style="normal" font-weight="normal" transform="translate(1183.79,163.64) rotate(-0,-0,-16.5)" xml:space="preserve">
    <text fill="rgb(0,0,0)" x="0 21 34 54 76 105 126 141 161 183 198 " y="-6">EISPOT_0V_2</text>
   </g>
   <g font-family="'Noto Sans'" font-size="36.6038" font-style="normal" font-weight="normal" transform="translate(1183.79,196.556) rotate(-0,-0,-16.5)" xml:space="preserve">
    <text fill="rgb(0,0,0)" x="0 21 34 54 76 105 126 141 161 196 218 233 253 262 282 " y="-6">EISPOT_5mV_1,5A</text>
   </g>
   <g font-family="'Noto Sans'" font-size="36.6038" font-style="normal" font-weight="normal" transform="translate(1183.79,229.473) rotate(-0,-0,-16.5)" xml:space="preserve">
    <text fill="rgb(0,0,0)" x="0 21 34 54 76 105 126 141 161 196 218 233 253 " y="-6">EISPOT_5mV_9A</text>
   </g>
   <g font-family="'Noto Sans'" font-size="36.6038" font-style="normal" font-weight="normal" transform="translate(1183.79,262.389) rotate(-0,-0,-16.5)" xml:space="preserve">
    <text fill="rgb(0,0,0)" x="0 21 34 54 76 105 126 141 161 196 218 233 253 273 " y="-6">EISPOT_5mV_18A</text>
   </g>
  </g>
 </g>
</svg>
