<?xml version='1.0' encoding='UTF-8' standalone='no'?>
<svg height="1000pt" viewBox="0 0 1600 1000" width="1600pt" xmlns="http://www.w3.org/2000/svg" xmlns:xlink="http://www.w3.org/1999/xlink">
 <title>Figure 15: EIS: Idc vs point index</title>
 <desc>
Creator: GL2PS 1.4.2, (C) 1999-2020 C. Geuzaine
For: Octave
CreationDate: Sun Nov  9 14:35:29 2025
</desc>
 <defs/>
 <polygon fill="#ffffff" points="0,0 1600,0 1600,1000 0,1000"/>
 <g>
  <polygon fill="#ffffff" points="0,1000 1600,1000 1600,0 0,0" shape-rendering="crispEdges"/>
  <clipPath id="cp0016001000">
   <polygon points="0,1000 1600,1000 1600,0 0,0"/>
  </clipPath>
  <g clip-path="url(#cp0016001000)">
   <polygon fill="#ffffff" points="208,879.497 1448,879.497 1448,75 208,75" shape-rendering="crispEdges"/>
   <polyline fill="none" points="208,879.497 208,75" stroke="#262626" stroke-dasharray="16,0" stroke-linecap="butt" stroke-linejoin="miter" stroke-opacity="0.15" stroke-width="0.7"/>
   <polyline fill="none" points="456,879.497 456,75" stroke="#262626" stroke-dasharray="16,0" stroke-linecap="butt" stroke-linejoin="miter" stroke-opacity="0.15" stroke-width="0.7"/>
   <polyline fill="none" points="704,879.497 704,75" stroke="#262626" stroke-dasharray="16,0" stroke-linecap="butt" stroke-linejoin="miter" stroke-opacity="0.15" stroke-width="0.7"/>
   <polyline fill="none" points="952,879.497 952,75" stroke="#262626" stroke-dasharray="16,0" stroke-linecap="butt" stroke-linejoin="miter" stroke-opacity="0.15" stroke-width="0.7"/>
   <polyline fill="none" points="1200,879.497 1200,75" stroke="#262626" stroke-dasharray="16,0" stroke-linecap="butt" stroke-linejoin="miter" stroke-opacity="0.15" stroke-width="0.7"/>
   <polyline fill="none" points="1448,879.497 1448,75" stroke="#262626" stroke-dasharray="16,0" stroke-linecap="butt" stroke-linejoin="miter" stroke-opacity="0.15" stroke-width="0.7"/>
   <polyline fill="none" points="208,879.497 208,867.089" stroke="#262626" stroke-linecap="butt" stroke-linejoin="miter" stroke-width="0.7"/>
   <polyline fill="none" points="456,879.497 456,867.089" stroke="#262626" stroke-linecap="butt" stroke-linejoin="miter" stroke-width="0.7"/>
   <polyline fill="none" points="704,879.497 704,867.089" stroke="#262626" stroke-linecap="butt" stroke-linejoin="miter" stroke-width="0.7"/>
   <polyline fill="none" points="952,879.497 952,867.089" stroke="#262626" stroke-linecap="butt" stroke-linejoin="miter" stroke-width="0.7"/>
   <polyline fill="none" points="1200,879.497 1200,867.089" stroke="#262626" stroke-linecap="butt" stroke-linejoin="miter" stroke-width="0.7"/>
   <polyline fill="none" points="1448,879.497 1448,867.089" stroke="#262626" stroke-linecap="butt" stroke-linejoin="miter" stroke-width="0.7"/>
   <g font-family="'Noto Sans'" font-size="40.6709" font-style="normal" font-weight="normal" transform="translate(196.5,941.019) rotate(-0,11.5,-31)" xml:space="preserve">
    <text fill="rgb(38,38,38)" x="0 " y="-1">0</text>
   </g>
   <g font-family="'Noto Sans'" font-size="40.6709" font-style="normal" font-weight="normal" transform="translate(433,941.019) rotate(-0,23,-31)" xml:space="preserve">
    <text fill="rgb(38,38,38)" x="0 23 " y="-1">10</text>
   </g>
   <g font-family="'Noto Sans'" font-size="40.6709" font-style="normal" font-weight="normal" transform="translate(681,941.019) rotate(-0,23,-31)" xml:space="preserve">
    <text fill="rgb(38,38,38)" x="0 23 " y="-1">20</text>
   </g>
   <g font-family="'Noto Sans'" font-size="40.6709" font-style="normal" font-weight="normal" transform="translate(929,941.019) rotate(-0,23,-31)" xml:space="preserve">
    <text fill="rgb(38,38,38)" x="0 23 " y="-1">30</text>
   </g>
   <g font-family="'Noto Sans'" font-size="40.6709" font-style="normal" font-weight="normal" transform="translate(1177,941.019) rotate(-0,23,-31)" xml:space="preserve">
    <text fill="rgb(38,38,38)" x="0 23 " y="-1">40</text>
   </g>
   <g font-family="'Noto Sans'" font-size="40.6709" font-style="normal" font-weight="normal" transform="translate(1425,941.019) rotate(-0,23,-31)" xml:space="preserve">
    <text fill="rgb(38,38,38)" x="0 23 " y="-1">50</text>
   </g>
   <polyline fill="none" points="208,879.497 1448,879.497" stroke="#262626" stroke-dasharray="16,0" stroke-linecap="butt" stroke-linejoin="miter" stroke-opacity="0.15" stroke-width="0.7"/>
   <polyline fill="none" points="208,678.373 1448,678.373" stroke="#262626" stroke-dasharray="16,0" stroke-linecap="butt" stroke-linejoin="miter" stroke-opacity="0.15" stroke-width="0.7"/>
   <polyline fill="none" points="208,477.249 1448,477.249" stroke="#262626" stroke-dasharray="16,0" stroke-linecap="butt" stroke-linejoin="miter" stroke-opacity="0.15" stroke-width="0.7"/>
   <polyline fill="none" points="208,276.124 1448,276.124" stroke="#262626" stroke-dasharray="16,0" stroke-linecap="butt" stroke-linejoin="miter" stroke-opacity="0.15" stroke-width="0.7"/>
   <polyline fill="none" points="208,75 1448,75" stroke="#262626" stroke-dasharray="16,0" stroke-linecap="butt" stroke-linejoin="miter" stroke-opacity="0.15" stroke-width="0.7"/>
   <polyline fill="none" points="208,879.497 220.4,879.497" stroke="#262626" stroke-linecap="butt" stroke-linejoin="miter" stroke-width="0.7"/>
   <polyline fill="none" points="208,678.373 220.4,678.373" stroke="#262626" stroke-linecap="butt" stroke-linejoin="miter" stroke-width="0.7"/>
   <polyline fill="none" points="208,477.249 220.4,477.249" stroke="#262626" stroke-linecap="butt" stroke-linejoin="miter" stroke-width="0.7"/>
   <polyline fill="none" points="208,276.124 220.4,276.124" stroke="#262626" stroke-linecap="butt" stroke-linejoin="miter" stroke-width="0.7"/>
   <polyline fill="none" points="208,75 220.4,75" stroke="#262626" stroke-linecap="butt" stroke-linejoin="miter" stroke-width="0.7"/>
   <g font-family="'Noto Sans'" font-size="40.6709" font-style="normal" font-weight="normal" transform="translate(164.665,894.997) rotate(-0,23,-15.5)" xml:space="preserve">
    <text fill="rgb(38,38,38)" x="0 " y="-1">0</text>
   </g>
   <g font-family="'Noto Sans'" font-size="40.6709" font-style="normal" font-weight="normal" transform="translate(164.665,693.873) rotate(-0,23,-15.5)" xml:space="preserve">
    <text fill="rgb(38,38,38)" x="0 " y="-1">5</text>
   </g>
   <g font-family="'Noto Sans'" font-size="40.6709" font-style="normal" font-weight="normal" transform="translate(141.665,492.748) rotate(-0,46,-15.5)" xml:space="preserve">
    <text fill="rgb(38,38,38)" x="0 23 " y="-1">10</text>
   </g>
   <g font-family="'Noto Sans'" font-size="40.6709" font-style="normal" font-weight="normal" transform="translate(141.665,291.624) rotate(-0,46,-15.5)" xml:space="preserve">
    <text fill="rgb(38,38,38)" x="0 23 " y="-1">15</text>
   </g>
   <g font-family="'Noto Sans'" font-size="40.6709" font-style="normal" font-weight="normal" transform="translate(141.665,90.5) rotate(-0,46,-15.5)" xml:space="preserve">
    <text fill="rgb(38,38,38)" x="0 23 " y="-1">20</text>
   </g>
   <polyline fill="none" points="208,879.497 1448,879.497" stroke="#262626" stroke-dasharray="16,0" stroke-linecap="square" stroke-linejoin="miter" stroke-width="0.7"/>
   <polyline fill="none" points="208,879.497 208,75" stroke="#262626" stroke-dasharray="16,0" stroke-linecap="square" stroke-linejoin="miter" stroke-width="0.7"/>
   <g font-family="'Noto Sans'" font-size="44.7379" font-style="normal" font-weight="normal" transform="translate(672,1000.02) rotate(-0,156,-54)" xml:space="preserve">
    <text fill="rgb(38,38,38)" x="0 27 54 66 94 110 122 134 162 190 215 239 251 267 296 " y="-13">Point index (#)</text>
   </g>
   <g font-family="'Noto Sans'" font-size="44.7379" font-style="normal" font-weight="normal" transform="translate(40.6646,477.248) rotate(-90,96,0)" xml:space="preserve">
    <text fill="rgb(38,38,38)" x="0 15 34 52 80 102 119 131 147 176 " y="-13">I_{dc} (A)</text>
   </g>
   <g font-family="'Noto Sans'" font-size="44.7379" font-style="normal" font-weight="normal" transform="translate(630.5,65) rotate(-0,197.5,0)" xml:space="preserve">
    <text fill="rgb(0,0,0)" x="0 25 40 65 78 90 105 124 142 170 192 209 221 244 266 278 290 318 346 371 " y="-13">EIS: I_{dc} vs index</text>
   </g>
   <polyline fill="none" points="232.8,879.459 257.6,879.459 282.4,879.462 307.2,879.461 332,879.462 356.8,879.459" stroke="#0071bc" stroke-linecap="butt" stroke-linejoin="round" stroke-width="0.7"/>
   <polygon fill="#0071bc" points="236.066,879.459 235.443,881.38 233.81,882.566 231.791,882.566 230.157,881.38 229.533,879.459 230.157,877.54 231.791,876.353 233.81,876.353 235.443,877.54" shape-rendering="crispEdges"/>
   <polygon fill="#0071bc" points="260.867,879.459 260.243,881.379 258.609,882.566 256.591,882.566 254.957,881.379 254.333,879.459 254.957,877.54 256.591,876.353 258.609,876.353 260.243,877.54" shape-rendering="crispEdges"/>
   <polygon fill="#0071bc" points="285.667,879.462 285.043,881.383 283.409,882.569 281.391,882.569 279.757,881.383 279.133,879.462 279.757,877.542 281.391,876.355 283.409,876.355 285.043,877.542" shape-rendering="crispEdges"/>
   <polygon fill="#0071bc" points="310.467,879.461 309.843,881.381 308.209,882.568 306.19,882.568 304.557,881.381 303.934,879.461 304.557,877.541 306.19,876.354 308.209,876.354 309.843,877.541" shape-rendering="crispEdges"/>
   <polygon fill="#0071bc" points="335.267,879.462 334.643,881.382 333.009,882.569 330.991,882.569 329.357,881.382 328.733,879.462 329.357,877.542 330.991,876.355 333.009,876.355 334.643,877.542" shape-rendering="crispEdges"/>
   <polygon fill="#0071bc" points="360.066,879.459 359.443,881.379 357.81,882.566 355.791,882.566 354.157,881.379 353.533,879.459 354.157,877.539 355.791,876.353 357.81,876.353 359.443,877.539" shape-rendering="crispEdges"/>
   <polyline fill="none" points="232.8,879.402 257.6,879.409 282.4,879.409 307.2,879.413 332,879.411 356.8,879.406" stroke="#d85218" stroke-linecap="butt" stroke-linejoin="round" stroke-width="0.7"/>
   <polygon fill="#d85218" points="236.066,879.402 235.443,881.322 233.81,882.509 231.791,882.509 230.157,881.322 229.533,879.402 230.157,877.482 231.791,876.295 233.81,876.295 235.443,877.482" shape-rendering="crispEdges"/>
   <polygon fill="#d85218" points="260.867,879.409 260.243,881.329 258.609,882.516 256.591,882.516 254.957,881.329 254.333,879.409 254.957,877.489 256.591,876.302 258.609,876.302 260.243,877.489" shape-rendering="crispEdges"/>
   <polygon fill="#d85218" points="285.667,879.409 285.043,881.329 283.409,882.516 281.391,882.516 279.757,881.329 279.133,879.409 279.757,877.489 281.391,876.302 283.409,876.302 285.043,877.489" shape-rendering="crispEdges"/>
   <polygon fill="#d85218" points="310.467,879.413 309.843,881.333 308.209,882.519 306.19,882.519 304.557,881.333 303.934,879.413 304.557,877.492 306.19,876.306 308.209,876.306 309.843,877.492" shape-rendering="crispEdges"/>
   <polygon fill="#d85218" points="335.267,879.411 334.643,881.331 333.009,882.518 330.991,882.518 329.357,881.331 328.733,879.411 329.357,877.491 330.991,876.304 333.009,876.304 334.643,877.491" shape-rendering="crispEdges"/>
   <polygon fill="#d85218" points="360.066,879.406 359.443,881.326 357.81,882.513 355.791,882.513 354.157,881.326 353.533,879.406 354.157,877.486 355.791,876.299 357.81,876.299 359.443,877.486" shape-rendering="crispEdges"/>
   <polyline fill="none" points="232.8,825.176 257.6,825.269 282.4,825.29 307.2,825.286 332,825.417 356.8,825.418 381.6,825.491 406.4,825.498 431.2,825.46 456,825.547 480.8,825.495 505.6,825.613 530.4,825.57 555.2,825.641 580,825.625 604.8,825.683 629.6,825.709 654.4,825.686 679.2,825.741 704,825.735 728.8,825.868 753.6,825.866 778.4,825.861 803.2,825.928 828,825.83 852.8,825.993 877.6,825.968 902.4,826.008 927.2,826.004 952,826.03 976.8,826.045 1001.6,825.918 1026.4,826.019 1051.2,826.088 1076,826.114 1100.8,826.181 1125.6,826.2 1150.4,826.253 1175.2,826.374 1200,826.486 1224.8,826.637 1249.6,826.77 1274.4,826.92" stroke="#ecb01f" stroke-linecap="butt" stroke-linejoin="round" stroke-width="0.7"/>
   <polygon fill="#ecb01f" points="236.066,825.176 235.443,827.096 233.81,828.283 231.791,828.283 230.157,827.096 229.533,825.176 230.157,823.256 231.791,822.069 233.81,822.069 235.443,823.256" shape-rendering="crispEdges"/>
   <polygon fill="#ecb01f" points="260.867,825.269 260.243,827.189 258.609,828.375 256.591,828.375 254.957,827.189 254.333,825.269 254.957,823.349 256.591,822.162 258.609,822.162 260.243,823.349" shape-rendering="crispEdges"/>
   <polygon fill="#ecb01f" points="285.667,825.29 285.043,827.21 283.409,828.397 281.391,828.397 279.757,827.21 279.133,825.29 279.757,823.37 281.391,822.184 283.409,822.184 285.043,823.37" shape-rendering="crispEdges"/>
   <polygon fill="#ecb01f" points="310.467,825.286 309.843,827.206 308.209,828.393 306.19,828.393 304.557,827.206 303.934,825.286 304.557,823.365 306.19,822.179 308.209,822.179 309.843,823.365" shape-rendering="crispEdges"/>
   <polygon fill="#ecb01f" points="335.267,825.417 334.643,827.336 333.009,828.523 330.991,828.523 329.357,827.336 328.733,825.417 329.357,823.496 330.991,822.31 333.009,822.31 334.643,823.496" shape-rendering="crispEdges"/>
   <polygon fill="#ecb01f" points="360.066,825.418 359.443,827.338 357.81,828.525 355.791,828.525 354.157,827.338 353.533,825.418 354.157,823.498 355.791,822.312 357.81,822.312 359.443,823.498" shape-rendering="crispEdges"/>
   <polygon fill="#ecb01f" points="384.867,825.491 384.243,827.411 382.609,828.598 380.59,828.598 378.957,827.411 378.333,825.491 378.957,823.571 380.59,822.384 382.609,822.384 384.243,823.571" shape-rendering="crispEdges"/>
   <polygon fill="#ecb01f" points="409.667,825.498 409.043,827.418 407.409,828.604 405.391,828.604 403.757,827.418 403.133,825.498 403.757,823.578 405.391,822.391 407.409,822.391 409.043,823.578" shape-rendering="crispEdges"/>
   <polygon fill="#ecb01f" points="434.467,825.46 433.843,827.381 432.209,828.567 430.19,828.567 428.557,827.381 427.933,825.46 428.557,823.541 430.19,822.354 432.209,822.354 433.843,823.541" shape-rendering="crispEdges"/>
   <polygon fill="#ecb01f" points="459.267,825.547 458.643,827.467 457.009,828.653 454.991,828.653 453.357,827.467 452.733,825.547 453.357,823.627 454.991,822.44 457.009,822.44 458.643,823.627" shape-rendering="crispEdges"/>
   <polygon fill="#ecb01f" points="484.066,825.495 483.443,827.415 481.81,828.602 479.791,828.602 478.157,827.415 477.533,825.495 478.157,823.575 479.791,822.388 481.81,822.388 483.443,823.575" shape-rendering="crispEdges"/>
   <polygon fill="#ecb01f" points="508.867,825.613 508.243,827.533 506.609,828.72 504.59,828.72 502.957,827.533 502.333,825.613 502.957,823.693 504.59,822.506 506.609,822.506 508.243,823.693" shape-rendering="crispEdges"/>
   <polygon fill="#ecb01f" points="533.667,825.57 533.043,827.49 531.41,828.677 529.391,828.677 527.757,827.49 527.133,825.57 527.757,823.65 529.391,822.463 531.41,822.463 533.043,823.65" shape-rendering="crispEdges"/>
   <polygon fill="#ecb01f" points="558.467,825.641 557.843,827.561 556.209,828.748 554.19,828.748 552.557,827.561 551.933,825.641 552.557,823.721 554.19,822.534 556.209,822.534 557.843,823.721" shape-rendering="crispEdges"/>
   <polygon fill="#ecb01f" points="583.267,825.625 582.643,827.546 581.009,828.732 578.991,828.732 577.357,827.546 576.733,825.625 577.357,823.706 578.991,822.519 581.009,822.519 582.643,823.706" shape-rendering="crispEdges"/>
   <polygon fill="#ecb01f" points="608.066,825.683 607.443,827.604 605.81,828.79 603.791,828.79 602.157,827.604 601.533,825.683 602.157,823.763 603.791,822.577 605.81,822.577 607.443,823.763" shape-rendering="crispEdges"/>
   <polygon fill="#ecb01f" points="632.867,825.709 632.243,827.629 630.609,828.816 628.59,828.816 626.957,827.629 626.333,825.709 626.957,823.789 628.59,822.603 630.609,822.603 632.243,823.789" shape-rendering="crispEdges"/>
   <polygon fill="#ecb01f" points="657.667,825.686 657.043,827.605 655.41,828.792 653.391,828.792 651.757,827.605 651.133,825.686 651.757,823.766 653.391,822.579 655.41,822.579 657.043,823.766" shape-rendering="crispEdges"/>
   <polygon fill="#ecb01f" points="682.467,825.741 681.843,827.661 680.209,828.848 678.19,828.848 676.557,827.661 675.933,825.741 676.557,823.821 678.19,822.634 680.209,822.634 681.843,823.821" shape-rendering="crispEdges"/>
   <polygon fill="#ecb01f" points="707.267,825.735 706.643,827.656 705.009,828.842 702.991,828.842 701.357,827.656 700.733,825.735 701.357,823.815 702.991,822.629 705.009,822.629 706.643,823.815" shape-rendering="crispEdges"/>
   <polygon fill="#ecb01f" points="732.066,825.868 731.443,827.789 729.81,828.975 727.791,828.975 726.157,827.789 725.533,825.868 726.157,823.948 727.791,822.762 729.81,822.762 731.443,823.948" shape-rendering="crispEdges"/>
   <polygon fill="#ecb01f" points="756.867,825.866 756.243,827.787 754.609,828.973 752.59,828.973 750.957,827.787 750.333,825.866 750.957,823.946 752.59,822.76 754.609,822.76 756.243,823.946" shape-rendering="crispEdges"/>
   <polygon fill="#ecb01f" points="781.667,825.862 781.043,827.782 779.41,828.968 777.391,828.968 775.757,827.782 775.133,825.862 775.757,823.941 777.391,822.755 779.41,822.755 781.043,823.941" shape-rendering="crispEdges"/>
   <polygon fill="#ecb01f" points="806.467,825.928 805.843,827.848 804.209,829.035 802.19,829.035 800.557,827.848 799.933,825.928 800.557,824.008 802.19,822.821 804.209,822.821 805.843,824.008" shape-rendering="crispEdges"/>
   <polygon fill="#ecb01f" points="831.267,825.83 830.643,827.75 829.009,828.937 826.991,828.937 825.357,827.75 824.733,825.83 825.357,823.91 826.991,822.724 829.009,822.724 830.643,823.91" shape-rendering="crispEdges"/>
   <polygon fill="#ecb01f" points="856.067,825.993 855.443,827.914 853.81,829.1 851.791,829.1 850.157,827.914 849.533,825.993 850.157,824.073 851.791,822.887 853.81,822.887 855.443,824.073" shape-rendering="crispEdges"/>
   <polygon fill="#ecb01f" points="880.867,825.968 880.243,827.888 878.609,829.075 876.59,829.075 874.957,827.888 874.333,825.968 874.957,824.048 876.59,822.861 878.609,822.861 880.243,824.048" shape-rendering="crispEdges"/>
   <polygon fill="#ecb01f" points="905.667,826.008 905.043,827.928 903.41,829.114 901.391,829.114 899.757,827.928 899.133,826.008 899.757,824.087 901.391,822.901 903.41,822.901 905.043,824.087" shape-rendering="crispEdges"/>
   <polygon fill="#ecb01f" points="930.467,826.004 929.843,827.924 928.209,829.111 926.19,829.111 924.557,827.924 923.934,826.004 924.557,824.084 926.19,822.897 928.209,822.897 929.843,824.084" shape-rendering="crispEdges"/>
   <polygon fill="#ecb01f" points="955.267,826.03 954.643,827.95 953.009,829.137 950.991,829.137 949.357,827.95 948.733,826.03 949.357,824.11 950.991,822.923 953.009,822.923 954.643,824.11" shape-rendering="crispEdges"/>
   <polygon fill="#ecb01f" points="980.066,826.045 979.443,827.965 977.81,829.152 975.791,829.152 974.157,827.965 973.533,826.045 974.157,824.125 975.791,822.938 977.81,822.938 979.443,824.125" shape-rendering="crispEdges"/>
   <polygon fill="#ecb01f" points="1004.87,825.918 1004.24,827.838 1002.61,829.024 1000.59,829.024 998.957,827.838 998.333,825.918 998.957,823.998 1000.59,822.811 1002.61,822.811 1004.24,823.998" shape-rendering="crispEdges"/>
   <polygon fill="#ecb01f" points="1029.67,826.019 1029.04,827.939 1027.41,829.125 1025.39,829.125 1023.76,827.939 1023.13,826.019 1023.76,824.099 1025.39,822.912 1027.41,822.912 1029.04,824.099" shape-rendering="crispEdges"/>
   <polygon fill="#ecb01f" points="1054.47,826.088 1053.84,828.008 1052.21,829.195 1050.19,829.195 1048.56,828.008 1047.93,826.088 1048.56,824.168 1050.19,822.981 1052.21,822.981 1053.84,824.168" shape-rendering="crispEdges"/>
   <polygon fill="#ecb01f" points="1079.27,826.114 1078.64,828.034 1077.01,829.221 1074.99,829.221 1073.36,828.034 1072.73,826.114 1073.36,824.194 1074.99,823.007 1077.01,823.007 1078.64,824.194" shape-rendering="crispEdges"/>
   <polygon fill="#ecb01f" points="1104.07,826.181 1103.44,828.101 1101.81,829.287 1099.79,829.287 1098.16,828.101 1097.53,826.181 1098.16,824.26 1099.79,823.074 1101.81,823.074 1103.44,824.26" shape-rendering="crispEdges"/>
   <polygon fill="#ecb01f" points="1128.87,826.2 1128.24,828.12 1126.61,829.307 1124.59,829.307 1122.96,828.12 1122.33,826.2 1122.96,824.28 1124.59,823.093 1126.61,823.093 1128.24,824.28" shape-rendering="crispEdges"/>
   <polygon fill="#ecb01f" points="1153.67,826.253 1153.04,828.173 1151.41,829.359 1149.39,829.359 1147.76,828.173 1147.13,826.253 1147.76,824.333 1149.39,823.146 1151.41,823.146 1153.04,824.333" shape-rendering="crispEdges"/>
   <polygon fill="#ecb01f" points="1178.47,826.374 1177.84,828.293 1176.21,829.48 1174.19,829.48 1172.56,828.293 1171.93,826.374 1172.56,824.453 1174.19,823.267 1176.21,823.267 1177.84,824.453" shape-rendering="crispEdges"/>
   <polygon fill="#ecb01f" points="1203.27,826.486 1202.64,828.406 1201.01,829.593 1198.99,829.593 1197.36,828.406 1196.73,826.486 1197.36,824.565 1198.99,823.379 1201.01,823.379 1202.64,824.565" shape-rendering="crispEdges"/>
   <polygon fill="#ecb01f" points="1228.07,826.637 1227.44,828.557 1225.81,829.743 1223.79,829.743 1222.16,828.557 1221.53,826.637 1222.16,824.716 1223.79,823.53 1225.81,823.53 1227.44,824.716" shape-rendering="crispEdges"/>
   <polygon fill="#ecb01f" points="1252.87,826.77 1252.24,828.69 1250.61,829.877 1248.59,829.877 1246.96,828.69 1246.33,826.77 1246.96,824.85 1248.59,823.663 1250.61,823.663 1252.24,824.85" shape-rendering="crispEdges"/>
   <polygon fill="#ecb01f" points="1277.67,826.92 1277.04,828.84 1275.41,830.027 1273.39,830.027 1271.76,828.84 1271.13,826.92 1271.76,825 1273.39,823.813 1275.41,823.813 1277.04,825" shape-rendering="crispEdges"/>
   <polyline fill="none" points="232.8,526.622 257.6,527.682 282.4,528.131 307.2,528.629 332,528.636 356.8,528.837 381.6,528.968 406.4,528.76 431.2,528.914 456,528.712 480.8,529.063 505.6,528.841 530.4,529.118 555.2,528.975 580,529.272 604.8,529.126 629.6,529.2 654.4,529.388 679.2,529.333 704,529.602 728.8,529.542 753.6,529.863 778.4,529.707 803.2,529.875 828,530.148 852.8,529.909 877.6,530.319 902.4,530.239 927.2,530.491 952,530.538 976.8,530.642 1001.6,530.844 1026.4,530.825 1051.2,531.009 1076,531.089 1100.8,531.212 1125.6,531.289 1150.4,531.647 1175.2,531.947 1200,532.186 1224.8,532.566 1249.6,532.971 1274.4,533.595" stroke="#7d2e8d" stroke-linecap="butt" stroke-linejoin="round" stroke-width="0.7"/>
   <polygon fill="#7d2e8d" points="236.066,526.622 235.443,528.542 233.81,529.728 231.791,529.728 230.157,528.542 229.533,526.622 230.157,524.701 231.791,523.515 233.81,523.515 235.443,524.701" shape-rendering="crispEdges"/>
   <polygon fill="#7d2e8d" points="260.867,527.682 260.243,529.602 258.609,530.789 256.591,530.789 254.957,529.602 254.333,527.682 254.957,525.762 256.591,524.575 258.609,524.575 260.243,525.762" shape-rendering="crispEdges"/>
   <polygon fill="#7d2e8d" points="285.667,528.131 285.043,530.051 283.409,531.237 281.391,531.237 279.757,530.051 279.133,528.131 279.757,526.21 281.391,525.024 283.409,525.024 285.043,526.21" shape-rendering="crispEdges"/>
   <polygon fill="#7d2e8d" points="310.467,528.629 309.843,530.549 308.209,531.735 306.19,531.735 304.557,530.549 303.934,528.629 304.557,526.708 306.19,525.522 308.209,525.522 309.843,526.708" shape-rendering="crispEdges"/>
   <polygon fill="#7d2e8d" points="335.267,528.636 334.643,530.556 333.009,531.743 330.991,531.743 329.357,530.556 328.733,528.636 329.357,526.716 330.991,525.529 333.009,525.529 334.643,526.716" shape-rendering="crispEdges"/>
   <polygon fill="#7d2e8d" points="360.066,528.837 359.443,530.757 357.81,531.944 355.791,531.944 354.157,530.757 353.533,528.837 354.157,526.917 355.791,525.73 357.81,525.73 359.443,526.917" shape-rendering="crispEdges"/>
   <polygon fill="#7d2e8d" points="384.867,528.968 384.243,530.888 382.609,532.074 380.59,532.074 378.957,530.888 378.333,528.968 378.957,527.047 380.59,525.861 382.609,525.861 384.243,527.047" shape-rendering="crispEdges"/>
   <polygon fill="#7d2e8d" points="409.667,528.76 409.043,530.68 407.409,531.867 405.391,531.867 403.757,530.68 403.133,528.76 403.757,526.84 405.391,525.653 407.409,525.653 409.043,526.84" shape-rendering="crispEdges"/>
   <polygon fill="#7d2e8d" points="434.467,528.914 433.843,530.833 432.209,532.021 430.19,532.021 428.557,530.833 427.933,528.914 428.557,526.994 430.19,525.807 432.209,525.807 433.843,526.994" shape-rendering="crispEdges"/>
   <polygon fill="#7d2e8d" points="459.267,528.712 458.643,530.632 457.009,531.819 454.991,531.819 453.357,530.632 452.733,528.712 453.357,526.792 454.991,525.605 457.009,525.605 458.643,526.792" shape-rendering="crispEdges"/>
   <polygon fill="#7d2e8d" points="484.066,529.063 483.443,530.983 481.81,532.169 479.791,532.169 478.157,530.983 477.533,529.063 478.157,527.143 479.791,525.956 481.81,525.956 483.443,527.143" shape-rendering="crispEdges"/>
   <polygon fill="#7d2e8d" points="508.867,528.841 508.243,530.761 506.609,531.947 504.59,531.947 502.957,530.761 502.333,528.841 502.957,526.92 504.59,525.734 506.609,525.734 508.243,526.92" shape-rendering="crispEdges"/>
   <polygon fill="#7d2e8d" points="533.667,529.118 533.043,531.038 531.41,532.225 529.391,532.225 527.757,531.038 527.133,529.118 527.757,527.198 529.391,526.011 531.41,526.011 533.043,527.198" shape-rendering="crispEdges"/>
   <polygon fill="#7d2e8d" points="558.467,528.975 557.843,530.895 556.209,532.082 554.19,532.082 552.557,530.895 551.933,528.975 552.557,527.055 554.19,525.868 556.209,525.868 557.843,527.055" shape-rendering="crispEdges"/>
   <polygon fill="#7d2e8d" points="583.267,529.272 582.643,531.193 581.009,532.379 578.991,532.379 577.357,531.193 576.733,529.272 577.357,527.353 578.991,526.166 581.009,526.166 582.643,527.353" shape-rendering="crispEdges"/>
   <polygon fill="#7d2e8d" points="608.066,529.126 607.443,531.046 605.81,532.233 603.791,532.233 602.157,531.046 601.533,529.126 602.157,527.206 603.791,526.02 605.81,526.02 607.443,527.206" shape-rendering="crispEdges"/>
   <polygon fill="#7d2e8d" points="632.867,529.2 632.243,531.12 630.609,532.307 628.59,532.307 626.957,531.12 626.333,529.2 626.957,527.28 628.59,526.093 630.609,526.093 632.243,527.28" shape-rendering="crispEdges"/>
   <polygon fill="#7d2e8d" points="657.667,529.388 657.043,531.308 655.41,532.494 653.391,532.494 651.757,531.308 651.133,529.388 651.757,527.467 653.391,526.281 655.41,526.281 657.043,527.467" shape-rendering="crispEdges"/>
   <polygon fill="#7d2e8d" points="682.467,529.333 681.843,531.253 680.209,532.439 678.19,532.439 676.557,531.253 675.933,529.333 676.557,527.413 678.19,526.226 680.209,526.226 681.843,527.413" shape-rendering="crispEdges"/>
   <polygon fill="#7d2e8d" points="707.267,529.602 706.643,531.522 705.009,532.708 702.991,532.708 701.357,531.522 700.733,529.602 701.357,527.682 702.991,526.495 705.009,526.495 706.643,527.682" shape-rendering="crispEdges"/>
   <polygon fill="#7d2e8d" points="732.066,529.542 731.443,531.462 729.81,532.649 727.791,532.649 726.157,531.462 725.533,529.542 726.157,527.622 727.791,526.436 729.81,526.436 731.443,527.622" shape-rendering="crispEdges"/>
   <polygon fill="#7d2e8d" points="756.867,529.863 756.243,531.784 754.609,532.97 752.59,532.97 750.957,531.784 750.333,529.863 750.957,527.943 752.59,526.757 754.609,526.757 756.243,527.943" shape-rendering="crispEdges"/>
   <polygon fill="#7d2e8d" points="781.667,529.707 781.043,531.627 779.41,532.813 777.391,532.813 775.757,531.627 775.133,529.707 775.757,527.787 777.391,526.6 779.41,526.6 781.043,527.787" shape-rendering="crispEdges"/>
   <polygon fill="#7d2e8d" points="806.467,529.876 805.843,531.796 804.209,532.982 802.19,532.982 800.557,531.796 799.933,529.876 800.557,527.956 802.19,526.769 804.209,526.769 805.843,527.956" shape-rendering="crispEdges"/>
   <polygon fill="#7d2e8d" points="831.267,530.148 830.643,532.068 829.009,533.254 826.991,533.254 825.357,532.068 824.733,530.148 825.357,528.228 826.991,527.041 829.009,527.041 830.643,528.228" shape-rendering="crispEdges"/>
   <polygon fill="#7d2e8d" points="856.067,529.909 855.443,531.829 853.81,533.016 851.791,533.016 850.157,531.829 849.533,529.909 850.157,527.989 851.791,526.802 853.81,526.802 855.443,527.989" shape-rendering="crispEdges"/>
   <polygon fill="#7d2e8d" points="880.867,530.319 880.243,532.239 878.609,533.426 876.59,533.426 874.957,532.239 874.333,530.319 874.957,528.399 876.59,527.212 878.609,527.212 880.243,528.399" shape-rendering="crispEdges"/>
   <polygon fill="#7d2e8d" points="905.667,530.239 905.043,532.159 903.41,533.346 901.391,533.346 899.757,532.159 899.133,530.239 899.757,528.318 901.391,527.132 903.41,527.132 905.043,528.318" shape-rendering="crispEdges"/>
   <polygon fill="#7d2e8d" points="930.467,530.491 929.843,532.411 928.209,533.598 926.19,533.598 924.557,532.411 923.934,530.491 924.557,528.571 926.19,527.384 928.209,527.384 929.843,528.571" shape-rendering="crispEdges"/>
   <polygon fill="#7d2e8d" points="955.267,530.538 954.643,532.458 953.009,533.645 950.991,533.645 949.357,532.458 948.733,530.538 949.357,528.618 950.991,527.431 953.009,527.431 954.643,528.618" shape-rendering="crispEdges"/>
   <polygon fill="#7d2e8d" points="980.066,530.642 979.443,532.562 977.81,533.749 975.791,533.749 974.157,532.562 973.533,530.642 974.157,528.722 975.791,527.535 977.81,527.535 979.443,528.722" shape-rendering="crispEdges"/>
   <polygon fill="#7d2e8d" points="1004.87,530.844 1004.24,532.764 1002.61,533.951 1000.59,533.951 998.957,532.764 998.333,530.844 998.957,528.924 1000.59,527.737 1002.61,527.737 1004.24,528.924" shape-rendering="crispEdges"/>
   <polygon fill="#7d2e8d" points="1029.67,530.825 1029.04,532.745 1027.41,533.932 1025.39,533.932 1023.76,532.745 1023.13,530.825 1023.76,528.905 1025.39,527.718 1027.41,527.718 1029.04,528.905" shape-rendering="crispEdges"/>
   <polygon fill="#7d2e8d" points="1054.47,531.009 1053.84,532.929 1052.21,534.115 1050.19,534.115 1048.56,532.929 1047.93,531.009 1048.56,529.088 1050.19,527.902 1052.21,527.902 1053.84,529.088" shape-rendering="crispEdges"/>
   <polygon fill="#7d2e8d" points="1079.27,531.089 1078.64,533.009 1077.01,534.196 1074.99,534.196 1073.36,533.009 1072.73,531.089 1073.36,529.169 1074.99,527.982 1077.01,527.982 1078.64,529.169" shape-rendering="crispEdges"/>
   <polygon fill="#7d2e8d" points="1104.07,531.212 1103.44,533.133 1101.81,534.319 1099.79,534.319 1098.16,533.133 1097.53,531.212 1098.16,529.292 1099.79,528.106 1101.81,528.106 1103.44,529.292" shape-rendering="crispEdges"/>
   <polygon fill="#7d2e8d" points="1128.87,531.289 1128.24,533.209 1126.61,534.396 1124.59,534.396 1122.96,533.209 1122.33,531.289 1122.96,529.369 1124.59,528.183 1126.61,528.183 1128.24,529.369" shape-rendering="crispEdges"/>
   <polygon fill="#7d2e8d" points="1153.67,531.647 1153.04,533.567 1151.41,534.754 1149.39,534.754 1147.76,533.567 1147.13,531.647 1147.76,529.727 1149.39,528.541 1151.41,528.541 1153.04,529.727" shape-rendering="crispEdges"/>
   <polygon fill="#7d2e8d" points="1178.47,531.947 1177.84,533.867 1176.21,535.054 1174.19,535.054 1172.56,533.867 1171.93,531.947 1172.56,530.027 1174.19,528.84 1176.21,528.84 1177.84,530.027" shape-rendering="crispEdges"/>
   <polygon fill="#7d2e8d" points="1203.27,532.186 1202.64,534.106 1201.01,535.292 1198.99,535.292 1197.36,534.106 1196.73,532.186 1197.36,530.266 1198.99,529.079 1201.01,529.079 1202.64,530.266" shape-rendering="crispEdges"/>
   <polygon fill="#7d2e8d" points="1228.07,532.567 1227.44,534.487 1225.81,535.673 1223.79,535.673 1222.16,534.487 1221.53,532.567 1222.16,530.646 1223.79,529.46 1225.81,529.46 1227.44,530.646" shape-rendering="crispEdges"/>
   <polygon fill="#7d2e8d" points="1252.87,532.971 1252.24,534.891 1250.61,536.078 1248.59,536.078 1246.96,534.891 1246.33,532.971 1246.96,531.051 1248.59,529.864 1250.61,529.864 1252.24,531.051" shape-rendering="crispEdges"/>
   <polygon fill="#7d2e8d" points="1277.67,533.595 1277.04,535.515 1275.41,536.701 1273.39,536.701 1271.76,535.515 1271.13,533.595 1271.76,531.674 1273.39,530.488 1275.41,530.488 1277.04,531.674" shape-rendering="crispEdges"/>
   <polyline fill="none" points="232.8,148.487 257.6,151.376 282.4,151.883 307.2,152.228 332,152.396 356.8,151.901 381.6,151.856 406.4,151.166 431.2,150.711 456,150.58 480.8,149.959 505.6,149.96 530.4,149.196 555.2,149.177 580,148.234 604.8,148.084 629.6,147.44 654.4,147.12 679.2,146.773 704,146.466 728.8,146.256 753.6,145.586 778.4,145.298 803.2,144.818 828,144.371 852.8,144.234 877.6,143.626 902.4,143.792 927.2,143.173 952,143.586 976.8,142.462 1001.6,142.265 1026.4,142.396 1051.2,141.686 1076,141.165 1100.8,140.459 1125.6,140.065 1150.4,139.141 1175.2,137.987 1200,136.479 1224.8,135.661 1249.6,134.462 1274.4,133.419" stroke="#76ab2f" stroke-linecap="butt" stroke-linejoin="round" stroke-width="0.7"/>
   <polygon fill="#76ab2f" points="236.066,148.488 235.443,150.408 233.81,151.594 231.791,151.594 230.157,150.408 229.533,148.488 230.157,146.567 231.791,145.381 233.81,145.381 235.443,146.567" shape-rendering="crispEdges"/>
   <polygon fill="#76ab2f" points="260.867,151.376 260.243,153.297 258.609,154.483 256.591,154.483 254.957,153.297 254.333,151.376 254.957,149.457 256.591,148.27 258.609,148.27 260.243,149.457" shape-rendering="crispEdges"/>
   <polygon fill="#76ab2f" points="285.667,151.883 285.043,153.804 283.409,154.99 281.391,154.99 279.757,153.804 279.133,151.883 279.757,149.963 281.391,148.776 283.409,148.776 285.043,149.963" shape-rendering="crispEdges"/>
   <polygon fill="#76ab2f" points="310.467,152.228 309.843,154.148 308.209,155.334 306.19,155.334 304.557,154.148 303.934,152.228 304.557,150.308 306.19,149.121 308.209,149.121 309.843,150.308" shape-rendering="crispEdges"/>
   <polygon fill="#76ab2f" points="335.267,152.396 334.643,154.317 333.009,155.503 330.991,155.503 329.357,154.317 328.733,152.396 329.357,150.477 330.991,149.29 333.009,149.29 334.643,150.477" shape-rendering="crispEdges"/>
   <polygon fill="#76ab2f" points="360.066,151.901 359.443,153.822 357.81,155.008 355.791,155.008 354.157,153.822 353.533,151.901 354.157,149.981 355.791,148.795 357.81,148.795 359.443,149.981" shape-rendering="crispEdges"/>
   <polygon fill="#76ab2f" points="384.867,151.856 384.243,153.776 382.609,154.963 380.59,154.963 378.957,153.776 378.333,151.856 378.957,149.937 380.59,148.75 382.609,148.75 384.243,149.937" shape-rendering="crispEdges"/>
   <polygon fill="#76ab2f" points="409.667,151.166 409.043,153.086 407.409,154.272 405.391,154.272 403.757,153.086 403.133,151.166 403.757,149.246 405.391,148.059 407.409,148.059 409.043,149.246" shape-rendering="crispEdges"/>
   <polygon fill="#76ab2f" points="434.467,150.711 433.843,152.632 432.209,153.818 430.19,153.818 428.557,152.632 427.933,150.711 428.557,148.792 430.19,147.605 432.209,147.605 433.843,148.792" shape-rendering="crispEdges"/>
   <polygon fill="#76ab2f" points="459.267,150.58 458.643,152.5 457.009,153.687 454.991,153.687 453.357,152.5 452.733,150.58 453.357,148.66 454.991,147.473 457.009,147.473 458.643,148.66" shape-rendering="crispEdges"/>
   <polygon fill="#76ab2f" points="484.066,149.959 483.443,151.879 481.81,153.066 479.791,153.066 478.157,151.879 477.533,149.959 478.157,148.039 479.791,146.852 481.81,146.852 483.443,148.039" shape-rendering="crispEdges"/>
   <polygon fill="#76ab2f" points="508.867,149.96 508.243,151.88 506.609,153.066 504.59,153.066 502.957,151.88 502.333,149.96 502.957,148.04 504.59,146.853 506.609,146.853 508.243,148.04" shape-rendering="crispEdges"/>
   <polygon fill="#76ab2f" points="533.667,149.196 533.043,151.116 531.41,152.303 529.391,152.303 527.757,151.116 527.133,149.196 527.757,147.276 529.391,146.089 531.41,146.089 533.043,147.276" shape-rendering="crispEdges"/>
   <polygon fill="#76ab2f" points="558.467,149.177 557.843,151.098 556.209,152.284 554.19,152.284 552.557,151.098 551.933,149.177 552.557,147.257 554.19,146.071 556.209,146.071 557.843,147.257" shape-rendering="crispEdges"/>
   <polygon fill="#76ab2f" points="583.267,148.234 582.643,150.154 581.009,151.34 578.991,151.34 577.357,150.154 576.733,148.234 577.357,146.313 578.991,145.127 581.009,145.127 582.643,146.313" shape-rendering="crispEdges"/>
   <polygon fill="#76ab2f" points="608.066,148.084 607.443,150.004 605.81,151.191 603.791,151.191 602.157,150.004 601.533,148.084 602.157,146.164 603.791,144.978 605.81,144.978 607.443,146.164" shape-rendering="crispEdges"/>
   <polygon fill="#76ab2f" points="632.867,147.44 632.243,149.361 630.609,150.547 628.59,150.547 626.957,149.361 626.333,147.44 626.957,145.521 628.59,144.334 630.609,144.334 632.243,145.521" shape-rendering="crispEdges"/>
   <polygon fill="#76ab2f" points="657.667,147.12 657.043,149.04 655.41,150.227 653.391,150.227 651.757,149.04 651.133,147.12 651.757,145.2 653.391,144.013 655.41,144.013 657.043,145.2" shape-rendering="crispEdges"/>
   <polygon fill="#76ab2f" points="682.467,146.773 681.843,148.694 680.209,149.88 678.19,149.88 676.557,148.694 675.933,146.773 676.557,144.854 678.19,143.667 680.209,143.667 681.843,144.854" shape-rendering="crispEdges"/>
   <polygon fill="#76ab2f" points="707.267,146.466 706.643,148.386 705.009,149.573 702.991,149.573 701.357,148.386 700.733,146.466 701.357,144.546 702.991,143.359 705.009,143.359 706.643,144.546" shape-rendering="crispEdges"/>
   <polygon fill="#76ab2f" points="732.066,146.256 731.443,148.176 729.81,149.363 727.791,149.363 726.157,148.176 725.533,146.256 726.157,144.336 727.791,143.149 729.81,143.149 731.443,144.336" shape-rendering="crispEdges"/>
   <polygon fill="#76ab2f" points="756.867,145.586 756.243,147.506 754.609,148.692 752.59,148.692 750.957,147.506 750.333,145.586 750.957,143.666 752.59,142.479 754.609,142.479 756.243,143.666" shape-rendering="crispEdges"/>
   <polygon fill="#76ab2f" points="781.667,145.298 781.043,147.218 779.41,148.404 777.391,148.404 775.757,147.218 775.133,145.298 775.757,143.377 777.391,142.191 779.41,142.191 781.043,143.377" shape-rendering="crispEdges"/>
   <polygon fill="#76ab2f" points="806.467,144.818 805.843,146.738 804.209,147.925 802.19,147.925 800.557,146.738 799.933,144.818 800.557,142.898 802.19,141.711 804.209,141.711 805.843,142.898" shape-rendering="crispEdges"/>
   <polygon fill="#76ab2f" points="831.267,144.371 830.643,146.291 829.009,147.478 826.991,147.478 825.357,146.291 824.733,144.371 825.357,142.451 826.991,141.264 829.009,141.264 830.643,142.451" shape-rendering="crispEdges"/>
   <polygon fill="#76ab2f" points="856.067,144.234 855.443,146.154 853.81,147.341 851.791,147.341 850.157,146.154 849.533,144.234 850.157,142.313 851.791,141.127 853.81,141.127 855.443,142.313" shape-rendering="crispEdges"/>
   <polygon fill="#76ab2f" points="880.867,143.626 880.243,145.546 878.609,146.733 876.59,146.733 874.957,145.546 874.333,143.626 874.957,141.706 876.59,140.52 878.609,140.52 880.243,141.706" shape-rendering="crispEdges"/>
   <polygon fill="#76ab2f" points="905.667,143.792 905.043,145.712 903.41,146.898 901.391,146.898 899.757,145.712 899.133,143.792 899.757,141.872 901.391,140.685 903.41,140.685 905.043,141.872" shape-rendering="crispEdges"/>
   <polygon fill="#76ab2f" points="930.467,143.173 929.843,145.093 928.209,146.28 926.19,146.28 924.557,145.093 923.934,143.173 924.557,141.253 926.19,140.066 928.209,140.066 929.843,141.253" shape-rendering="crispEdges"/>
   <polygon fill="#76ab2f" points="955.267,143.586 954.643,145.506 953.009,146.693 950.991,146.693 949.357,145.506 948.733,143.586 949.357,141.666 950.991,140.479 953.009,140.479 954.643,141.666" shape-rendering="crispEdges"/>
   <polygon fill="#76ab2f" points="980.066,142.462 979.443,144.382 977.81,145.569 975.791,145.569 974.157,144.382 973.533,142.462 974.157,140.542 975.791,139.355 977.81,139.355 979.443,140.542" shape-rendering="crispEdges"/>
   <polygon fill="#76ab2f" points="1004.87,142.265 1004.24,144.185 1002.61,145.372 1000.59,145.372 998.957,144.185 998.333,142.265 998.957,140.345 1000.59,139.158 1002.61,139.158 1004.24,140.345" shape-rendering="crispEdges"/>
   <polygon fill="#76ab2f" points="1029.67,142.396 1029.04,144.316 1027.41,145.503 1025.39,145.503 1023.76,144.316 1023.13,142.396 1023.76,140.476 1025.39,139.289 1027.41,139.289 1029.04,140.476" shape-rendering="crispEdges"/>
   <polygon fill="#76ab2f" points="1054.47,141.686 1053.84,143.605 1052.21,144.792 1050.19,144.792 1048.56,143.605 1047.93,141.686 1048.56,139.766 1050.19,138.579 1052.21,138.579 1053.84,139.766" shape-rendering="crispEdges"/>
   <polygon fill="#76ab2f" points="1079.27,141.165 1078.64,143.085 1077.01,144.272 1074.99,144.272 1073.36,143.085 1072.73,141.165 1073.36,139.245 1074.99,138.058 1077.01,138.058 1078.64,139.245" shape-rendering="crispEdges"/>
   <polygon fill="#76ab2f" points="1104.07,140.459 1103.44,142.379 1101.81,143.566 1099.79,143.566 1098.16,142.379 1097.53,140.459 1098.16,138.539 1099.79,137.353 1101.81,137.353 1103.44,138.539" shape-rendering="crispEdges"/>
   <polygon fill="#76ab2f" points="1128.87,140.065 1128.24,141.985 1126.61,143.172 1124.59,143.172 1122.96,141.985 1122.33,140.065 1122.96,138.145 1124.59,136.958 1126.61,136.958 1128.24,138.145" shape-rendering="crispEdges"/>
   <polygon fill="#76ab2f" points="1153.67,139.141 1153.04,141.061 1151.41,142.247 1149.39,142.247 1147.76,141.061 1147.13,139.141 1147.76,137.22 1149.39,136.034 1151.41,136.034 1153.04,137.22" shape-rendering="crispEdges"/>
   <polygon fill="#76ab2f" points="1178.47,137.987 1177.84,139.907 1176.21,141.094 1174.19,141.094 1172.56,139.907 1171.93,137.987 1172.56,136.067 1174.19,134.88 1176.21,134.88 1177.84,136.067" shape-rendering="crispEdges"/>
   <polygon fill="#76ab2f" points="1203.27,136.479 1202.64,138.399 1201.01,139.585 1198.99,139.585 1197.36,138.399 1196.73,136.479 1197.36,134.559 1198.99,133.372 1201.01,133.372 1202.64,134.559" shape-rendering="crispEdges"/>
   <polygon fill="#76ab2f" points="1228.07,135.661 1227.44,137.581 1225.81,138.768 1223.79,138.768 1222.16,137.581 1221.53,135.661 1222.16,133.741 1223.79,132.554 1225.81,132.554 1227.44,133.741" shape-rendering="crispEdges"/>
   <polygon fill="#76ab2f" points="1252.87,134.462 1252.24,136.382 1250.61,137.569 1248.59,137.569 1246.96,136.382 1246.33,134.462 1246.96,132.542 1248.59,131.355 1250.61,131.355 1252.24,132.542" shape-rendering="crispEdges"/>
   <polygon fill="#76ab2f" points="1277.67,133.419 1277.04,135.339 1275.41,136.526 1273.39,136.526 1271.76,135.339 1271.13,133.419 1271.76,131.499 1273.39,130.313 1275.41,130.313 1277.04,131.499" shape-rendering="crispEdges"/>
  </g>
  <clipPath id="cp0016001000">
   <polygon points="0,1000 1600,1000 1600,0 0,0"/>
  </clipPath>
  <g clip-path="url(#cp0016001000)">
   <polygon fill="#ffffff" points="1107.29,266.9 1426.14,266.9 1426.14,93.2129 1107.29,93.2129" shape-rendering="crispEdges"/>
   <polyline fill="none" points="1107.29,266.9 1426.14,266.9" stroke="#262626" stroke-dasharray="16,0" stroke-linecap="square" stroke-linejoin="miter" stroke-width="0.7"/>
   <polyline fill="none" points="1107.29,93.2129 1426.14,93.2129" stroke="#262626" stroke-dasharray="16,0" stroke-linecap="square" stroke-linejoin="miter" stroke-width="0.7"/>
   <polyline fill="none" points="1107.29,266.9 1107.29,93.2129" stroke="#262626" stroke-dasharray="16,0" stroke-linecap="square" stroke-linejoin="miter" stroke-width="0.7"/>
   <polyline fill="none" points="1426.14,266.9 1426.14,93.2129" stroke="#262626" stroke-dasharray="16,0" stroke-linecap="square" stroke-linejoin="miter" stroke-width="0.7"/>
   <polygon fill="#0071bc" points="1147.87,114.224 1146.71,116.245 1144.37,116.245 1143.21,114.224 1144.37,112.204 1146.71,112.204 1147.87,114.224" shape-rendering="crispEdges"/>
   <polygon fill="#d85218" points="1147.87,147.141 1146.71,149.161 1144.37,149.161 1143.21,147.141 1144.37,145.12 1146.71,145.12 1147.87,147.141" shape-rendering="crispEdges"/>
   <polygon fill="#ecb01f" points="1147.87,180.057 1146.71,182.077 1144.37,182.077 1143.21,180.057 1144.37,178.036 1146.71,178.036 1147.87,180.057" shape-rendering="crispEdges"/>
   <polygon fill="#7d2e8d" points="1147.87,212.973 1146.71,214.993 1144.37,214.993 1143.21,212.973 1144.37,210.952 1146.71,210.952 1147.87,212.973" shape-rendering="crispEdges"/>
   <polygon fill="#76ab2f" points="1147.87,245.889 1146.71,247.909 1144.37,247.909 1143.21,245.889 1144.37,243.868 1146.71,243.868 1147.87,245.889" shape-rendering="crispEdges"/>
   <polyline fill="none" points="1118.22,114.224 1172.86,114.224" stroke="#0071bc" stroke-linecap="butt" stroke-linejoin="round" stroke-width="0.7"/>
   <g font-family="'Noto Sans'" font-size="36.6038" font-style="normal" font-weight="normal" transform="translate(1183.79,130.724) rotate(-0,-0,-16.5)" xml:space="preserve">
    <text fill="rgb(0,0,0)" x="0 21 34 54 76 105 126 141 161 183 198 " y="-6">EISPOT_0V_1</text>
   </g>
   <polyline fill="none" points="1118.22,147.141 1172.86,147.141" stroke="#d85218" stroke-linecap="butt" stroke-linejoin="round" stroke-width="0.7"/>
   <g font-family="'Noto Sans'" font-size="36.6038" font-style="normal" font-weight="normal" transform="translate(1183.79,163.64) rotate(-0,-0,-16.5)" xml:space="preserve">
    <text fill="rgb(0,0,0)" x="0 21 34 54 76 105 126 141 161 183 198 " y="-6">EISPOT_0V_2</text>
   </g>
   <polyline fill="none" points="1118.22,180.057 1172.86,180.057" stroke="#ecb01f" stroke-linecap="butt" stroke-linejoin="round" stroke-width="0.7"/>
   <g font-family="'Noto Sans'" font-size="36.6038" font-style="normal" font-weight="normal" transform="translate(1183.79,196.556) rotate(-0,-0,-16.5)" xml:space="preserve">
    <text fill="rgb(0,0,0)" x="0 21 34 54 76 105 126 141 161 196 218 233 253 262 282 " y="-6">EISPOT_5mV_1,5A</text>
   </g>
   <polyline fill="none" points="1118.22,212.973 1172.86,212.973" stroke="#7d2e8d" stroke-linecap="butt" stroke-linejoin="round" stroke-width="0.7"/>
   <g font-family="'Noto Sans'" font-size="36.6038" font-style="normal" font-weight="normal" transform="translate(1183.79,229.473) rotate(-0,-0,-16.5)" xml:space="preserve">
    <text fill="rgb(0,0,0)" x="0 21 34 54 76 105 126 141 161 196 218 233 253 " y="-6">EISPOT_5mV_9A</text>
   </g>
   <polyline fill="none" points="1118.22,245.889 1172.86,245.889" stroke="#76ab2f" stroke-linecap="butt" stroke-linejoin="round" stroke-width="0.7"/>
   <g font-family="'Noto Sans'" font-size="36.6038" font-style="normal" font-weight="normal" transform="translate(1183.79,262.389) rotate(-0,-0,-16.5)" xml:space="preserve">
    <text fill="rgb(0,0,0)" x="0 21 34 54 76 105 126 141 161 196 218 233 253 273 " y="-6">EISPOT_5mV_18A</text>
   </g>
  </g>
 </g>
</svg>
