<?xml version='1.0' encoding='UTF-8' standalone='no'?>
<svg height="1000pt" viewBox="0 0 1600 1000" width="1600pt" xmlns="http://www.w3.org/2000/svg" xmlns:xlink="http://www.w3.org/1999/xlink">
 <title>Figure 15: Nyquist overlays by current</title>
 <desc>
Creator: GL2PS 1.4.2, (C) 1999-2020 C. Geuzaine
For: Octave
CreationDate: Sun Nov  9 14:35:31 2025
</desc>
 <defs/>
 <polygon fill="#ffffff" points="0,0 1600,0 1600,1000 0,1000"/>
 <g>
  <polygon fill="#ffffff" points="0,1000 1600,1000 1600,0 0,0" shape-rendering="crispEdges"/>
  <clipPath id="cp0016001000">
   <polygon points="0,1000 1600,1000 1600,0 0,0"/>
  </clipPath>
  <g clip-path="url(#cp0016001000)">
   <polygon fill="#ffffff" points="425.751,879.497 1230.25,879.497 1230.25,75 425.751,75" shape-rendering="crispEdges"/>
   <polyline fill="none" points="563.506,879.497 563.506,75" stroke="#262626" stroke-dasharray="16,0" stroke-linecap="butt" stroke-linejoin="miter" stroke-opacity="0.15" stroke-width="0.7"/>
   <polyline fill="none" points="785.694,879.497 785.694,75" stroke="#262626" stroke-dasharray="16,0" stroke-linecap="butt" stroke-linejoin="miter" stroke-opacity="0.15" stroke-width="0.7"/>
   <polyline fill="none" points="1007.88,879.497 1007.88,75" stroke="#262626" stroke-dasharray="16,0" stroke-linecap="butt" stroke-linejoin="miter" stroke-opacity="0.15" stroke-width="0.7"/>
   <polyline fill="none" points="1230.07,879.497 1230.07,75" stroke="#262626" stroke-dasharray="16,0" stroke-linecap="butt" stroke-linejoin="miter" stroke-opacity="0.15" stroke-width="0.7"/>
   <polyline fill="none" points="563.506,879.497 563.506,867.089" stroke="#262626" stroke-linecap="butt" stroke-linejoin="miter" stroke-width="0.7"/>
   <polyline fill="none" points="563.506,75 563.506,87.4077" stroke="#262626" stroke-linecap="butt" stroke-linejoin="miter" stroke-width="0.7"/>
   <polyline fill="none" points="785.694,879.497 785.694,867.089" stroke="#262626" stroke-linecap="butt" stroke-linejoin="miter" stroke-width="0.7"/>
   <polyline fill="none" points="785.694,75 785.694,87.4077" stroke="#262626" stroke-linecap="butt" stroke-linejoin="miter" stroke-width="0.7"/>
   <polyline fill="none" points="1007.88,879.497 1007.88,867.089" stroke="#262626" stroke-linecap="butt" stroke-linejoin="miter" stroke-width="0.7"/>
   <polyline fill="none" points="1007.88,75 1007.88,87.4077" stroke="#262626" stroke-linecap="butt" stroke-linejoin="miter" stroke-width="0.7"/>
   <polyline fill="none" points="1230.07,879.497 1230.07,867.089" stroke="#262626" stroke-linecap="butt" stroke-linejoin="miter" stroke-width="0.7"/>
   <polyline fill="none" points="1230.07,75 1230.07,87.4077" stroke="#262626" stroke-linecap="butt" stroke-linejoin="miter" stroke-width="0.7"/>
   <g font-family="'Noto Sans'" font-size="40.6709" font-style="normal" font-weight="normal" transform="translate(523.506,941.019) rotate(-0,40,-31)" xml:space="preserve">
    <text fill="rgb(38,38,38)" x="0 23 34 57 " y="-1">0.02</text>
   </g>
   <g font-family="'Noto Sans'" font-size="40.6709" font-style="normal" font-weight="normal" transform="translate(745.694,941.019) rotate(-0,40,-31)" xml:space="preserve">
    <text fill="rgb(38,38,38)" x="0 23 34 57 " y="-1">0.04</text>
   </g>
   <g font-family="'Noto Sans'" font-size="40.6709" font-style="normal" font-weight="normal" transform="translate(967.882,941.019) rotate(-0,40,-31)" xml:space="preserve">
    <text fill="rgb(38,38,38)" x="0 23 34 57 " y="-1">0.06</text>
   </g>
   <g font-family="'Noto Sans'" font-size="40.6709" font-style="normal" font-weight="normal" transform="translate(1190.07,941.019) rotate(-0,40,-31)" xml:space="preserve">
    <text fill="rgb(38,38,38)" x="0 23 34 57 " y="-1">0.08</text>
   </g>
   <polyline fill="none" points="425.751,801.231 1230.25,801.231" stroke="#262626" stroke-dasharray="16,0" stroke-linecap="butt" stroke-linejoin="miter" stroke-opacity="0.15" stroke-width="0.7"/>
   <polyline fill="none" points="425.751,579.043 1230.25,579.043" stroke="#262626" stroke-dasharray="16,0" stroke-linecap="butt" stroke-linejoin="miter" stroke-opacity="0.15" stroke-width="0.7"/>
   <polyline fill="none" points="425.751,356.855 1230.25,356.855" stroke="#262626" stroke-dasharray="16,0" stroke-linecap="butt" stroke-linejoin="miter" stroke-opacity="0.15" stroke-width="0.7"/>
   <polyline fill="none" points="425.751,134.667 1230.25,134.667" stroke="#262626" stroke-dasharray="16,0" stroke-linecap="butt" stroke-linejoin="miter" stroke-opacity="0.15" stroke-width="0.7"/>
   <polyline fill="none" points="425.751,801.231 438.159,801.231" stroke="#262626" stroke-linecap="butt" stroke-linejoin="miter" stroke-width="0.7"/>
   <polyline fill="none" points="1230.25,801.231 1217.84,801.231" stroke="#262626" stroke-linecap="butt" stroke-linejoin="miter" stroke-width="0.7"/>
   <polyline fill="none" points="425.751,579.043 438.159,579.043" stroke="#262626" stroke-linecap="butt" stroke-linejoin="miter" stroke-width="0.7"/>
   <polyline fill="none" points="1230.25,579.043 1217.84,579.043" stroke="#262626" stroke-linecap="butt" stroke-linejoin="miter" stroke-width="0.7"/>
   <polyline fill="none" points="425.751,356.855 438.159,356.855" stroke="#262626" stroke-linecap="butt" stroke-linejoin="miter" stroke-width="0.7"/>
   <polyline fill="none" points="1230.25,356.855 1217.84,356.855" stroke="#262626" stroke-linecap="butt" stroke-linejoin="miter" stroke-width="0.7"/>
   <polyline fill="none" points="425.751,134.667 438.159,134.667" stroke="#262626" stroke-linecap="butt" stroke-linejoin="miter" stroke-width="0.7"/>
   <polyline fill="none" points="1230.25,134.667 1217.84,134.667" stroke="#262626" stroke-linecap="butt" stroke-linejoin="miter" stroke-width="0.7"/>
   <g font-family="'Noto Sans'" font-size="40.6709" font-style="normal" font-weight="normal" transform="translate(311.404,816.731) rotate(-0,94,-15.5)" xml:space="preserve">
    <text fill="rgb(38,38,38)" x="0 14 37 48 71 " y="-1">-0.02</text>
   </g>
   <g font-family="'Noto Sans'" font-size="40.6709" font-style="normal" font-weight="normal" transform="translate(382.404,594.543) rotate(-0,23,-15.5)" xml:space="preserve">
    <text fill="rgb(38,38,38)" x="0 " y="-1">0</text>
   </g>
   <g font-family="'Noto Sans'" font-size="40.6709" font-style="normal" font-weight="normal" transform="translate(325.404,372.355) rotate(-0,80,-15.5)" xml:space="preserve">
    <text fill="rgb(38,38,38)" x="0 23 34 57 " y="-1">0.02</text>
   </g>
   <g font-family="'Noto Sans'" font-size="40.6709" font-style="normal" font-weight="normal" transform="translate(325.404,150.167) rotate(-0,80,-15.5)" xml:space="preserve">
    <text fill="rgb(38,38,38)" x="0 23 34 57 " y="-1">0.04</text>
   </g>
   <polyline fill="none" points="425.751,879.497 1230.25,879.497" stroke="#262626" stroke-dasharray="16,0" stroke-linecap="square" stroke-linejoin="miter" stroke-width="0.7"/>
   <polyline fill="none" points="425.751,75 1230.25,75" stroke="#262626" stroke-dasharray="16,0" stroke-linecap="square" stroke-linejoin="miter" stroke-width="0.7"/>
   <polyline fill="none" points="425.751,879.497 425.751,75" stroke="#262626" stroke-dasharray="16,0" stroke-linecap="square" stroke-linejoin="miter" stroke-width="0.7"/>
   <polyline fill="none" points="1230.25,879.497 1230.25,75" stroke="#262626" stroke-dasharray="16,0" stroke-linecap="square" stroke-linejoin="miter" stroke-width="0.7"/>
   <g font-family="'Noto Sans'" font-size="44.7379" font-style="normal" font-weight="normal" transform="translate(698.5,1000.02) rotate(-0,129.5,-54)" xml:space="preserve">
    <text fill="rgb(38,38,38)" x="0 26 41 53 69 88 123 165 190 218 243 " y="-13">Z' (\Omega)</text>
   </g>
   <g font-family="'Noto Sans'" font-size="44.7379" font-style="normal" font-weight="normal" transform="translate(161.904,477.248) rotate(-90,144.5,0)" xml:space="preserve">
    <text fill="rgb(38,38,38)" x="0 15 41 56 71 83 99 118 153 195 220 248 273 " y="-13">-Z'' (\Omega)</text>
   </g>
   <g font-family="'Noto Sans'" font-size="44.7379" font-style="normal" font-weight="normal" transform="translate(533,65) rotate(-0,295,0)" xml:space="preserve">
    <text fill="rgb(0,0,0)" x="0 34 57 85 113 125 147 163 175 203 222 249 277 305 330 358 370 398 421 433 455 483 502 521 546 574 " y="-11">Nyquist grouped by current</text>
   </g>
   <polyline fill="none" points="455.406,569.026 457.009,563.887 459.087,558.269 461.745,552.397 465.129,545.944 469.385,539.023 474.665,531.415 481.993,522.521 490.298,513.856 500.383,505.17 513.277,495.925 527.603,487.729 544.641,480.794 561.435,475.643 580.679,472.011 599.411,470.246 616.767,469.807 634.262,470.301 649.779,470.786 664.394,471.044 678.118,470.008 691.993,467.794 704.914,464.215 719.101,458.691 736.595,450.213 751.978,442.057 770.379,431.986 791.884,420.437 817.333,408.008 845.002,395.846 874.244,385.653 906.992,377.249 945.244,370.564 984.696,369.3 1027.1,372.312 1065.07,380.683 1102.41,396.894 1131.04,414.348 1156.78,433.782 1178.5,453.877 1192.3,476.177 1200.22,490.727 1211.09,501.247" stroke="#0071bc" stroke-linecap="butt" stroke-linejoin="round" stroke-width="0.7"/>
   <polygon fill="#0071bc" points="458.672,569.026 458.048,570.946 456.415,572.133 454.396,572.133 452.763,570.946 452.139,569.026 452.763,567.106 454.396,565.919 456.415,565.919 458.048,567.106" shape-rendering="crispEdges"/>
   <polygon fill="#0071bc" points="460.275,563.887 459.652,565.807 458.019,566.994 456,566.994 454.366,565.807 453.742,563.887 454.366,561.967 456,560.78 458.019,560.78 459.652,561.967" shape-rendering="crispEdges"/>
   <polygon fill="#0071bc" points="462.354,558.269 461.73,560.189 460.097,561.375 458.078,561.375 456.444,560.189 455.821,558.269 456.444,556.349 458.078,555.162 460.097,555.162 461.73,556.349" shape-rendering="crispEdges"/>
   <polygon fill="#0071bc" points="465.011,552.397 464.388,554.317 462.754,555.504 460.735,555.504 459.102,554.317 458.478,552.397 459.102,550.478 460.735,549.291 462.754,549.291 464.388,550.478" shape-rendering="crispEdges"/>
   <polygon fill="#0071bc" points="468.396,545.944 467.771,547.864 466.138,549.051 464.119,549.051 462.486,547.864 461.862,545.944 462.486,544.024 464.119,542.837 466.138,542.837 467.771,544.024" shape-rendering="crispEdges"/>
   <polygon fill="#0071bc" points="472.651,539.023 472.027,540.943 470.394,542.129 468.375,542.129 466.742,540.943 466.118,539.023 466.742,537.103 468.375,535.916 470.394,535.916 472.027,537.103" shape-rendering="crispEdges"/>
   <polygon fill="#0071bc" points="477.932,531.415 477.308,533.335 475.674,534.522 473.655,534.522 472.022,533.335 471.398,531.415 472.022,529.495 473.655,528.308 475.674,528.308 477.308,529.495" shape-rendering="crispEdges"/>
   <polygon fill="#0071bc" points="485.259,522.521 484.636,524.441 483.002,525.627 480.983,525.627 479.35,524.441 478.726,522.521 479.35,520.601 480.983,519.414 483.002,519.414 484.636,520.601" shape-rendering="crispEdges"/>
   <polygon fill="#0071bc" points="493.565,513.857 492.941,515.777 491.308,516.963 489.289,516.963 487.655,515.777 487.031,513.857 487.655,511.937 489.289,510.75 491.308,510.75 492.941,511.937" shape-rendering="crispEdges"/>
   <polygon fill="#0071bc" points="503.65,505.17 503.026,507.09 501.393,508.277 499.374,508.277 497.74,507.09 497.117,505.17 497.74,503.25 499.374,502.063 501.393,502.063 503.026,503.25" shape-rendering="crispEdges"/>
   <polygon fill="#0071bc" points="516.543,495.925 515.919,497.845 514.286,499.032 512.268,499.032 510.634,497.845 510.01,495.925 510.634,494.005 512.268,492.818 514.286,492.818 515.919,494.005" shape-rendering="crispEdges"/>
   <polygon fill="#0071bc" points="530.869,487.729 530.245,489.648 528.612,490.835 526.593,490.835 524.959,489.648 524.336,487.729 524.959,485.809 526.593,484.622 528.612,484.622 530.245,485.809" shape-rendering="crispEdges"/>
   <polygon fill="#0071bc" points="547.908,480.794 547.284,482.714 545.65,483.901 543.631,483.901 541.998,482.714 541.374,480.794 541.998,478.874 543.631,477.688 545.65,477.688 547.284,478.874" shape-rendering="crispEdges"/>
   <polygon fill="#0071bc" points="564.702,475.643 564.078,477.563 562.444,478.75 560.425,478.75 558.792,477.563 558.168,475.643 558.792,473.723 560.425,472.536 562.444,472.536 564.078,473.723" shape-rendering="crispEdges"/>
   <polygon fill="#0071bc" points="583.945,472.011 583.321,473.931 581.688,475.118 579.669,475.118 578.036,473.931 577.412,472.011 578.036,470.091 579.669,468.904 581.688,468.904 583.321,470.091" shape-rendering="crispEdges"/>
   <polygon fill="#0071bc" points="602.678,470.246 602.054,472.166 600.421,473.353 598.402,473.353 596.769,472.166 596.145,470.246 596.769,468.326 598.402,467.139 600.421,467.139 602.054,468.326" shape-rendering="crispEdges"/>
   <polygon fill="#0071bc" points="620.033,469.807 619.409,471.727 617.776,472.914 615.757,472.914 614.124,471.727 613.5,469.807 614.124,467.887 615.757,466.7 617.776,466.7 619.409,467.887" shape-rendering="crispEdges"/>
   <polygon fill="#0071bc" points="637.528,470.301 636.904,472.221 635.271,473.408 633.252,473.408 631.619,472.221 630.995,470.301 631.619,468.381 633.252,467.194 635.271,467.194 636.904,468.381" shape-rendering="crispEdges"/>
   <polygon fill="#0071bc" points="653.046,470.786 652.422,472.706 650.789,473.893 648.77,473.893 647.136,472.706 646.512,470.786 647.136,468.865 648.77,467.679 650.789,467.679 652.422,468.865" shape-rendering="crispEdges"/>
   <polygon fill="#0071bc" points="667.66,471.044 667.036,472.964 665.403,474.151 663.384,474.151 661.751,472.964 661.127,471.044 661.751,469.125 663.384,467.938 665.403,467.938 667.036,469.125" shape-rendering="crispEdges"/>
   <polygon fill="#0071bc" points="681.385,470.008 680.761,471.928 679.127,473.115 677.108,473.115 675.475,471.928 674.852,470.008 675.475,468.088 677.108,466.901 679.127,466.901 680.761,468.088" shape-rendering="crispEdges"/>
   <polygon fill="#0071bc" points="695.259,467.794 694.635,469.714 693.002,470.9 690.983,470.9 689.35,469.714 688.726,467.794 689.35,465.874 690.983,464.687 693.002,464.687 694.635,465.874" shape-rendering="crispEdges"/>
   <polygon fill="#0071bc" points="708.181,464.215 707.557,466.136 705.923,467.322 703.904,467.322 702.271,466.136 701.647,464.215 702.271,462.295 703.904,461.109 705.923,461.109 707.557,462.295" shape-rendering="crispEdges"/>
   <polygon fill="#0071bc" points="722.367,458.691 721.743,460.611 720.11,461.797 718.091,461.797 716.458,460.611 715.834,458.691 716.458,456.771 718.091,455.584 720.11,455.584 721.743,456.771" shape-rendering="crispEdges"/>
   <polygon fill="#0071bc" points="739.861,450.213 739.237,452.133 737.604,453.32 735.585,453.32 733.952,452.133 733.328,450.213 733.952,448.293 735.585,447.106 737.604,447.106 739.237,448.293" shape-rendering="crispEdges"/>
   <polygon fill="#0071bc" points="755.245,442.057 754.621,443.977 752.987,445.164 750.968,445.164 749.335,443.977 748.711,442.057 749.335,440.137 750.968,438.95 752.987,438.95 754.621,440.137" shape-rendering="crispEdges"/>
   <polygon fill="#0071bc" points="773.646,431.986 773.022,433.906 771.389,435.093 769.37,435.093 767.737,433.906 767.113,431.986 767.737,430.066 769.37,428.879 771.389,428.879 773.022,430.066" shape-rendering="crispEdges"/>
   <polygon fill="#0071bc" points="795.15,420.437 794.527,422.357 792.894,423.543 790.875,423.543 789.241,422.357 788.617,420.437 789.241,418.517 790.875,417.33 792.894,417.33 794.527,418.517" shape-rendering="crispEdges"/>
   <polygon fill="#0071bc" points="820.6,408.009 819.976,409.929 818.343,411.115 816.324,411.115 814.69,409.929 814.066,408.009 814.69,406.088 816.324,404.902 818.343,404.902 819.976,406.088" shape-rendering="crispEdges"/>
   <polygon fill="#0071bc" points="848.269,395.846 847.645,397.766 846.012,398.953 843.993,398.953 842.359,397.766 841.736,395.846 842.359,393.926 843.993,392.739 846.012,392.739 847.645,393.926" shape-rendering="crispEdges"/>
   <polygon fill="#0071bc" points="877.51,385.653 876.886,387.573 875.253,388.76 873.234,388.76 871.601,387.573 870.977,385.653 871.601,383.733 873.234,382.546 875.253,382.546 876.886,383.733" shape-rendering="crispEdges"/>
   <polygon fill="#0071bc" points="910.258,377.249 909.634,379.169 908.001,380.355 905.982,380.355 904.349,379.169 903.725,377.249 904.349,375.329 905.982,374.142 908.001,374.142 909.634,375.329" shape-rendering="crispEdges"/>
   <polygon fill="#0071bc" points="948.51,370.564 947.886,372.484 946.253,373.671 944.234,373.671 942.601,372.484 941.977,370.564 942.601,368.644 944.234,367.458 946.253,367.458 947.886,368.644" shape-rendering="crispEdges"/>
   <polygon fill="#0071bc" points="987.963,369.3 987.339,371.22 985.706,372.407 983.687,372.407 982.054,371.22 981.43,369.3 982.054,367.38 983.687,366.193 985.706,366.193 987.339,367.38" shape-rendering="crispEdges"/>
   <polygon fill="#0071bc" points="1030.37,372.312 1029.74,374.232 1028.11,375.418 1026.09,375.418 1024.46,374.232 1023.83,372.312 1024.46,370.392 1026.09,369.205 1028.11,369.205 1029.74,370.392" shape-rendering="crispEdges"/>
   <polygon fill="#0071bc" points="1068.34,380.683 1067.72,382.603 1066.08,383.79 1064.06,383.79 1062.43,382.603 1061.81,380.683 1062.43,378.763 1064.06,377.576 1066.08,377.576 1067.72,378.763" shape-rendering="crispEdges"/>
   <polygon fill="#0071bc" points="1105.67,396.894 1105.05,398.813 1103.42,400 1101.4,400 1099.77,398.813 1099.14,396.894 1099.77,394.974 1101.4,393.787 1103.42,393.787 1105.05,394.974" shape-rendering="crispEdges"/>
   <polygon fill="#0071bc" points="1134.3,414.348 1133.68,416.268 1132.04,417.455 1130.03,417.455 1128.39,416.268 1127.77,414.348 1128.39,412.428 1130.03,411.241 1132.04,411.241 1133.68,412.428" shape-rendering="crispEdges"/>
   <polygon fill="#0071bc" points="1160.05,433.782 1159.42,435.703 1157.79,436.889 1155.77,436.889 1154.14,435.703 1153.51,433.782 1154.14,431.862 1155.77,430.676 1157.79,430.676 1159.42,431.862" shape-rendering="crispEdges"/>
   <polygon fill="#0071bc" points="1181.77,453.877 1181.15,455.797 1179.51,456.984 1177.49,456.984 1175.86,455.797 1175.24,453.877 1175.86,451.957 1177.49,450.77 1179.51,450.77 1181.15,451.957" shape-rendering="crispEdges"/>
   <polygon fill="#0071bc" points="1195.57,476.177 1194.94,478.097 1193.31,479.284 1191.29,479.284 1189.66,478.097 1189.04,476.177 1189.66,474.257 1191.29,473.07 1193.31,473.07 1194.94,474.257" shape-rendering="crispEdges"/>
   <polygon fill="#0071bc" points="1203.48,490.727 1202.86,492.647 1201.23,493.833 1199.21,493.833 1197.57,492.647 1196.95,490.727 1197.57,488.807 1199.21,487.62 1201.23,487.62 1202.86,488.807" shape-rendering="crispEdges"/>
   <polygon fill="#0071bc" points="1214.36,501.247 1213.74,503.167 1212.1,504.353 1210.08,504.353 1208.45,503.167 1207.83,501.247 1208.45,499.326 1210.08,498.14 1212.1,498.14 1213.74,499.326" shape-rendering="crispEdges"/>
   <polyline fill="none" points="448.804,581.566 449.296,579.33 449.942,577.271 450.733,575.437 451.685,573.816 452.696,572.291 453.871,570.823 455.283,569.26 456.813,567.77 458.402,566.381 460.333,564.783 462.495,563.307 464.899,561.635 467.372,560.108 470.31,558.47 473.479,556.808 476.735,555.243 480.542,553.564 484.462,552.046 488.785,550.571 493.193,549.339 498.111,548.195 502.682,547.307 507.553,546.395 513.174,545.693 517.194,544.829 522.172,544.122 527.12,543.032 532.392,541.826 537.777,540.346 542.051,539.015 547.825,537.249 553.22,534.858 558.511,532.403 565.422,529.61 571.897,527.313 580.029,524.287 588.255,520.499 594.993,515.897 604.694,513.706 613.174,508.804 624.711,503.934 635.19,501.306" stroke="#d85218" stroke-linecap="butt" stroke-linejoin="round" stroke-width="0.7"/>
   <polygon fill="#d85218" points="452.07,581.566 451.446,583.486 449.813,584.673 447.794,584.673 446.161,583.486 445.537,581.566 446.161,579.646 447.794,578.459 449.813,578.459 451.446,579.646" shape-rendering="crispEdges"/>
   <polygon fill="#d85218" points="452.562,579.33 451.938,581.25 450.305,582.437 448.286,582.437 446.653,581.25 446.029,579.33 446.653,577.41 448.286,576.223 450.305,576.223 451.938,577.41" shape-rendering="crispEdges"/>
   <polygon fill="#d85218" points="453.209,577.271 452.585,579.191 450.952,580.378 448.933,580.378 447.299,579.191 446.675,577.271 447.299,575.351 448.933,574.165 450.952,574.165 452.585,575.351" shape-rendering="crispEdges"/>
   <polygon fill="#d85218" points="454,575.437 453.376,577.357 451.743,578.544 449.724,578.544 448.09,577.357 447.466,575.437 448.09,573.517 449.724,572.331 451.743,572.331 453.376,573.517" shape-rendering="crispEdges"/>
   <polygon fill="#d85218" points="454.952,573.816 454.328,575.736 452.695,576.923 450.676,576.923 449.042,575.736 448.418,573.816 449.042,571.896 450.676,570.709 452.695,570.709 454.328,571.896" shape-rendering="crispEdges"/>
   <polygon fill="#d85218" points="455.963,572.291 455.339,574.211 453.706,575.398 451.687,575.398 450.053,574.211 449.43,572.291 450.053,570.371 451.687,569.184 453.706,569.184 455.339,570.371" shape-rendering="crispEdges"/>
   <polygon fill="#d85218" points="457.137,570.823 456.513,572.744 454.88,573.93 452.861,573.93 451.228,572.744 450.604,570.823 451.228,568.903 452.861,567.717 454.88,567.717 456.513,568.903" shape-rendering="crispEdges"/>
   <polygon fill="#d85218" points="458.549,569.26 457.925,571.181 456.292,572.367 454.273,572.367 452.64,571.181 452.016,569.26 452.64,567.34 454.273,566.154 456.292,566.154 457.925,567.34" shape-rendering="crispEdges"/>
   <polygon fill="#d85218" points="460.08,567.77 459.456,569.689 457.823,570.876 455.804,570.876 454.17,569.689 453.547,567.77 454.17,565.85 455.804,564.663 457.823,564.663 459.456,565.85" shape-rendering="crispEdges"/>
   <polygon fill="#d85218" points="461.668,566.381 461.045,568.301 459.411,569.488 457.393,569.488 455.759,568.301 455.135,566.381 455.759,564.461 457.393,563.274 459.411,563.274 461.045,564.461" shape-rendering="crispEdges"/>
   <polygon fill="#d85218" points="463.6,564.783 462.976,566.703 461.342,567.89 459.323,567.89 457.69,566.703 457.066,564.783 457.69,562.863 459.323,561.676 461.342,561.676 462.976,562.863" shape-rendering="crispEdges"/>
   <polygon fill="#d85218" points="465.761,563.307 465.138,565.227 463.504,566.414 461.485,566.414 459.852,565.227 459.228,563.307 459.852,561.387 461.485,560.2 463.504,560.2 465.138,561.387" shape-rendering="crispEdges"/>
   <polygon fill="#d85218" points="468.166,561.635 467.542,563.555 465.908,564.742 463.889,564.742 462.256,563.555 461.632,561.635 462.256,559.715 463.889,558.528 465.908,558.528 467.542,559.715" shape-rendering="crispEdges"/>
   <polygon fill="#d85218" points="470.638,560.108 470.015,562.029 468.381,563.215 466.362,563.215 464.729,562.029 464.105,560.108 464.729,558.188 466.362,557.001 468.381,557.001 470.015,558.188" shape-rendering="crispEdges"/>
   <polygon fill="#d85218" points="473.577,558.47 472.953,560.39 471.319,561.577 469.301,561.577 467.667,560.39 467.043,558.47 467.667,556.55 469.301,555.363 471.319,555.363 472.953,556.55" shape-rendering="crispEdges"/>
   <polygon fill="#d85218" points="476.745,556.808 476.121,558.728 474.488,559.915 472.469,559.915 470.836,558.728 470.212,556.808 470.836,554.888 472.469,553.701 474.488,553.701 476.121,554.888" shape-rendering="crispEdges"/>
   <polygon fill="#d85218" points="480.001,555.243 479.377,557.163 477.744,558.349 475.725,558.349 474.092,557.163 473.468,555.243 474.092,553.322 475.725,552.136 477.744,552.136 479.377,553.322" shape-rendering="crispEdges"/>
   <polygon fill="#d85218" points="483.809,553.564 483.185,555.484 481.551,556.671 479.532,556.671 477.899,555.484 477.275,553.564 477.899,551.644 479.532,550.457 481.551,550.457 483.185,551.644" shape-rendering="crispEdges"/>
   <polygon fill="#d85218" points="487.729,552.046 487.105,553.966 485.472,555.153 483.453,555.153 481.819,553.966 481.196,552.046 481.819,550.126 483.453,548.939 485.472,548.939 487.105,550.126" shape-rendering="crispEdges"/>
   <polygon fill="#d85218" points="492.052,550.571 491.428,552.491 489.794,553.678 487.775,553.678 486.142,552.491 485.519,550.571 486.142,548.651 487.775,547.464 489.794,547.464 491.428,548.651" shape-rendering="crispEdges"/>
   <polygon fill="#d85218" points="496.46,549.339 495.836,551.259 494.203,552.446 492.184,552.446 490.55,551.259 489.927,549.339 490.55,547.419 492.184,546.232 494.203,546.232 495.836,547.419" shape-rendering="crispEdges"/>
   <polygon fill="#d85218" points="501.378,548.195 500.754,550.115 499.121,551.301 497.102,551.301 495.469,550.115 494.845,548.195 495.469,546.274 497.102,545.088 499.121,545.088 500.754,546.274" shape-rendering="crispEdges"/>
   <polygon fill="#d85218" points="505.948,547.307 505.325,549.227 503.691,550.414 501.672,550.414 500.039,549.227 499.415,547.307 500.039,545.387 501.672,544.2 503.691,544.2 505.325,545.387" shape-rendering="crispEdges"/>
   <polygon fill="#d85218" points="510.82,546.395 510.196,548.315 508.563,549.502 506.544,549.502 504.911,548.315 504.287,546.395 504.911,544.475 506.544,543.288 508.563,543.288 510.196,544.475" shape-rendering="crispEdges"/>
   <polygon fill="#d85218" points="516.44,545.693 515.816,547.613 514.183,548.8 512.164,548.8 510.531,547.613 509.907,545.693 510.531,543.773 512.164,542.586 514.183,542.586 515.816,543.773" shape-rendering="crispEdges"/>
   <polygon fill="#d85218" points="520.461,544.829 519.837,546.749 518.204,547.936 516.185,547.936 514.551,546.749 513.927,544.829 514.551,542.909 516.185,541.722 518.204,541.722 519.837,542.909" shape-rendering="crispEdges"/>
   <polygon fill="#d85218" points="525.439,544.122 524.815,546.042 523.182,547.229 521.163,547.229 519.529,546.042 518.905,544.122 519.529,542.202 521.163,541.015 523.182,541.015 524.815,542.202" shape-rendering="crispEdges"/>
   <polygon fill="#d85218" points="530.387,543.032 529.763,544.952 528.13,546.139 526.111,546.139 524.478,544.952 523.854,543.032 524.478,541.112 526.111,539.925 528.13,539.925 529.763,541.112" shape-rendering="crispEdges"/>
   <polygon fill="#d85218" points="535.658,541.826 535.035,543.746 533.401,544.933 531.382,544.933 529.749,543.746 529.125,541.826 529.749,539.906 531.382,538.719 533.401,538.719 535.035,539.906" shape-rendering="crispEdges"/>
   <polygon fill="#d85218" points="541.044,540.346 540.42,542.266 538.787,543.453 536.768,543.453 535.135,542.266 534.511,540.346 535.135,538.426 536.768,537.239 538.787,537.239 540.42,538.426" shape-rendering="crispEdges"/>
   <polygon fill="#d85218" points="545.318,539.015 544.694,540.935 543.061,542.122 541.042,542.122 539.409,540.935 538.785,539.015 539.409,537.095 541.042,535.908 543.061,535.908 544.694,537.095" shape-rendering="crispEdges"/>
   <polygon fill="#d85218" points="551.091,537.249 550.468,539.169 548.834,540.355 546.815,540.355 545.182,539.169 544.558,537.249 545.182,535.329 546.815,534.142 548.834,534.142 550.468,535.329" shape-rendering="crispEdges"/>
   <polygon fill="#d85218" points="556.486,534.858 555.862,536.778 554.229,537.965 552.21,537.965 550.577,536.778 549.953,534.858 550.577,532.938 552.21,531.751 554.229,531.751 555.862,532.938" shape-rendering="crispEdges"/>
   <polygon fill="#d85218" points="561.778,532.403 561.154,534.323 559.521,535.51 557.501,535.51 555.868,534.323 555.244,532.403 555.868,530.482 557.501,529.296 559.521,529.296 561.154,530.482" shape-rendering="crispEdges"/>
   <polygon fill="#d85218" points="568.689,529.61 568.065,531.53 566.432,532.717 564.413,532.717 562.779,531.53 562.155,529.61 562.779,527.69 564.413,526.503 566.432,526.503 568.065,527.69" shape-rendering="crispEdges"/>
   <polygon fill="#d85218" points="575.163,527.313 574.54,529.232 572.906,530.419 570.887,530.419 569.254,529.232 568.63,527.313 569.254,525.392 570.887,524.206 572.906,524.206 574.54,525.392" shape-rendering="crispEdges"/>
   <polygon fill="#d85218" points="583.295,524.287 582.671,526.208 581.038,527.394 579.019,527.394 577.386,526.208 576.762,524.287 577.386,522.367 579.019,521.181 581.038,521.181 582.671,522.367" shape-rendering="crispEdges"/>
   <polygon fill="#d85218" points="591.522,520.499 590.898,522.419 589.265,523.606 587.246,523.606 585.612,522.419 584.989,520.499 585.612,518.579 587.246,517.392 589.265,517.392 590.898,518.579" shape-rendering="crispEdges"/>
   <polygon fill="#d85218" points="598.26,515.897 597.636,517.817 596.002,519.004 593.983,519.004 592.35,517.817 591.727,515.897 592.35,513.978 593.983,512.791 596.002,512.791 597.636,513.978" shape-rendering="crispEdges"/>
   <polygon fill="#d85218" points="607.96,513.706 607.336,515.625 605.703,516.813 603.685,516.813 602.051,515.625 601.427,513.706 602.051,511.786 603.685,510.599 605.703,510.599 607.336,511.786" shape-rendering="crispEdges"/>
   <polygon fill="#d85218" points="616.44,508.804 615.816,510.724 614.183,511.911 612.164,511.911 610.531,510.724 609.907,508.804 610.531,506.884 612.164,505.697 614.183,505.697 615.816,506.884" shape-rendering="crispEdges"/>
   <polygon fill="#d85218" points="627.978,503.934 627.354,505.854 625.72,507.041 623.701,507.041 622.068,505.854 621.444,503.934 622.068,502.014 623.701,500.827 625.72,500.827 627.354,502.014" shape-rendering="crispEdges"/>
   <polygon fill="#d85218" points="638.457,501.307 637.833,503.227 636.2,504.413 634.181,504.413 632.547,503.227 631.924,501.307 632.547,499.386 634.181,498.2 636.2,498.2 637.833,499.386" shape-rendering="crispEdges"/>
   <polyline fill="none" points="458.92,574.309 460.797,570.935 463.123,567.794 465.822,564.965 468.9,562.526 472.337,560.406 476.014,558.725 480.253,557.433 484.353,556.696 488.102,556.3 492.093,556.284 495.456,556.576 498.88,556.81 501.6,556.827 504.485,556.618 507.117,556.077 509.741,555.12 512.847,553.636 516.094,551.822 520.074,549.678 524.511,547.5 530.101,545.264 535.801,543.553 542.466,542.383 550.448,542.149 556.583,542.638 563.034,543.905 568.763,545.852 574.794,547.999 578.71,550.208 583.077,552.34 586.01,554.441 589.542,556.354 592.13,557.781 594.304,559.196 597.355,560.261 598.934,560.981 601.363,561.428 603.514,561.337 605.498,560.928 608.031,561.046 610.674,560.511 613.569,560.075" stroke="#ecb01f" stroke-linecap="butt" stroke-linejoin="round" stroke-width="0.7"/>
   <polygon fill="#ecb01f" points="462.187,574.309 461.563,576.229 459.929,577.416 457.91,577.416 456.277,576.229 455.653,574.309 456.277,572.388 457.91,571.202 459.929,571.202 461.563,572.388" shape-rendering="crispEdges"/>
   <polygon fill="#ecb01f" points="464.064,570.935 463.44,572.854 461.807,574.042 459.788,574.042 458.154,572.854 457.53,570.935 458.154,569.015 459.788,567.828 461.807,567.828 463.44,569.015" shape-rendering="crispEdges"/>
   <polygon fill="#ecb01f" points="466.389,567.794 465.765,569.714 464.132,570.901 462.113,570.901 460.479,569.714 459.855,567.794 460.479,565.874 462.113,564.687 464.132,564.687 465.765,565.874" shape-rendering="crispEdges"/>
   <polygon fill="#ecb01f" points="469.088,564.965 468.465,566.886 466.832,568.072 464.813,568.072 463.179,566.886 462.555,564.965 463.179,563.045 464.813,561.859 466.832,561.859 468.465,563.045" shape-rendering="crispEdges"/>
   <polygon fill="#ecb01f" points="472.167,562.526 471.543,564.446 469.91,565.633 467.891,565.633 466.257,564.446 465.634,562.526 466.257,560.606 467.891,559.419 469.91,559.419 471.543,560.606" shape-rendering="crispEdges"/>
   <polygon fill="#ecb01f" points="475.604,560.406 474.98,562.326 473.347,563.513 471.328,563.513 469.695,562.326 469.071,560.406 469.695,558.486 471.328,557.299 473.347,557.299 474.98,558.486" shape-rendering="crispEdges"/>
   <polygon fill="#ecb01f" points="479.28,558.726 478.656,560.646 477.023,561.832 475.004,561.832 473.371,560.646 472.747,558.726 473.371,556.805 475.004,555.619 477.023,555.619 478.656,556.805" shape-rendering="crispEdges"/>
   <polygon fill="#ecb01f" points="483.52,557.433 482.896,559.354 481.263,560.54 479.244,560.54 477.61,559.354 476.986,557.433 477.61,555.513 479.244,554.327 481.263,554.327 482.896,555.513" shape-rendering="crispEdges"/>
   <polygon fill="#ecb01f" points="487.619,556.696 486.995,558.616 485.362,559.802 483.343,559.802 481.709,558.616 481.086,556.696 481.709,554.775 483.343,553.589 485.362,553.589 486.995,554.775" shape-rendering="crispEdges"/>
   <polygon fill="#ecb01f" points="491.369,556.3 490.745,558.22 489.111,559.407 487.092,559.407 485.459,558.22 484.835,556.3 485.459,554.38 487.092,553.193 489.111,553.193 490.745,554.38" shape-rendering="crispEdges"/>
   <polygon fill="#ecb01f" points="495.36,556.284 494.736,558.204 493.103,559.39 491.084,559.39 489.451,558.204 488.827,556.284 489.451,554.363 491.084,553.177 493.103,553.177 494.736,554.363" shape-rendering="crispEdges"/>
   <polygon fill="#ecb01f" points="498.723,556.576 498.099,558.496 496.466,559.683 494.447,559.683 492.813,558.496 492.189,556.576 492.813,554.656 494.447,553.469 496.466,553.469 498.099,554.656" shape-rendering="crispEdges"/>
   <polygon fill="#ecb01f" points="502.147,556.81 501.523,558.73 499.89,559.917 497.871,559.917 496.237,558.73 495.613,556.81 496.237,554.89 497.871,553.703 499.89,553.703 501.523,554.89" shape-rendering="crispEdges"/>
   <polygon fill="#ecb01f" points="504.866,556.827 504.243,558.747 502.609,559.934 500.59,559.934 498.957,558.747 498.333,556.827 498.957,554.907 500.59,553.72 502.609,553.72 504.243,554.907" shape-rendering="crispEdges"/>
   <polygon fill="#ecb01f" points="507.751,556.618 507.127,558.538 505.494,559.725 503.476,559.725 501.842,558.538 501.218,556.618 501.842,554.698 503.476,553.511 505.494,553.511 507.127,554.698" shape-rendering="crispEdges"/>
   <polygon fill="#ecb01f" points="510.383,556.077 509.759,557.997 508.126,559.184 506.107,559.184 504.474,557.997 503.85,556.077 504.474,554.157 506.107,552.97 508.126,552.97 509.759,554.157" shape-rendering="crispEdges"/>
   <polygon fill="#ecb01f" points="513.007,555.12 512.384,557.041 510.75,558.227 508.731,558.227 507.098,557.041 506.474,555.12 507.098,553.2 508.731,552.014 510.75,552.014 512.384,553.2" shape-rendering="crispEdges"/>
   <polygon fill="#ecb01f" points="516.114,553.636 515.49,555.556 513.856,556.743 511.837,556.743 510.204,555.556 509.58,553.636 510.204,551.716 511.837,550.529 513.856,550.529 515.49,551.716" shape-rendering="crispEdges"/>
   <polygon fill="#ecb01f" points="519.361,551.822 518.737,553.742 517.104,554.929 515.084,554.929 513.451,553.742 512.828,551.822 513.451,549.902 515.084,548.715 517.104,548.715 518.737,549.902" shape-rendering="crispEdges"/>
   <polygon fill="#ecb01f" points="523.34,549.678 522.716,551.598 521.083,552.785 519.064,552.785 517.431,551.598 516.807,549.678 517.431,547.758 519.064,546.571 521.083,546.571 522.716,547.758" shape-rendering="crispEdges"/>
   <polygon fill="#ecb01f" points="527.777,547.5 527.153,549.42 525.52,550.607 523.501,550.607 521.868,549.42 521.244,547.5 521.868,545.58 523.501,544.394 525.52,544.394 527.153,545.58" shape-rendering="crispEdges"/>
   <polygon fill="#ecb01f" points="533.368,545.264 532.744,547.184 531.11,548.371 529.091,548.371 527.458,547.184 526.834,545.264 527.458,543.344 529.091,542.157 531.11,542.157 532.744,543.344" shape-rendering="crispEdges"/>
   <polygon fill="#ecb01f" points="539.068,543.553 538.444,545.473 536.811,546.66 534.792,546.66 533.158,545.473 532.535,543.553 533.158,541.633 534.792,540.446 536.811,540.446 538.444,541.633" shape-rendering="crispEdges"/>
   <polygon fill="#ecb01f" points="545.732,542.383 545.108,544.304 543.475,545.49 541.456,545.49 539.823,544.304 539.199,542.383 539.823,540.463 541.456,539.276 543.475,539.276 545.108,540.463" shape-rendering="crispEdges"/>
   <polygon fill="#ecb01f" points="553.714,542.149 553.09,544.069 551.457,545.256 549.438,545.256 547.805,544.069 547.181,542.149 547.805,540.229 549.438,539.042 551.457,539.042 553.09,540.229" shape-rendering="crispEdges"/>
   <polygon fill="#ecb01f" points="559.849,542.638 559.225,544.558 557.592,545.745 555.573,545.745 553.939,544.558 553.316,542.638 553.939,540.718 555.573,539.531 557.592,539.531 559.225,540.718" shape-rendering="crispEdges"/>
   <polygon fill="#ecb01f" points="566.3,543.905 565.676,545.826 564.043,547.012 562.024,547.012 560.391,545.826 559.767,543.905 560.391,541.985 562.024,540.799 564.043,540.799 565.676,541.985" shape-rendering="crispEdges"/>
   <polygon fill="#ecb01f" points="572.029,545.852 571.406,547.772 569.772,548.958 567.753,548.958 566.12,547.772 565.496,545.852 566.12,543.932 567.753,542.745 569.772,542.745 571.406,543.932" shape-rendering="crispEdges"/>
   <polygon fill="#ecb01f" points="578.061,547.999 577.437,549.919 575.804,551.106 573.785,551.106 572.151,549.919 571.527,547.999 572.151,546.079 573.785,544.893 575.804,544.893 577.437,546.079" shape-rendering="crispEdges"/>
   <polygon fill="#ecb01f" points="581.977,550.208 581.353,552.128 579.72,553.314 577.701,553.314 576.067,552.128 575.443,550.208 576.067,548.288 577.701,547.101 579.72,547.101 581.353,548.288" shape-rendering="crispEdges"/>
   <polygon fill="#ecb01f" points="586.344,552.34 585.72,554.26 584.086,555.446 582.068,555.446 580.435,554.26 579.811,552.34 580.435,550.419 582.068,549.233 584.086,549.233 585.72,550.419" shape-rendering="crispEdges"/>
   <polygon fill="#ecb01f" points="589.277,554.441 588.653,556.362 587.02,557.548 585,557.548 583.367,556.362 582.743,554.441 583.367,552.521 585,551.335 587.02,551.335 588.653,552.521" shape-rendering="crispEdges"/>
   <polygon fill="#ecb01f" points="592.809,556.354 592.185,558.275 590.551,559.461 588.532,559.461 586.899,558.275 586.275,556.354 586.899,554.435 588.532,553.248 590.551,553.248 592.185,554.435" shape-rendering="crispEdges"/>
   <polygon fill="#ecb01f" points="595.397,557.781 594.773,559.701 593.14,560.888 591.121,560.888 589.487,559.701 588.864,557.781 589.487,555.861 591.121,554.674 593.14,554.674 594.773,555.861" shape-rendering="crispEdges"/>
   <polygon fill="#ecb01f" points="597.571,559.196 596.947,561.116 595.314,562.303 593.295,562.303 591.662,561.116 591.038,559.196 591.662,557.276 593.295,556.089 595.314,556.089 596.947,557.276" shape-rendering="crispEdges"/>
   <polygon fill="#ecb01f" points="600.622,560.261 599.998,562.181 598.364,563.368 596.346,563.368 594.712,562.181 594.088,560.261 594.712,558.34 596.346,557.154 598.364,557.154 599.998,558.34" shape-rendering="crispEdges"/>
   <polygon fill="#ecb01f" points="602.2,560.981 601.577,562.902 599.943,564.088 597.924,564.088 596.291,562.902 595.667,560.981 596.291,559.062 597.924,557.875 599.943,557.875 601.577,559.062" shape-rendering="crispEdges"/>
   <polygon fill="#ecb01f" points="604.63,561.428 604.006,563.348 602.373,564.535 600.354,564.535 598.721,563.348 598.097,561.428 598.721,559.508 600.354,558.321 602.373,558.321 604.006,559.508" shape-rendering="crispEdges"/>
   <polygon fill="#ecb01f" points="606.781,561.337 606.157,563.257 604.523,564.444 602.504,564.444 600.871,563.257 600.248,561.337 600.871,559.417 602.504,558.23 604.523,558.23 606.157,559.417" shape-rendering="crispEdges"/>
   <polygon fill="#ecb01f" points="608.765,560.928 608.141,562.848 606.508,564.035 604.489,564.035 602.855,562.848 602.231,560.928 602.855,559.008 604.489,557.821 606.508,557.821 608.141,559.008" shape-rendering="crispEdges"/>
   <polygon fill="#ecb01f" points="611.298,561.046 610.674,562.966 609.041,564.153 607.021,564.153 605.388,562.966 604.765,561.046 605.388,559.126 607.021,557.939 609.041,557.939 610.674,559.126" shape-rendering="crispEdges"/>
   <polygon fill="#ecb01f" points="613.941,560.511 613.317,562.431 611.684,563.617 609.665,563.617 608.031,562.431 607.407,560.511 608.031,558.59 609.665,557.404 611.684,557.404 613.317,558.59" shape-rendering="crispEdges"/>
   <polygon fill="#ecb01f" points="616.836,560.075 616.212,561.995 614.579,563.182 612.56,563.182 610.926,561.995 610.302,560.075 610.926,558.155 612.56,556.968 614.579,556.968 616.212,558.155" shape-rendering="crispEdges"/>
  </g>
  <clipPath id="cp0016001000">
   <polygon points="0,1000 1600,1000 1600,0 0,0"/>
  </clipPath>
  <g clip-path="url(#cp0016001000)">
   <polygon fill="#ffffff" points="1156.29,187.01 1295.14,187.01 1295.14,93.2129 1156.29,93.2129" shape-rendering="crispEdges"/>
   <polyline fill="none" points="1156.29,187.01 1295.14,187.01" stroke="#262626" stroke-dasharray="16,0" stroke-linecap="square" stroke-linejoin="miter" stroke-width="0.7"/>
   <polyline fill="none" points="1156.29,93.2129 1295.14,93.2129" stroke="#262626" stroke-dasharray="16,0" stroke-linecap="square" stroke-linejoin="miter" stroke-width="0.7"/>
   <polyline fill="none" points="1156.29,187.01 1156.29,93.2129" stroke="#262626" stroke-dasharray="16,0" stroke-linecap="square" stroke-linejoin="miter" stroke-width="0.7"/>
   <polyline fill="none" points="1295.14,187.01 1295.14,93.2129" stroke="#262626" stroke-dasharray="16,0" stroke-linecap="square" stroke-linejoin="miter" stroke-width="0.7"/>
   <polygon fill="#0071bc" points="1196.87,111.881 1195.71,113.902 1193.37,113.902 1192.21,111.881 1193.37,109.861 1195.71,109.861 1196.87,111.881" shape-rendering="crispEdges"/>
   <polygon fill="#d85218" points="1196.87,140.112 1195.71,142.132 1193.37,142.132 1192.21,140.112 1193.37,138.091 1195.71,138.091 1196.87,140.112" shape-rendering="crispEdges"/>
   <polygon fill="#ecb01f" points="1196.87,168.342 1195.71,170.363 1193.37,170.363 1192.21,168.342 1193.37,166.321 1195.71,166.321 1196.87,168.342" shape-rendering="crispEdges"/>
   <polyline fill="none" points="1167.22,111.881 1221.86,111.881" stroke="#0071bc" stroke-linecap="butt" stroke-linejoin="round" stroke-width="0.7"/>
   <g font-family="'Noto Sans'" font-size="36.6038" font-style="normal" font-weight="normal" transform="translate(1232.79,125.881) rotate(-0,-0,-14)" xml:space="preserve">
    <text fill="rgb(0,0,0)" x="0 20 30 50 " y="-1">1.5A</text>
   </g>
   <polyline fill="none" points="1167.22,140.112 1221.86,140.112" stroke="#d85218" stroke-linecap="butt" stroke-linejoin="round" stroke-width="0.7"/>
   <g font-family="'Noto Sans'" font-size="36.6038" font-style="normal" font-weight="normal" transform="translate(1232.79,154.112) rotate(-0,-0,-14)" xml:space="preserve">
    <text fill="rgb(0,0,0)" x="0 20 40 " y="-1">18A</text>
   </g>
   <polyline fill="none" points="1167.22,168.342 1221.86,168.342" stroke="#ecb01f" stroke-linecap="butt" stroke-linejoin="round" stroke-width="0.7"/>
   <g font-family="'Noto Sans'" font-size="36.6038" font-style="normal" font-weight="normal" transform="translate(1232.79,182.342) rotate(-0,-0,-14)" xml:space="preserve">
    <text fill="rgb(0,0,0)" x="0 20 " y="-1">9A</text>
   </g>
  </g>
 </g>
</svg>
