<?xml version='1.0' encoding='UTF-8' standalone='no'?>
<svg height="1000pt" viewBox="0 0 1600 1000" width="1600pt" xmlns="http://www.w3.org/2000/svg" xmlns:xlink="http://www.w3.org/1999/xlink">
 <title>Figure 15: Stabilizations: Vdc vs t</title>
 <desc>
Creator: GL2PS 1.4.2, (C) 1999-2020 C. Geuzaine
For: Octave
CreationDate: Sun Nov  9 14:35:30 2025
</desc>
 <defs/>
 <polygon fill="#ffffff" points="0,0 1600,0 1600,1000 0,1000"/>
 <g>
  <polygon fill="#ffffff" points="0,1000 1600,1000 1600,0 0,0" shape-rendering="crispEdges"/>
  <clipPath id="cp0016001000">
   <polygon points="0,1000 1600,1000 1600,0 0,0"/>
  </clipPath>
  <g clip-path="url(#cp0016001000)">
   <polygon fill="#ffffff" points="208,879.497 1448,879.497 1448,75 208,75" shape-rendering="crispEdges"/>
   <polyline fill="none" points="208,879.497 208,75" stroke="#262626" stroke-dasharray="16,0" stroke-linecap="butt" stroke-linejoin="miter" stroke-opacity="0.15" stroke-width="0.7"/>
   <polyline fill="none" points="414.667,879.497 414.667,75" stroke="#262626" stroke-dasharray="16,0" stroke-linecap="butt" stroke-linejoin="miter" stroke-opacity="0.15" stroke-width="0.7"/>
   <polyline fill="none" points="621.333,879.497 621.333,75" stroke="#262626" stroke-dasharray="16,0" stroke-linecap="butt" stroke-linejoin="miter" stroke-opacity="0.15" stroke-width="0.7"/>
   <polyline fill="none" points="828,879.497 828,75" stroke="#262626" stroke-dasharray="16,0" stroke-linecap="butt" stroke-linejoin="miter" stroke-opacity="0.15" stroke-width="0.7"/>
   <polyline fill="none" points="1034.67,879.497 1034.67,75" stroke="#262626" stroke-dasharray="16,0" stroke-linecap="butt" stroke-linejoin="miter" stroke-opacity="0.15" stroke-width="0.7"/>
   <polyline fill="none" points="1241.33,879.497 1241.33,75" stroke="#262626" stroke-dasharray="16,0" stroke-linecap="butt" stroke-linejoin="miter" stroke-opacity="0.15" stroke-width="0.7"/>
   <polyline fill="none" points="1448,879.497 1448,75" stroke="#262626" stroke-dasharray="16,0" stroke-linecap="butt" stroke-linejoin="miter" stroke-opacity="0.15" stroke-width="0.7"/>
   <polyline fill="none" points="208,879.497 208,867.089" stroke="#262626" stroke-linecap="butt" stroke-linejoin="miter" stroke-width="0.7"/>
   <polyline fill="none" points="414.667,879.497 414.667,867.089" stroke="#262626" stroke-linecap="butt" stroke-linejoin="miter" stroke-width="0.7"/>
   <polyline fill="none" points="621.333,879.497 621.333,867.089" stroke="#262626" stroke-linecap="butt" stroke-linejoin="miter" stroke-width="0.7"/>
   <polyline fill="none" points="828,879.497 828,867.089" stroke="#262626" stroke-linecap="butt" stroke-linejoin="miter" stroke-width="0.7"/>
   <polyline fill="none" points="1034.67,879.497 1034.67,867.089" stroke="#262626" stroke-linecap="butt" stroke-linejoin="miter" stroke-width="0.7"/>
   <polyline fill="none" points="1241.33,879.497 1241.33,867.089" stroke="#262626" stroke-linecap="butt" stroke-linejoin="miter" stroke-width="0.7"/>
   <polyline fill="none" points="1448,879.497 1448,867.089" stroke="#262626" stroke-linecap="butt" stroke-linejoin="miter" stroke-width="0.7"/>
   <g font-family="'Noto Sans'" font-size="40.6709" font-style="normal" font-weight="normal" transform="translate(196.5,941.019) rotate(-0,11.5,-31)" xml:space="preserve">
    <text fill="rgb(38,38,38)" x="0 " y="-1">0</text>
   </g>
   <g font-family="'Noto Sans'" font-size="40.6709" font-style="normal" font-weight="normal" transform="translate(391.667,941.019) rotate(-0,23,-31)" xml:space="preserve">
    <text fill="rgb(38,38,38)" x="0 23 " y="-1">20</text>
   </g>
   <g font-family="'Noto Sans'" font-size="40.6709" font-style="normal" font-weight="normal" transform="translate(598.333,941.019) rotate(-0,23,-31)" xml:space="preserve">
    <text fill="rgb(38,38,38)" x="0 23 " y="-1">40</text>
   </g>
   <g font-family="'Noto Sans'" font-size="40.6709" font-style="normal" font-weight="normal" transform="translate(805,941.019) rotate(-0,23,-31)" xml:space="preserve">
    <text fill="rgb(38,38,38)" x="0 23 " y="-1">60</text>
   </g>
   <g font-family="'Noto Sans'" font-size="40.6709" font-style="normal" font-weight="normal" transform="translate(1011.67,941.019) rotate(-0,23,-31)" xml:space="preserve">
    <text fill="rgb(38,38,38)" x="0 23 " y="-1">80</text>
   </g>
   <g font-family="'Noto Sans'" font-size="40.6709" font-style="normal" font-weight="normal" transform="translate(1206.83,941.019) rotate(-0,34.5,-31)" xml:space="preserve">
    <text fill="rgb(38,38,38)" x="0 23 46 " y="-1">100</text>
   </g>
   <g font-family="'Noto Sans'" font-size="40.6709" font-style="normal" font-weight="normal" transform="translate(1413.5,941.019) rotate(-0,34.5,-31)" xml:space="preserve">
    <text fill="rgb(38,38,38)" x="0 23 46 " y="-1">120</text>
   </g>
   <polyline fill="none" points="208,879.497 1448,879.497" stroke="#262626" stroke-dasharray="16,0" stroke-linecap="butt" stroke-linejoin="miter" stroke-opacity="0.15" stroke-width="0.7"/>
   <polyline fill="none" points="208,745.414 1448,745.414" stroke="#262626" stroke-dasharray="16,0" stroke-linecap="butt" stroke-linejoin="miter" stroke-opacity="0.15" stroke-width="0.7"/>
   <polyline fill="none" points="208,611.331 1448,611.331" stroke="#262626" stroke-dasharray="16,0" stroke-linecap="butt" stroke-linejoin="miter" stroke-opacity="0.15" stroke-width="0.7"/>
   <polyline fill="none" points="208,477.249 1448,477.249" stroke="#262626" stroke-dasharray="16,0" stroke-linecap="butt" stroke-linejoin="miter" stroke-opacity="0.15" stroke-width="0.7"/>
   <polyline fill="none" points="208,343.166 1448,343.166" stroke="#262626" stroke-dasharray="16,0" stroke-linecap="butt" stroke-linejoin="miter" stroke-opacity="0.15" stroke-width="0.7"/>
   <polyline fill="none" points="208,209.083 1448,209.083" stroke="#262626" stroke-dasharray="16,0" stroke-linecap="butt" stroke-linejoin="miter" stroke-opacity="0.15" stroke-width="0.7"/>
   <polyline fill="none" points="208,75 1448,75" stroke="#262626" stroke-dasharray="16,0" stroke-linecap="butt" stroke-linejoin="miter" stroke-opacity="0.15" stroke-width="0.7"/>
   <polyline fill="none" points="208,879.497 220.4,879.497" stroke="#262626" stroke-linecap="butt" stroke-linejoin="miter" stroke-width="0.7"/>
   <polyline fill="none" points="208,745.414 220.4,745.414" stroke="#262626" stroke-linecap="butt" stroke-linejoin="miter" stroke-width="0.7"/>
   <polyline fill="none" points="208,611.331 220.4,611.331" stroke="#262626" stroke-linecap="butt" stroke-linejoin="miter" stroke-width="0.7"/>
   <polyline fill="none" points="208,477.249 220.4,477.249" stroke="#262626" stroke-linecap="butt" stroke-linejoin="miter" stroke-width="0.7"/>
   <polyline fill="none" points="208,343.166 220.4,343.166" stroke="#262626" stroke-linecap="butt" stroke-linejoin="miter" stroke-width="0.7"/>
   <polyline fill="none" points="208,209.083 220.4,209.083" stroke="#262626" stroke-linecap="butt" stroke-linejoin="miter" stroke-width="0.7"/>
   <polyline fill="none" points="208,75 220.4,75" stroke="#262626" stroke-linecap="butt" stroke-linejoin="miter" stroke-width="0.7"/>
   <g font-family="'Noto Sans'" font-size="40.6709" font-style="normal" font-weight="normal" transform="translate(130.665,894.997) rotate(-0,57,-15.5)" xml:space="preserve">
    <text fill="rgb(38,38,38)" x="0 23 34 " y="-1">1.4</text>
   </g>
   <g font-family="'Noto Sans'" font-size="40.6709" font-style="normal" font-weight="normal" transform="translate(130.665,760.914) rotate(-0,57,-15.5)" xml:space="preserve">
    <text fill="rgb(38,38,38)" x="0 23 34 " y="-1">1.6</text>
   </g>
   <g font-family="'Noto Sans'" font-size="40.6709" font-style="normal" font-weight="normal" transform="translate(130.665,626.831) rotate(-0,57,-15.5)" xml:space="preserve">
    <text fill="rgb(38,38,38)" x="0 23 34 " y="-1">1.8</text>
   </g>
   <g font-family="'Noto Sans'" font-size="40.6709" font-style="normal" font-weight="normal" transform="translate(164.665,492.248) rotate(-0,23,-15)" xml:space="preserve">
    <text fill="rgb(38,38,38)" x="0 " y="-0">2</text>
   </g>
   <g font-family="'Noto Sans'" font-size="40.6709" font-style="normal" font-weight="normal" transform="translate(130.665,358.666) rotate(-0,57,-15.5)" xml:space="preserve">
    <text fill="rgb(38,38,38)" x="0 23 34 " y="-1">2.2</text>
   </g>
   <g font-family="'Noto Sans'" font-size="40.6709" font-style="normal" font-weight="normal" transform="translate(130.665,224.583) rotate(-0,57,-15.5)" xml:space="preserve">
    <text fill="rgb(38,38,38)" x="0 23 34 " y="-1">2.4</text>
   </g>
   <g font-family="'Noto Sans'" font-size="40.6709" font-style="normal" font-weight="normal" transform="translate(130.665,90.5) rotate(-0,57,-15.5)" xml:space="preserve">
    <text fill="rgb(38,38,38)" x="0 23 34 " y="-1">2.6</text>
   </g>
   <polyline fill="none" points="208,879.497 1448,879.497" stroke="#262626" stroke-dasharray="16,0" stroke-linecap="square" stroke-linejoin="miter" stroke-width="0.7"/>
   <polyline fill="none" points="208,879.497 208,75" stroke="#262626" stroke-dasharray="16,0" stroke-linecap="square" stroke-linejoin="miter" stroke-width="0.7"/>
   <g font-family="'Noto Sans'" font-size="44.7379" font-style="normal" font-weight="normal" transform="translate(787,1000.02) rotate(-0,41,-54)" xml:space="preserve">
    <text fill="rgb(38,38,38)" x="0 16 28 44 66 " y="-13">t (s)</text>
   </g>
   <g font-family="'Noto Sans'" font-size="44.7379" font-style="normal" font-weight="normal" transform="translate(24.6646,477.248) rotate(-90,101,0)" xml:space="preserve">
    <text fill="rgb(38,38,38)" x="0 27 46 64 92 114 131 143 159 186 " y="-13">V_{dc} (V)</text>
   </g>
   <g font-family="'Noto Sans'" font-size="44.7379" font-style="normal" font-weight="normal" transform="translate(661,65) rotate(-0,167,0)" xml:space="preserve">
    <text fill="rgb(0,0,0)" x="0 25 47 63 82 107 122 147 160 172 199 227 249 261 284 306 318 " y="-8">Est_EIS: Vdc vs t</text>
   </g>
   <polyline fill="none" points="208,771.788 218.333,662.31 228.667,646.923 239,638.986 249.333,633.709 259.667,629.982 270,626.744 280.333,623.928 290.667,621.83 301,619.751 311.333,618.156 321.667,616.661 332,615.26 342.333,614.066 352.667,612.994 363,611.941 373.333,611.043 383.667,610.064 394,609.253 404.333,608.609 414.667,607.725 425,606.859 435.333,606.471 445.667,605.72 456,605.144 466.333,604.654 476.667,604.151 487,603.581 497.333,603.219 507.667,602.649 518,602.368 528.333,601.845 538.667,601.429 549,601.235 559.333,600.685 569.667,600.33 580,600.155 590.333,599.767 600.667,599.324 611,599.23 621.333,598.875 631.667,598.54 642,598.285 652.333,598.084 662.667,597.91 673,597.621 683.333,597.299 693.667,597.186 704,596.917 714.333,596.683 724.667,596.569 735,596.267 745.333,596.053 755.667,595.972 766,595.751 776.333,595.577 786.667,595.429 797,595.167 807.333,595.087 817.667,594.953 828,594.718 838.333,594.711 848.667,594.511 859,594.296 869.333,594.303 879.667,594.055 890,593.894 900.333,593.874 910.667,593.686 921,593.572 931.333,593.451 941.667,593.284 952,593.257 962.333,593.036 972.667,592.875 983,592.888 993.333,592.721 1003.67,592.54 1014,592.58 1024.33,592.412 1034.67,592.245 1045,592.251 1055.33,592.083 1065.67,591.97 1076,591.882 1086.33,591.769 1096.67,591.775 1107,591.621 1117.33,591.494 1127.67,591.554 1138,591.353 1148.33,591.212 1158.67,591.259 1169,591.064 1179.33,590.911 1189.67,590.938 1200,590.709 1210.33,590.616 1220.67,590.602 1231,590.488 1241.33,590.455 1251.67,590.374 1262,590.193 1272.33,590.287 1282.67,590.059 1293,589.878 1303.33,589.985 1313.67,589.757 1324,589.644 1334.33,589.657 1344.67,589.623 1355,589.576 1365.33,589.556 1375.67,589.462 1386,589.449 1396.33,589.355 1406.67,589.254 1417,589.328 1427.33,589.181 1437.67,589.033 1448,589.134" stroke="#0071bc" stroke-linecap="butt" stroke-linejoin="round" stroke-width="0.7"/>
   <polygon fill="#0071bc" points="211.267,771.788 210.643,773.708 209.009,774.895 206.991,774.895 205.357,773.708 204.733,771.788 205.357,769.868 206.991,768.682 209.009,768.682 210.643,769.868" shape-rendering="crispEdges"/>
   <polygon fill="#0071bc" points="221.6,662.31 220.976,664.229 219.343,665.417 217.324,665.417 215.69,664.229 215.066,662.31 215.69,660.39 217.324,659.203 219.343,659.203 220.976,660.39" shape-rendering="crispEdges"/>
   <polygon fill="#0071bc" points="231.934,646.923 231.31,648.844 229.676,650.03 227.657,650.03 226.024,648.844 225.4,646.923 226.024,645.003 227.657,643.817 229.676,643.817 231.31,645.003" shape-rendering="crispEdges"/>
   <polygon fill="#0071bc" points="242.267,638.986 241.643,640.906 240.009,642.093 237.991,642.093 236.357,640.906 235.733,638.986 236.357,637.066 237.991,635.879 240.009,635.879 241.643,637.066" shape-rendering="crispEdges"/>
   <polygon fill="#0071bc" points="252.6,633.709 251.976,635.63 250.343,636.816 248.324,636.816 246.69,635.63 246.066,633.709 246.69,631.79 248.324,630.603 250.343,630.603 251.976,631.79" shape-rendering="crispEdges"/>
   <polygon fill="#0071bc" points="262.933,629.982 262.31,631.902 260.676,633.089 258.657,633.089 257.024,631.902 256.4,629.982 257.024,628.062 258.657,626.875 260.676,626.875 262.31,628.062" shape-rendering="crispEdges"/>
   <polygon fill="#0071bc" points="273.267,626.744 272.643,628.664 271.009,629.851 268.991,629.851 267.357,628.664 266.733,626.744 267.357,624.824 268.991,623.637 271.009,623.637 272.643,624.824" shape-rendering="crispEdges"/>
   <polygon fill="#0071bc" points="283.6,623.928 282.976,625.849 281.343,627.035 279.324,627.035 277.69,625.849 277.066,623.928 277.69,622.008 279.324,620.822 281.343,620.822 282.976,622.008" shape-rendering="crispEdges"/>
   <polygon fill="#0071bc" points="293.934,621.83 293.31,623.75 291.676,624.937 289.657,624.937 288.024,623.75 287.4,621.83 288.024,619.91 289.657,618.723 291.676,618.723 293.31,619.91" shape-rendering="crispEdges"/>
   <polygon fill="#0071bc" points="304.267,619.751 303.643,621.672 302.009,622.858 299.991,622.858 298.357,621.672 297.733,619.751 298.357,617.832 299.991,616.645 302.009,616.645 303.643,617.832" shape-rendering="crispEdges"/>
   <polygon fill="#0071bc" points="314.6,618.156 313.976,620.076 312.343,621.263 310.324,621.263 308.69,620.076 308.067,618.156 308.69,616.236 310.324,615.049 312.343,615.049 313.976,616.236" shape-rendering="crispEdges"/>
   <polygon fill="#0071bc" points="324.933,616.661 324.31,618.581 322.676,619.768 320.657,619.768 319.024,618.581 318.4,616.661 319.024,614.741 320.657,613.554 322.676,613.554 324.31,614.741" shape-rendering="crispEdges"/>
   <polygon fill="#0071bc" points="335.267,615.26 334.643,617.18 333.009,618.367 330.991,618.367 329.357,617.18 328.733,615.26 329.357,613.34 330.991,612.153 333.009,612.153 334.643,613.34" shape-rendering="crispEdges"/>
   <polygon fill="#0071bc" points="345.6,614.066 344.976,615.987 343.343,617.173 341.324,617.173 339.69,615.987 339.066,614.066 339.69,612.146 341.324,610.96 343.343,610.96 344.976,612.146" shape-rendering="crispEdges"/>
   <polygon fill="#0071bc" points="355.933,612.994 355.31,614.914 353.676,616.101 351.657,616.101 350.024,614.914 349.4,612.994 350.024,611.074 351.657,609.887 353.676,609.887 355.31,611.074" shape-rendering="crispEdges"/>
   <polygon fill="#0071bc" points="366.267,611.941 365.643,613.861 364.009,615.048 361.991,615.048 360.357,613.861 359.733,611.941 360.357,610.021 361.991,608.834 364.009,608.834 365.643,610.021" shape-rendering="crispEdges"/>
   <polygon fill="#0071bc" points="376.6,611.043 375.976,612.963 374.343,614.15 372.324,614.15 370.69,612.963 370.067,611.043 370.69,609.123 372.324,607.936 374.343,607.936 375.976,609.123" shape-rendering="crispEdges"/>
   <polygon fill="#0071bc" points="386.933,610.064 386.31,611.984 384.676,613.171 382.657,613.171 381.024,611.984 380.4,610.064 381.024,608.144 382.657,606.958 384.676,606.958 386.31,608.144" shape-rendering="crispEdges"/>
   <polygon fill="#0071bc" points="397.267,609.253 396.643,611.173 395.009,612.36 392.99,612.36 391.357,611.173 390.733,609.253 391.357,607.333 392.99,606.146 395.009,606.146 396.643,607.333" shape-rendering="crispEdges"/>
   <polygon fill="#0071bc" points="407.6,608.609 406.976,610.529 405.343,611.716 403.324,611.716 401.69,610.529 401.067,608.609 401.69,606.689 403.324,605.502 405.343,605.502 406.976,606.689" shape-rendering="crispEdges"/>
   <polygon fill="#0071bc" points="417.933,607.725 417.31,609.645 415.676,610.831 413.657,610.831 412.024,609.645 411.4,607.725 412.024,605.804 413.657,604.618 415.676,604.618 417.31,605.804" shape-rendering="crispEdges"/>
   <polygon fill="#0071bc" points="428.267,606.859 427.643,608.78 426.009,609.966 423.991,609.966 422.357,608.78 421.733,606.859 422.357,604.939 423.991,603.753 426.009,603.753 427.643,604.939" shape-rendering="crispEdges"/>
   <polygon fill="#0071bc" points="438.6,606.471 437.976,608.391 436.343,609.578 434.324,609.578 432.69,608.391 432.067,606.471 432.69,604.551 434.324,603.364 436.343,603.364 437.976,604.551" shape-rendering="crispEdges"/>
   <polygon fill="#0071bc" points="448.933,605.72 448.31,607.64 446.676,608.827 444.657,608.827 443.024,607.64 442.4,605.72 443.024,603.8 444.657,602.613 446.676,602.613 448.31,603.8" shape-rendering="crispEdges"/>
   <polygon fill="#0071bc" points="459.267,605.144 458.643,607.063 457.009,608.25 454.991,608.25 453.357,607.063 452.733,605.144 453.357,603.223 454.991,602.037 457.009,602.037 458.643,603.223" shape-rendering="crispEdges"/>
   <polygon fill="#0071bc" points="469.6,604.654 468.976,606.574 467.343,607.761 465.324,607.761 463.69,606.574 463.067,604.654 463.69,602.734 465.324,601.547 467.343,601.547 468.976,602.734" shape-rendering="crispEdges"/>
   <polygon fill="#0071bc" points="479.933,604.151 479.31,606.071 477.676,607.258 475.657,607.258 474.024,606.071 473.4,604.151 474.024,602.231 475.657,601.044 477.676,601.044 479.31,602.231" shape-rendering="crispEdges"/>
   <polygon fill="#0071bc" points="490.267,603.581 489.643,605.501 488.009,606.688 485.991,606.688 484.357,605.501 483.733,603.581 484.357,601.661 485.991,600.475 488.009,600.475 489.643,601.661" shape-rendering="crispEdges"/>
   <polygon fill="#0071bc" points="500.6,603.219 499.976,605.139 498.343,606.326 496.324,606.326 494.69,605.139 494.067,603.219 494.69,601.299 496.324,600.112 498.343,600.112 499.976,601.299" shape-rendering="crispEdges"/>
   <polygon fill="#0071bc" points="510.933,602.649 510.31,604.569 508.676,605.756 506.657,605.756 505.024,604.569 504.4,602.649 505.024,600.729 506.657,599.542 508.676,599.542 510.31,600.729" shape-rendering="crispEdges"/>
   <polygon fill="#0071bc" points="521.267,602.368 520.643,604.288 519.009,605.475 516.991,605.475 515.357,604.288 514.733,602.368 515.357,600.448 516.991,599.261 519.009,599.261 520.643,600.448" shape-rendering="crispEdges"/>
   <polygon fill="#0071bc" points="531.6,601.845 530.976,603.765 529.343,604.952 527.324,604.952 525.69,603.765 525.066,601.845 525.69,599.925 527.324,598.738 529.343,598.738 530.976,599.925" shape-rendering="crispEdges"/>
   <polygon fill="#0071bc" points="541.934,601.429 541.31,603.349 539.676,604.536 537.657,604.536 536.024,603.349 535.4,601.429 536.024,599.509 537.657,598.322 539.676,598.322 541.31,599.509" shape-rendering="crispEdges"/>
   <polygon fill="#0071bc" points="552.267,601.235 551.643,603.155 550.009,604.342 547.991,604.342 546.357,603.155 545.733,601.235 546.357,599.315 547.991,598.128 550.009,598.128 551.643,599.315" shape-rendering="crispEdges"/>
   <polygon fill="#0071bc" points="562.6,600.685 561.976,602.605 560.343,603.792 558.324,603.792 556.69,602.605 556.066,600.685 556.69,598.765 558.324,597.578 560.343,597.578 561.976,598.765" shape-rendering="crispEdges"/>
   <polygon fill="#0071bc" points="572.933,600.33 572.31,602.25 570.676,603.437 568.657,603.437 567.024,602.25 566.4,600.33 567.024,598.41 568.657,597.223 570.676,597.223 572.31,598.41" shape-rendering="crispEdges"/>
   <polygon fill="#0071bc" points="583.267,600.155 582.643,602.076 581.009,603.262 578.991,603.262 577.357,602.076 576.733,600.155 577.357,598.235 578.991,597.049 581.009,597.049 582.643,598.235" shape-rendering="crispEdges"/>
   <polygon fill="#0071bc" points="593.6,599.767 592.976,601.687 591.343,602.874 589.324,602.874 587.69,601.687 587.066,599.767 587.69,597.847 589.324,596.66 591.343,596.66 592.976,597.847" shape-rendering="crispEdges"/>
   <polygon fill="#0071bc" points="603.933,599.324 603.31,601.244 601.676,602.431 599.657,602.431 598.024,601.244 597.4,599.324 598.024,597.404 599.657,596.217 601.676,596.217 603.31,597.404" shape-rendering="crispEdges"/>
   <polygon fill="#0071bc" points="614.267,599.23 613.643,601.15 612.009,602.337 609.991,602.337 608.357,601.15 607.733,599.23 608.357,597.31 609.991,596.124 612.009,596.124 613.643,597.31" shape-rendering="crispEdges"/>
   <polygon fill="#0071bc" points="624.6,598.875 623.976,600.795 622.343,601.982 620.324,601.982 618.69,600.795 618.066,598.875 618.69,596.955 620.324,595.768 622.343,595.768 623.976,596.955" shape-rendering="crispEdges"/>
   <polygon fill="#0071bc" points="634.933,598.54 634.31,600.46 632.676,601.646 630.657,601.646 629.024,600.46 628.4,598.54 629.024,596.62 630.657,595.433 632.676,595.433 634.31,596.62" shape-rendering="crispEdges"/>
   <polygon fill="#0071bc" points="645.267,598.285 644.643,600.205 643.009,601.392 640.991,601.392 639.357,600.205 638.733,598.285 639.357,596.365 640.991,595.178 643.009,595.178 644.643,596.365" shape-rendering="crispEdges"/>
   <polygon fill="#0071bc" points="655.6,598.084 654.976,600.004 653.343,601.191 651.324,601.191 649.69,600.004 649.066,598.084 649.69,596.164 651.324,594.977 653.343,594.977 654.976,596.164" shape-rendering="crispEdges"/>
   <polygon fill="#0071bc" points="665.933,597.91 665.31,599.83 663.676,601.017 661.657,601.017 660.024,599.83 659.4,597.91 660.024,595.989 661.657,594.803 663.676,594.803 665.31,595.989" shape-rendering="crispEdges"/>
   <polygon fill="#0071bc" points="676.267,597.621 675.643,599.542 674.009,600.728 671.991,600.728 670.357,599.542 669.733,597.621 670.357,595.701 671.991,594.515 674.009,594.515 675.643,595.701" shape-rendering="crispEdges"/>
   <polygon fill="#0071bc" points="686.6,597.299 685.976,599.22 684.343,600.406 682.324,600.406 680.69,599.22 680.066,597.299 680.69,595.379 682.324,594.193 684.343,594.193 685.976,595.379" shape-rendering="crispEdges"/>
   <polygon fill="#0071bc" points="696.933,597.186 696.31,599.105 694.676,600.292 692.657,600.292 691.024,599.105 690.4,597.186 691.024,595.266 692.657,594.079 694.676,594.079 696.31,595.266" shape-rendering="crispEdges"/>
   <polygon fill="#0071bc" points="707.267,596.917 706.643,598.837 705.009,600.024 702.991,600.024 701.357,598.837 700.733,596.917 701.357,594.997 702.991,593.811 705.009,593.811 706.643,594.997" shape-rendering="crispEdges"/>
   <polygon fill="#0071bc" points="717.6,596.683 716.976,598.603 715.343,599.79 713.324,599.79 711.69,598.603 711.066,596.683 711.69,594.763 713.324,593.576 715.343,593.576 716.976,594.763" shape-rendering="crispEdges"/>
   <polygon fill="#0071bc" points="727.934,596.569 727.31,598.489 725.676,599.676 723.657,599.676 722.024,598.489 721.4,596.569 722.024,594.648 723.657,593.462 725.676,593.462 727.31,594.648" shape-rendering="crispEdges"/>
   <polygon fill="#0071bc" points="738.267,596.267 737.643,598.187 736.009,599.374 733.991,599.374 732.357,598.187 731.733,596.267 732.357,594.347 733.991,593.16 736.009,593.16 737.643,594.347" shape-rendering="crispEdges"/>
   <polygon fill="#0071bc" points="748.6,596.053 747.976,597.973 746.343,599.159 744.324,599.159 742.69,597.973 742.066,596.053 742.69,594.132 744.324,592.946 746.343,592.946 747.976,594.132" shape-rendering="crispEdges"/>
   <polygon fill="#0071bc" points="758.934,595.972 758.31,597.892 756.676,599.079 754.657,599.079 753.024,597.892 752.4,595.972 753.024,594.052 754.657,592.865 756.676,592.865 758.31,594.052" shape-rendering="crispEdges"/>
   <polygon fill="#0071bc" points="769.267,595.751 768.643,597.671 767.009,598.857 764.991,598.857 763.357,597.671 762.733,595.751 763.357,593.831 764.991,592.644 767.009,592.644 768.643,593.831" shape-rendering="crispEdges"/>
   <polygon fill="#0071bc" points="779.6,595.577 778.976,597.497 777.343,598.683 775.324,598.683 773.69,597.497 773.066,595.577 773.69,593.656 775.324,592.47 777.343,592.47 778.976,593.656" shape-rendering="crispEdges"/>
   <polygon fill="#0071bc" points="789.933,595.429 789.31,597.349 787.676,598.536 785.657,598.536 784.024,597.349 783.4,595.429 784.024,593.509 785.657,592.322 787.676,592.322 789.31,593.509" shape-rendering="crispEdges"/>
   <polygon fill="#0071bc" points="800.267,595.167 799.643,597.088 798.009,598.274 795.991,598.274 794.357,597.088 793.733,595.167 794.357,593.248 795.991,592.061 798.009,592.061 799.643,593.248" shape-rendering="crispEdges"/>
   <polygon fill="#0071bc" points="810.6,595.087 809.976,597.007 808.343,598.194 806.324,598.194 804.69,597.007 804.066,595.087 804.69,593.167 806.324,591.98 808.343,591.98 809.976,593.167" shape-rendering="crispEdges"/>
   <polygon fill="#0071bc" points="820.933,594.953 820.31,596.873 818.676,598.06 816.657,598.06 815.024,596.873 814.4,594.953 815.024,593.033 816.657,591.846 818.676,591.846 820.31,593.033" shape-rendering="crispEdges"/>
   <polygon fill="#0071bc" points="831.267,594.718 830.643,596.639 829.009,597.825 826.991,597.825 825.357,596.639 824.733,594.718 825.357,592.798 826.991,591.612 829.009,591.612 830.643,592.798" shape-rendering="crispEdges"/>
   <polygon fill="#0071bc" points="841.6,594.712 840.976,596.632 839.343,597.818 837.324,597.818 835.69,596.632 835.067,594.712 835.69,592.792 837.324,591.605 839.343,591.605 840.976,592.792" shape-rendering="crispEdges"/>
   <polygon fill="#0071bc" points="851.933,594.511 851.31,596.431 849.676,597.617 847.657,597.617 846.024,596.431 845.4,594.511 846.024,592.59 847.657,591.404 849.676,591.404 851.31,592.59" shape-rendering="crispEdges"/>
   <polygon fill="#0071bc" points="862.267,594.296 861.643,596.216 860.009,597.403 857.991,597.403 856.357,596.216 855.733,594.296 856.357,592.376 857.991,591.189 860.009,591.189 861.643,592.376" shape-rendering="crispEdges"/>
   <polygon fill="#0071bc" points="872.6,594.303 871.976,596.223 870.343,597.41 868.324,597.41 866.69,596.223 866.066,594.303 866.69,592.383 868.324,591.196 870.343,591.196 871.976,592.383" shape-rendering="crispEdges"/>
   <polygon fill="#0071bc" points="882.934,594.055 882.31,595.975 880.676,597.162 878.657,597.162 877.024,595.975 876.4,594.055 877.024,592.135 878.657,590.948 880.676,590.948 882.31,592.135" shape-rendering="crispEdges"/>
   <polygon fill="#0071bc" points="893.267,593.894 892.643,595.814 891.009,597 888.991,597 887.357,595.814 886.733,593.894 887.357,591.974 888.991,590.787 891.009,590.787 892.643,591.974" shape-rendering="crispEdges"/>
   <polygon fill="#0071bc" points="903.6,593.874 902.976,595.794 901.343,596.98 899.324,596.98 897.69,595.794 897.066,593.874 897.69,591.954 899.324,590.767 901.343,590.767 902.976,591.954" shape-rendering="crispEdges"/>
   <polygon fill="#0071bc" points="913.933,593.686 913.31,595.606 911.676,596.792 909.657,596.792 908.024,595.606 907.4,593.686 908.024,591.766 909.657,590.579 911.676,590.579 913.31,591.766" shape-rendering="crispEdges"/>
   <polygon fill="#0071bc" points="924.267,593.572 923.643,595.492 922.009,596.679 919.991,596.679 918.357,595.492 917.733,593.572 918.357,591.652 919.991,590.465 922.009,590.465 923.643,591.652" shape-rendering="crispEdges"/>
   <polygon fill="#0071bc" points="934.6,593.451 933.976,595.372 932.343,596.558 930.324,596.558 928.69,595.372 928.066,593.451 928.69,591.531 930.324,590.345 932.343,590.345 933.976,591.531" shape-rendering="crispEdges"/>
   <polygon fill="#0071bc" points="944.934,593.284 944.31,595.204 942.676,596.391 940.657,596.391 939.024,595.204 938.4,593.284 939.024,591.364 940.657,590.177 942.676,590.177 944.31,591.364" shape-rendering="crispEdges"/>
   <polygon fill="#0071bc" points="955.267,593.257 954.643,595.177 953.009,596.364 950.991,596.364 949.357,595.177 948.733,593.257 949.357,591.337 950.991,590.15 953.009,590.15 954.643,591.337" shape-rendering="crispEdges"/>
   <polygon fill="#0071bc" points="965.6,593.036 964.976,594.956 963.343,596.143 961.324,596.143 959.69,594.956 959.066,593.036 959.69,591.116 961.324,589.929 963.343,589.929 964.976,591.116" shape-rendering="crispEdges"/>
   <polygon fill="#0071bc" points="975.933,592.875 975.31,594.795 973.676,595.981 971.657,595.981 970.024,594.795 969.4,592.875 970.024,590.955 971.657,589.768 973.676,589.768 975.31,590.955" shape-rendering="crispEdges"/>
   <polygon fill="#0071bc" points="986.267,592.888 985.643,594.808 984.009,595.995 981.991,595.995 980.357,594.808 979.733,592.888 980.357,590.968 981.991,589.781 984.009,589.781 985.643,590.968" shape-rendering="crispEdges"/>
   <polygon fill="#0071bc" points="996.6,592.721 995.976,594.641 994.343,595.827 992.324,595.827 990.69,594.641 990.066,592.721 990.69,590.8 992.324,589.614 994.343,589.614 995.976,590.8" shape-rendering="crispEdges"/>
   <polygon fill="#0071bc" points="1006.93,592.54 1006.31,594.459 1004.68,595.646 1002.66,595.646 1001.02,594.459 1000.4,592.54 1001.02,590.62 1002.66,589.433 1004.68,589.433 1006.31,590.62" shape-rendering="crispEdges"/>
   <polygon fill="#0071bc" points="1017.27,592.58 1016.64,594.5 1015.01,595.687 1012.99,595.687 1011.36,594.5 1010.73,592.58 1011.36,590.66 1012.99,589.473 1015.01,589.473 1016.64,590.66" shape-rendering="crispEdges"/>
   <polygon fill="#0071bc" points="1027.6,592.412 1026.98,594.332 1025.34,595.519 1023.32,595.519 1021.69,594.332 1021.07,592.412 1021.69,590.492 1023.32,589.305 1025.34,589.305 1026.98,590.492" shape-rendering="crispEdges"/>
   <polygon fill="#0071bc" points="1037.93,592.245 1037.31,594.165 1035.68,595.352 1033.66,595.352 1032.02,594.165 1031.4,592.245 1032.02,590.325 1033.66,589.138 1035.68,589.138 1037.31,590.325" shape-rendering="crispEdges"/>
   <polygon fill="#0071bc" points="1048.27,592.251 1047.64,594.171 1046.01,595.358 1043.99,595.358 1042.36,594.171 1041.73,592.251 1042.36,590.331 1043.99,589.145 1046.01,589.145 1047.64,590.331" shape-rendering="crispEdges"/>
   <polygon fill="#0071bc" points="1058.6,592.083 1057.98,594.004 1056.34,595.19 1054.32,595.19 1052.69,594.004 1052.07,592.083 1052.69,590.164 1054.32,588.977 1056.34,588.977 1057.98,590.164" shape-rendering="crispEdges"/>
   <polygon fill="#0071bc" points="1068.93,591.97 1068.31,593.89 1066.68,595.077 1064.66,595.077 1063.02,593.89 1062.4,591.97 1063.02,590.05 1064.66,588.863 1066.68,588.863 1068.31,590.05" shape-rendering="crispEdges"/>
   <polygon fill="#0071bc" points="1079.27,591.882 1078.64,593.803 1077.01,594.989 1074.99,594.989 1073.36,593.803 1072.73,591.882 1073.36,589.962 1074.99,588.776 1077.01,588.776 1078.64,589.962" shape-rendering="crispEdges"/>
   <polygon fill="#0071bc" points="1089.6,591.769 1088.98,593.688 1087.34,594.875 1085.32,594.875 1083.69,593.688 1083.07,591.769 1083.69,589.849 1085.32,588.662 1087.34,588.662 1088.98,589.849" shape-rendering="crispEdges"/>
   <polygon fill="#0071bc" points="1099.93,591.775 1099.31,593.695 1097.68,594.882 1095.66,594.882 1094.02,593.695 1093.4,591.775 1094.02,589.855 1095.66,588.668 1097.68,588.668 1099.31,589.855" shape-rendering="crispEdges"/>
   <polygon fill="#0071bc" points="1110.27,591.621 1109.64,593.541 1108.01,594.728 1105.99,594.728 1104.36,593.541 1103.73,591.621 1104.36,589.701 1105.99,588.514 1108.01,588.514 1109.64,589.701" shape-rendering="crispEdges"/>
   <polygon fill="#0071bc" points="1120.6,591.494 1119.98,593.414 1118.34,594.601 1116.32,594.601 1114.69,593.414 1114.07,591.494 1114.69,589.574 1116.32,588.387 1118.34,588.387 1119.98,589.574" shape-rendering="crispEdges"/>
   <polygon fill="#0071bc" points="1130.93,591.554 1130.31,593.474 1128.68,594.661 1126.66,594.661 1125.02,593.474 1124.4,591.554 1125.02,589.634 1126.66,588.447 1128.68,588.447 1130.31,589.634" shape-rendering="crispEdges"/>
   <polygon fill="#0071bc" points="1141.27,591.353 1140.64,593.273 1139.01,594.46 1136.99,594.46 1135.36,593.273 1134.73,591.353 1135.36,589.433 1136.99,588.246 1139.01,588.246 1140.64,589.433" shape-rendering="crispEdges"/>
   <polygon fill="#0071bc" points="1151.6,591.212 1150.98,593.132 1149.34,594.319 1147.32,594.319 1145.69,593.132 1145.07,591.212 1145.69,589.292 1147.32,588.105 1149.34,588.105 1150.98,589.292" shape-rendering="crispEdges"/>
   <polygon fill="#0071bc" points="1161.93,591.259 1161.31,593.179 1159.68,594.366 1157.66,594.366 1156.02,593.179 1155.4,591.259 1156.02,589.339 1157.66,588.152 1159.68,588.152 1161.31,589.339" shape-rendering="crispEdges"/>
   <polygon fill="#0071bc" points="1172.27,591.064 1171.64,592.985 1170.01,594.171 1167.99,594.171 1166.36,592.985 1165.73,591.064 1166.36,589.145 1167.99,587.958 1170.01,587.958 1171.64,589.145" shape-rendering="crispEdges"/>
   <polygon fill="#0071bc" points="1182.6,590.911 1181.98,592.831 1180.34,594.017 1178.32,594.017 1176.69,592.831 1176.07,590.911 1176.69,588.99 1178.32,587.804 1180.34,587.804 1181.98,588.99" shape-rendering="crispEdges"/>
   <polygon fill="#0071bc" points="1192.93,590.938 1192.31,592.857 1190.68,594.044 1188.66,594.044 1187.02,592.857 1186.4,590.938 1187.02,589.017 1188.66,587.831 1190.68,587.831 1192.31,589.017" shape-rendering="crispEdges"/>
   <polygon fill="#0071bc" points="1203.27,590.709 1202.64,592.629 1201.01,593.816 1198.99,593.816 1197.36,592.629 1196.73,590.709 1197.36,588.789 1198.99,587.603 1201.01,587.603 1202.64,588.789" shape-rendering="crispEdges"/>
   <polygon fill="#0071bc" points="1213.6,590.615 1212.98,592.536 1211.34,593.722 1209.32,593.722 1207.69,592.536 1207.07,590.615 1207.69,588.695 1209.32,587.509 1211.34,587.509 1212.98,588.695" shape-rendering="crispEdges"/>
   <polygon fill="#0071bc" points="1223.93,590.602 1223.31,592.522 1221.68,593.709 1219.66,593.709 1218.02,592.522 1217.4,590.602 1218.02,588.682 1219.66,587.495 1221.68,587.495 1223.31,588.682" shape-rendering="crispEdges"/>
   <polygon fill="#0071bc" points="1234.27,590.488 1233.64,592.408 1232.01,593.595 1229.99,593.595 1228.36,592.408 1227.73,590.488 1228.36,588.568 1229.99,587.381 1232.01,587.381 1233.64,588.568" shape-rendering="crispEdges"/>
   <polygon fill="#0071bc" points="1244.6,590.455 1243.98,592.375 1242.34,593.562 1240.32,593.562 1238.69,592.375 1238.07,590.455 1238.69,588.535 1240.32,587.348 1242.34,587.348 1243.98,588.535" shape-rendering="crispEdges"/>
   <polygon fill="#0071bc" points="1254.93,590.374 1254.31,592.294 1252.68,593.481 1250.66,593.481 1249.02,592.294 1248.4,590.374 1249.02,588.454 1250.66,587.267 1252.68,587.267 1254.31,588.454" shape-rendering="crispEdges"/>
   <polygon fill="#0071bc" points="1265.27,590.193 1264.64,592.113 1263.01,593.3 1260.99,593.3 1259.36,592.113 1258.73,590.193 1259.36,588.273 1260.99,587.086 1263.01,587.086 1264.64,588.273" shape-rendering="crispEdges"/>
   <polygon fill="#0071bc" points="1275.6,590.287 1274.98,592.207 1273.34,593.394 1271.32,593.394 1269.69,592.207 1269.07,590.287 1269.69,588.367 1271.32,587.18 1273.34,587.18 1274.98,588.367" shape-rendering="crispEdges"/>
   <polygon fill="#0071bc" points="1285.93,590.059 1285.31,591.979 1283.68,593.166 1281.66,593.166 1280.02,591.979 1279.4,590.059 1280.02,588.139 1281.66,586.952 1283.68,586.952 1285.31,588.139" shape-rendering="crispEdges"/>
   <polygon fill="#0071bc" points="1296.27,589.878 1295.64,591.798 1294.01,592.985 1291.99,592.985 1290.36,591.798 1289.73,589.878 1290.36,587.958 1291.99,586.771 1294.01,586.771 1295.64,587.958" shape-rendering="crispEdges"/>
   <polygon fill="#0071bc" points="1306.6,589.985 1305.98,591.905 1304.34,593.092 1302.32,593.092 1300.69,591.905 1300.07,589.985 1300.69,588.065 1302.32,586.878 1304.34,586.878 1305.98,588.065" shape-rendering="crispEdges"/>
   <polygon fill="#0071bc" points="1316.93,589.757 1316.31,591.677 1314.68,592.864 1312.66,592.864 1311.02,591.677 1310.4,589.757 1311.02,587.837 1312.66,586.65 1314.68,586.65 1316.31,587.837" shape-rendering="crispEdges"/>
   <polygon fill="#0071bc" points="1327.27,589.644 1326.64,591.563 1325.01,592.75 1322.99,592.75 1321.36,591.563 1320.73,589.644 1321.36,587.723 1322.99,586.537 1325.01,586.537 1326.64,587.723" shape-rendering="crispEdges"/>
   <polygon fill="#0071bc" points="1337.6,589.657 1336.98,591.577 1335.34,592.764 1333.32,592.764 1331.69,591.577 1331.07,589.657 1331.69,587.737 1333.32,586.55 1335.34,586.55 1336.98,587.737" shape-rendering="crispEdges"/>
   <polygon fill="#0071bc" points="1347.93,589.623 1347.31,591.543 1345.68,592.73 1343.66,592.73 1342.02,591.543 1341.4,589.623 1342.02,587.703 1343.66,586.517 1345.68,586.517 1347.31,587.703" shape-rendering="crispEdges"/>
   <polygon fill="#0071bc" points="1358.27,589.576 1357.64,591.497 1356.01,592.683 1353.99,592.683 1352.36,591.497 1351.73,589.576 1352.36,587.656 1353.99,586.47 1356.01,586.47 1357.64,587.656" shape-rendering="crispEdges"/>
   <polygon fill="#0071bc" points="1368.6,589.556 1367.98,591.476 1366.34,592.663 1364.32,592.663 1362.69,591.476 1362.07,589.556 1362.69,587.636 1364.32,586.449 1366.34,586.449 1367.98,587.636" shape-rendering="crispEdges"/>
   <polygon fill="#0071bc" points="1378.93,589.462 1378.31,591.382 1376.68,592.569 1374.66,592.569 1373.02,591.382 1372.4,589.462 1373.02,587.542 1374.66,586.355 1376.68,586.355 1378.31,587.542" shape-rendering="crispEdges"/>
   <polygon fill="#0071bc" points="1389.27,589.449 1388.64,591.369 1387.01,592.556 1384.99,592.556 1383.36,591.369 1382.73,589.449 1383.36,587.529 1384.99,586.342 1387.01,586.342 1388.64,587.529" shape-rendering="crispEdges"/>
   <polygon fill="#0071bc" points="1399.6,589.355 1398.98,591.275 1397.34,592.462 1395.32,592.462 1393.69,591.275 1393.07,589.355 1393.69,587.435 1395.32,586.248 1397.34,586.248 1398.98,587.435" shape-rendering="crispEdges"/>
   <polygon fill="#0071bc" points="1409.93,589.254 1409.31,591.175 1407.68,592.361 1405.66,592.361 1404.02,591.175 1403.4,589.254 1404.02,587.334 1405.66,586.148 1407.68,586.148 1409.31,587.334" shape-rendering="crispEdges"/>
   <polygon fill="#0071bc" points="1420.27,589.328 1419.64,591.249 1418.01,592.435 1415.99,592.435 1414.36,591.249 1413.73,589.328 1414.36,587.408 1415.99,586.222 1418.01,586.222 1419.64,587.408" shape-rendering="crispEdges"/>
   <polygon fill="#0071bc" points="1430.6,589.181 1429.98,591.101 1428.34,592.288 1426.32,592.288 1424.69,591.101 1424.07,589.181 1424.69,587.261 1426.32,586.074 1428.34,586.074 1429.98,587.261" shape-rendering="crispEdges"/>
   <polygon fill="#0071bc" points="1440.93,589.033 1440.31,590.954 1438.68,592.14 1436.66,592.14 1435.02,590.954 1434.4,589.033 1435.02,587.113 1436.66,585.927 1438.68,585.927 1440.31,587.113" shape-rendering="crispEdges"/>
   <polygon fill="#0071bc" points="1451.27,589.134 1450.64,591.054 1449.01,592.241 1446.99,592.241 1445.36,591.054 1444.73,589.134 1445.36,587.214 1446.99,586.027 1449.01,586.027 1450.64,587.214" shape-rendering="crispEdges"/>
   <polyline fill="none" points="208,235.819 218.333,199.114 228.667,180.838 239,172.284 249.333,167.946 259.667,165.526 270,164.326 280.333,163.475 290.667,163.401 301,163.461 311.333,163.636 321.667,164.011 332,164.855 342.333,165.472 352.667,166.491 363,167.544 373.333,168.396 383.667,169.508 394,170.614 404.333,171.52 414.667,172.78 425,173.759 435.333,174.932 445.667,176.306 456,177.366 466.333,178.519 476.667,179.833 487,180.838 497.333,182.166 507.667,183.359 518,184.291 528.333,185.564 538.667,186.678 549,187.65 559.333,188.997 569.667,189.896 580,190.901 590.333,192.162 600.667,192.859 611,194.133 621.333,195.379 631.667,196.278 642,197.257 652.333,198.222 662.667,199.04 673,200.039 683.333,200.897 693.667,201.695 704,202.627 714.333,203.404 724.667,204.021 735,205.268 745.333,205.63 755.667,206.448 766,207.326 776.333,207.735 786.667,208.613 797,209.525 807.333,209.9 817.667,210.873 828,211.215 838.333,211.952 848.667,212.636 859,213.112 869.333,213.802 879.667,214.473 890,214.936 900.333,215.733 910.667,216.176 921,216.551 931.333,217.242 941.667,217.785 952,218.113 962.333,218.683 972.667,219.213 983,219.501 993.333,220.098 1003.67,220.493 1014,220.734 1024.33,221.418 1034.67,221.7 1045,222.109 1055.33,222.652 1065.67,222.779 1076,223.175 1086.33,223.765 1096.67,223.838 1107,224.368 1117.33,224.73 1127.67,224.918 1138,225.548 1148.33,225.776 1158.67,225.971 1169,226.587 1179.33,226.802 1189.67,227.057 1200,227.54 1210.33,227.626 1220.67,228.016 1231,228.203 1241.33,228.236 1251.67,228.894 1262,229.135 1272.33,229.222 1282.67,229.792 1293,229.979 1303.33,230.147 1313.67,230.543 1324,230.65 1334.33,230.958 1344.67,231.34 1355,231.388 1365.33,231.676 1375.67,232.044 1386,231.944 1396.33,232.373 1406.67,232.541 1417,232.775 1427.33,233.164 1437.67,233.312 1448,233.553" stroke="#d85218" stroke-linecap="butt" stroke-linejoin="round" stroke-width="0.7"/>
   <polygon fill="#d85218" points="211.267,235.819 210.643,237.739 209.009,238.926 206.991,238.926 205.357,237.739 204.733,235.819 205.357,233.899 206.991,232.712 209.009,232.712 210.643,233.899" shape-rendering="crispEdges"/>
   <polygon fill="#d85218" points="221.6,199.114 220.976,201.034 219.343,202.221 217.324,202.221 215.69,201.034 215.066,199.114 215.69,197.194 217.324,196.007 219.343,196.007 220.976,197.194" shape-rendering="crispEdges"/>
   <polygon fill="#d85218" points="231.934,180.838 231.31,182.758 229.676,183.945 227.657,183.945 226.024,182.758 225.4,180.838 226.024,178.918 227.657,177.731 229.676,177.731 231.31,178.918" shape-rendering="crispEdges"/>
   <polygon fill="#d85218" points="242.267,172.284 241.643,174.204 240.009,175.391 237.991,175.391 236.357,174.204 235.733,172.284 236.357,170.364 237.991,169.177 240.009,169.177 241.643,170.364" shape-rendering="crispEdges"/>
   <polygon fill="#d85218" points="252.6,167.946 251.976,169.866 250.343,171.053 248.324,171.053 246.69,169.866 246.066,167.946 246.69,166.026 248.324,164.839 250.343,164.839 251.976,166.026" shape-rendering="crispEdges"/>
   <polygon fill="#d85218" points="262.933,165.526 262.31,167.446 260.676,168.633 258.657,168.633 257.024,167.446 256.4,165.526 257.024,163.606 258.657,162.419 260.676,162.419 262.31,163.606" shape-rendering="crispEdges"/>
   <polygon fill="#d85218" points="273.267,164.326 272.643,166.246 271.009,167.433 268.991,167.433 267.357,166.246 266.733,164.326 267.357,162.406 268.991,161.219 271.009,161.219 272.643,162.406" shape-rendering="crispEdges"/>
   <polygon fill="#d85218" points="283.6,163.475 282.976,165.395 281.343,166.582 279.324,166.582 277.69,165.395 277.066,163.475 277.69,161.555 279.324,160.368 281.343,160.368 282.976,161.555" shape-rendering="crispEdges"/>
   <polygon fill="#d85218" points="293.934,163.401 293.31,165.321 291.676,166.508 289.657,166.508 288.024,165.321 287.4,163.401 288.024,161.48 289.657,160.294 291.676,160.294 293.31,161.48" shape-rendering="crispEdges"/>
   <polygon fill="#d85218" points="304.267,163.461 303.643,165.381 302.009,166.568 299.991,166.568 298.357,165.381 297.733,163.461 298.357,161.541 299.991,160.354 302.009,160.354 303.643,161.541" shape-rendering="crispEdges"/>
   <polygon fill="#d85218" points="314.6,163.635 313.976,165.556 312.343,166.742 310.324,166.742 308.69,165.556 308.067,163.635 308.69,161.715 310.324,160.529 312.343,160.529 313.976,161.715" shape-rendering="crispEdges"/>
   <polygon fill="#d85218" points="324.933,164.011 324.31,165.931 322.676,167.118 320.657,167.118 319.024,165.931 318.4,164.011 319.024,162.091 320.657,160.904 322.676,160.904 324.31,162.091" shape-rendering="crispEdges"/>
   <polygon fill="#d85218" points="335.267,164.855 334.643,166.776 333.009,167.962 330.991,167.962 329.357,166.776 328.733,164.855 329.357,162.936 330.991,161.749 333.009,161.749 334.643,162.936" shape-rendering="crispEdges"/>
   <polygon fill="#d85218" points="345.6,165.472 344.976,167.393 343.343,168.579 341.324,168.579 339.69,167.393 339.066,165.472 339.69,163.552 341.324,162.366 343.343,162.366 344.976,163.552" shape-rendering="crispEdges"/>
   <polygon fill="#d85218" points="355.933,166.491 355.31,168.412 353.676,169.598 351.657,169.598 350.024,168.412 349.4,166.491 350.024,164.571 351.657,163.385 353.676,163.385 355.31,164.571" shape-rendering="crispEdges"/>
   <polygon fill="#d85218" points="366.267,167.544 365.643,169.464 364.009,170.651 361.991,170.651 360.357,169.464 359.733,167.544 360.357,165.624 361.991,164.437 364.009,164.437 365.643,165.624" shape-rendering="crispEdges"/>
   <polygon fill="#d85218" points="376.6,168.396 375.976,170.315 374.343,171.502 372.324,171.502 370.69,170.315 370.067,168.396 370.69,166.475 372.324,165.289 374.343,165.289 375.976,166.475" shape-rendering="crispEdges"/>
   <polygon fill="#d85218" points="386.933,169.508 386.31,171.428 384.676,172.615 382.657,172.615 381.024,171.428 380.4,169.508 381.024,167.588 382.657,166.401 384.676,166.401 386.31,167.588" shape-rendering="crispEdges"/>
   <polygon fill="#d85218" points="397.267,170.614 396.643,172.535 395.009,173.721 392.99,173.721 391.357,172.535 390.733,170.614 391.357,168.694 392.99,167.508 395.009,167.508 396.643,168.694" shape-rendering="crispEdges"/>
   <polygon fill="#d85218" points="407.6,171.52 406.976,173.439 405.343,174.626 403.324,174.626 401.69,173.439 401.067,171.52 401.69,169.6 403.324,168.413 405.343,168.413 406.976,169.6" shape-rendering="crispEdges"/>
   <polygon fill="#d85218" points="417.933,172.78 417.31,174.7 415.676,175.887 413.657,175.887 412.024,174.7 411.4,172.78 412.024,170.86 413.657,169.673 415.676,169.673 417.31,170.86" shape-rendering="crispEdges"/>
   <polygon fill="#d85218" points="428.267,173.759 427.643,175.679 426.009,176.865 423.991,176.865 422.357,175.679 421.733,173.759 422.357,171.838 423.991,170.652 426.009,170.652 427.643,171.838" shape-rendering="crispEdges"/>
   <polygon fill="#d85218" points="438.6,174.932 437.976,176.852 436.343,178.039 434.324,178.039 432.69,176.852 432.067,174.932 432.69,173.012 434.324,171.825 436.343,171.825 437.976,173.012" shape-rendering="crispEdges"/>
   <polygon fill="#d85218" points="448.933,176.306 448.31,178.227 446.676,179.413 444.657,179.413 443.024,178.227 442.4,176.306 443.024,174.386 444.657,173.199 446.676,173.199 448.31,174.386" shape-rendering="crispEdges"/>
   <polygon fill="#d85218" points="459.267,177.366 458.643,179.286 457.009,180.472 454.991,180.472 453.357,179.286 452.733,177.366 453.357,175.445 454.991,174.259 457.009,174.259 458.643,175.445" shape-rendering="crispEdges"/>
   <polygon fill="#d85218" points="469.6,178.519 468.976,180.439 467.343,181.625 465.324,181.625 463.69,180.439 463.067,178.519 463.69,176.599 465.324,175.412 467.343,175.412 468.976,176.599" shape-rendering="crispEdges"/>
   <polygon fill="#d85218" points="479.933,179.833 479.31,181.753 477.676,182.939 475.657,182.939 474.024,181.753 473.4,179.833 474.024,177.913 475.657,176.726 477.676,176.726 479.31,177.913" shape-rendering="crispEdges"/>
   <polygon fill="#d85218" points="490.267,180.838 489.643,182.758 488.009,183.945 485.991,183.945 484.357,182.758 483.733,180.838 484.357,178.918 485.991,177.731 488.009,177.731 489.643,178.918" shape-rendering="crispEdges"/>
   <polygon fill="#d85218" points="500.6,182.166 499.976,184.086 498.343,185.272 496.324,185.272 494.69,184.086 494.067,182.166 494.69,180.246 496.324,179.059 498.343,179.059 499.976,180.246" shape-rendering="crispEdges"/>
   <polygon fill="#d85218" points="510.933,183.359 510.31,185.279 508.676,186.466 506.657,186.466 505.024,185.279 504.4,183.359 505.024,181.439 506.657,180.252 508.676,180.252 510.31,181.439" shape-rendering="crispEdges"/>
   <polygon fill="#d85218" points="521.267,184.291 520.643,186.211 519.009,187.397 516.991,187.397 515.357,186.211 514.733,184.291 515.357,182.371 516.991,181.184 519.009,181.184 520.643,182.371" shape-rendering="crispEdges"/>
   <polygon fill="#d85218" points="531.6,185.564 530.976,187.485 529.343,188.671 527.324,188.671 525.69,187.485 525.066,185.564 525.69,183.645 527.324,182.458 529.343,182.458 530.976,183.645" shape-rendering="crispEdges"/>
   <polygon fill="#d85218" points="541.934,186.678 541.31,188.598 539.676,189.784 537.657,189.784 536.024,188.598 535.4,186.678 536.024,184.757 537.657,183.571 539.676,183.571 541.31,184.757" shape-rendering="crispEdges"/>
   <polygon fill="#d85218" points="552.267,187.649 551.643,189.57 550.009,190.756 547.991,190.756 546.357,189.57 545.733,187.649 546.357,185.729 547.991,184.543 550.009,184.543 551.643,185.729" shape-rendering="crispEdges"/>
   <polygon fill="#d85218" points="562.6,188.997 561.976,190.917 560.343,192.104 558.324,192.104 556.69,190.917 556.066,188.997 556.69,187.077 558.324,185.891 560.343,185.891 561.976,187.077" shape-rendering="crispEdges"/>
   <polygon fill="#d85218" points="572.933,189.896 572.31,191.815 570.676,193.002 568.657,193.002 567.024,191.815 566.4,189.896 567.024,187.976 568.657,186.789 570.676,186.789 572.31,187.976" shape-rendering="crispEdges"/>
   <polygon fill="#d85218" points="583.267,190.901 582.643,192.821 581.009,194.008 578.991,194.008 577.357,192.821 576.733,190.901 577.357,188.981 578.991,187.794 581.009,187.794 582.643,188.981" shape-rendering="crispEdges"/>
   <polygon fill="#d85218" points="593.6,192.162 592.976,194.082 591.343,195.269 589.324,195.269 587.69,194.082 587.066,192.162 587.69,190.241 589.324,189.055 591.343,189.055 592.976,190.241" shape-rendering="crispEdges"/>
   <polygon fill="#d85218" points="603.933,192.859 603.31,194.779 601.676,195.966 599.657,195.966 598.024,194.779 597.4,192.859 598.024,190.938 599.657,189.752 601.676,189.752 603.31,190.938" shape-rendering="crispEdges"/>
   <polygon fill="#d85218" points="614.267,194.133 613.643,196.053 612.009,197.239 609.991,197.239 608.357,196.053 607.733,194.133 608.357,192.212 609.991,191.026 612.009,191.026 613.643,192.212" shape-rendering="crispEdges"/>
   <polygon fill="#d85218" points="624.6,195.379 623.976,197.3 622.343,198.486 620.324,198.486 618.69,197.3 618.066,195.379 618.69,193.459 620.324,192.273 622.343,192.273 623.976,193.459" shape-rendering="crispEdges"/>
   <polygon fill="#d85218" points="634.933,196.278 634.31,198.198 632.676,199.385 630.657,199.385 629.024,198.198 628.4,196.278 629.024,194.358 630.657,193.171 632.676,193.171 634.31,194.358" shape-rendering="crispEdges"/>
   <polygon fill="#d85218" points="645.267,197.257 644.643,199.177 643.009,200.363 640.991,200.363 639.357,199.177 638.733,197.257 639.357,195.336 640.991,194.15 643.009,194.15 644.643,195.336" shape-rendering="crispEdges"/>
   <polygon fill="#d85218" points="655.6,198.222 654.976,200.142 653.343,201.329 651.324,201.329 649.69,200.142 649.066,198.222 649.69,196.302 651.324,195.115 653.343,195.115 654.976,196.302" shape-rendering="crispEdges"/>
   <polygon fill="#d85218" points="665.933,199.04 665.31,200.96 663.676,202.147 661.657,202.147 660.024,200.96 659.4,199.04 660.024,197.12 661.657,195.933 663.676,195.933 665.31,197.12" shape-rendering="crispEdges"/>
   <polygon fill="#d85218" points="676.267,200.039 675.643,201.959 674.009,203.146 671.991,203.146 670.357,201.959 669.733,200.039 670.357,198.119 671.991,196.932 674.009,196.932 675.643,198.119" shape-rendering="crispEdges"/>
   <polygon fill="#d85218" points="686.6,200.897 685.976,202.817 684.343,204.004 682.324,204.004 680.69,202.817 680.066,200.897 680.69,198.977 682.324,197.79 684.343,197.79 685.976,198.977" shape-rendering="crispEdges"/>
   <polygon fill="#d85218" points="696.933,201.695 696.31,203.615 694.676,204.802 692.657,204.802 691.024,203.615 690.4,201.695 691.024,199.775 692.657,198.588 694.676,198.588 696.31,199.775" shape-rendering="crispEdges"/>
   <polygon fill="#d85218" points="707.267,202.627 706.643,204.547 705.009,205.733 702.991,205.733 701.357,204.547 700.733,202.627 701.357,200.707 702.991,199.52 705.009,199.52 706.643,200.707" shape-rendering="crispEdges"/>
   <polygon fill="#d85218" points="717.6,203.404 716.976,205.325 715.343,206.511 713.324,206.511 711.69,205.325 711.066,203.404 711.69,201.484 713.324,200.298 715.343,200.298 716.976,201.484" shape-rendering="crispEdges"/>
   <polygon fill="#d85218" points="727.934,204.021 727.31,205.941 725.676,207.128 723.657,207.128 722.024,205.941 721.4,204.021 722.024,202.101 723.657,200.915 725.676,200.915 727.31,202.101" shape-rendering="crispEdges"/>
   <polygon fill="#d85218" points="738.267,205.268 737.643,207.188 736.009,208.375 733.991,208.375 732.357,207.188 731.733,205.268 732.357,203.348 733.991,202.162 736.009,202.162 737.643,203.348" shape-rendering="crispEdges"/>
   <polygon fill="#d85218" points="748.6,205.63 747.976,207.55 746.343,208.737 744.324,208.737 742.69,207.55 742.066,205.63 742.69,203.71 744.324,202.523 746.343,202.523 747.976,203.71" shape-rendering="crispEdges"/>
   <polygon fill="#d85218" points="758.934,206.448 758.31,208.368 756.676,209.555 754.657,209.555 753.024,208.368 752.4,206.448 753.024,204.528 754.657,203.341 756.676,203.341 758.31,204.528" shape-rendering="crispEdges"/>
   <polygon fill="#d85218" points="769.267,207.326 768.643,209.247 767.009,210.433 764.991,210.433 763.357,209.247 762.733,207.326 763.357,205.406 764.991,204.22 767.009,204.22 768.643,205.406" shape-rendering="crispEdges"/>
   <polygon fill="#d85218" points="779.6,207.735 778.976,209.655 777.343,210.842 775.324,210.842 773.69,209.655 773.066,207.735 773.69,205.815 775.324,204.628 777.343,204.628 778.976,205.815" shape-rendering="crispEdges"/>
   <polygon fill="#d85218" points="789.933,208.613 789.31,210.534 787.676,211.72 785.657,211.72 784.024,210.534 783.4,208.613 784.024,206.693 785.657,205.507 787.676,205.507 789.31,206.693" shape-rendering="crispEdges"/>
   <polygon fill="#d85218" points="800.267,209.525 799.643,211.445 798.009,212.632 795.991,212.632 794.357,211.445 793.733,209.525 794.357,207.605 795.991,206.418 798.009,206.418 799.643,207.605" shape-rendering="crispEdges"/>
   <polygon fill="#d85218" points="810.6,209.901 809.976,211.821 808.343,213.007 806.324,213.007 804.69,211.821 804.066,209.901 804.69,207.98 806.324,206.794 808.343,206.794 809.976,207.98" shape-rendering="crispEdges"/>
   <polygon fill="#d85218" points="820.933,210.873 820.31,212.793 818.676,213.979 816.657,213.979 815.024,212.793 814.4,210.873 815.024,208.953 816.657,207.766 818.676,207.766 820.31,208.953" shape-rendering="crispEdges"/>
   <polygon fill="#d85218" points="831.267,211.215 830.643,213.135 829.009,214.321 826.991,214.321 825.357,213.135 824.733,211.215 825.357,209.294 826.991,208.108 829.009,208.108 830.643,209.294" shape-rendering="crispEdges"/>
   <polygon fill="#d85218" points="841.6,211.952 840.976,213.872 839.343,215.059 837.324,215.059 835.69,213.872 835.067,211.952 835.69,210.032 837.324,208.845 839.343,208.845 840.976,210.032" shape-rendering="crispEdges"/>
   <polygon fill="#d85218" points="851.933,212.636 851.31,214.556 849.676,215.743 847.657,215.743 846.024,214.556 845.4,212.636 846.024,210.716 847.657,209.529 849.676,209.529 851.31,210.716" shape-rendering="crispEdges"/>
   <polygon fill="#d85218" points="862.267,213.112 861.643,215.032 860.009,216.219 857.991,216.219 856.357,215.032 855.733,213.112 856.357,211.192 857.991,210.005 860.009,210.005 861.643,211.192" shape-rendering="crispEdges"/>
   <polygon fill="#d85218" points="872.6,213.803 871.976,215.723 870.343,216.909 868.324,216.909 866.69,215.723 866.066,213.803 866.69,211.882 868.324,210.696 870.343,210.696 871.976,211.882" shape-rendering="crispEdges"/>
   <polygon fill="#d85218" points="882.934,214.473 882.31,216.393 880.676,217.58 878.657,217.58 877.024,216.393 876.4,214.473 877.024,212.553 878.657,211.366 880.676,211.366 882.31,212.553" shape-rendering="crispEdges"/>
   <polygon fill="#d85218" points="893.267,214.936 892.643,216.855 891.009,218.042 888.991,218.042 887.357,216.855 886.733,214.936 887.357,213.016 888.991,211.829 891.009,211.829 892.643,213.016" shape-rendering="crispEdges"/>
   <polygon fill="#d85218" points="903.6,215.733 902.976,217.653 901.343,218.84 899.324,218.84 897.69,217.653 897.066,215.733 897.69,213.813 899.324,212.626 901.343,212.626 902.976,213.813" shape-rendering="crispEdges"/>
   <polygon fill="#d85218" points="913.933,216.176 913.31,218.096 911.676,219.283 909.657,219.283 908.024,218.096 907.4,216.176 908.024,214.256 909.657,213.069 911.676,213.069 913.31,214.256" shape-rendering="crispEdges"/>
   <polygon fill="#d85218" points="924.267,216.551 923.643,218.471 922.009,219.658 919.991,219.658 918.357,218.471 917.733,216.551 918.357,214.631 919.991,213.444 922.009,213.444 923.643,214.631" shape-rendering="crispEdges"/>
   <polygon fill="#d85218" points="934.6,217.242 933.976,219.162 932.343,220.349 930.324,220.349 928.69,219.162 928.066,217.242 928.69,215.322 930.324,214.135 932.343,214.135 933.976,215.322" shape-rendering="crispEdges"/>
   <polygon fill="#d85218" points="944.934,217.785 944.31,219.705 942.676,220.892 940.657,220.892 939.024,219.705 938.4,217.785 939.024,215.865 940.657,214.678 942.676,214.678 944.31,215.865" shape-rendering="crispEdges"/>
   <polygon fill="#d85218" points="955.267,218.113 954.643,220.033 953.009,221.22 950.991,221.22 949.357,220.033 948.733,218.113 949.357,216.193 950.991,215.006 953.009,215.006 954.643,216.193" shape-rendering="crispEdges"/>
   <polygon fill="#d85218" points="965.6,218.683 964.976,220.604 963.343,221.79 961.324,221.79 959.69,220.604 959.066,218.683 959.69,216.763 961.324,215.576 963.343,215.576 964.976,216.763" shape-rendering="crispEdges"/>
   <polygon fill="#d85218" points="975.933,219.213 975.31,221.133 973.676,222.319 971.657,222.319 970.024,221.133 969.4,219.213 970.024,217.292 971.657,216.106 973.676,216.106 975.31,217.292" shape-rendering="crispEdges"/>
   <polygon fill="#d85218" points="986.267,219.501 985.643,221.421 984.009,222.608 981.991,222.608 980.357,221.421 979.733,219.501 980.357,217.581 981.991,216.395 984.009,216.395 985.643,217.581" shape-rendering="crispEdges"/>
   <polygon fill="#d85218" points="996.6,220.098 995.976,222.018 994.343,223.205 992.324,223.205 990.69,222.018 990.066,220.098 990.69,218.178 992.324,216.991 994.343,216.991 995.976,218.178" shape-rendering="crispEdges"/>
   <polygon fill="#d85218" points="1006.93,220.493 1006.31,222.414 1004.68,223.6 1002.66,223.6 1001.02,222.414 1000.4,220.493 1001.02,218.573 1002.66,217.387 1004.68,217.387 1006.31,218.573" shape-rendering="crispEdges"/>
   <polygon fill="#d85218" points="1017.27,220.734 1016.64,222.655 1015.01,223.841 1012.99,223.841 1011.36,222.655 1010.73,220.734 1011.36,218.814 1012.99,217.628 1015.01,217.628 1016.64,218.814" shape-rendering="crispEdges"/>
   <polygon fill="#d85218" points="1027.6,221.418 1026.98,223.338 1025.34,224.525 1023.32,224.525 1021.69,223.338 1021.07,221.418 1021.69,219.499 1023.32,218.312 1025.34,218.312 1026.98,219.499" shape-rendering="crispEdges"/>
   <polygon fill="#d85218" points="1037.93,221.7 1037.31,223.62 1035.68,224.807 1033.66,224.807 1032.02,223.62 1031.4,221.7 1032.02,219.78 1033.66,218.593 1035.68,218.593 1037.31,219.78" shape-rendering="crispEdges"/>
   <polygon fill="#d85218" points="1048.27,222.109 1047.64,224.029 1046.01,225.216 1043.99,225.216 1042.36,224.029 1041.73,222.109 1042.36,220.189 1043.99,219.002 1046.01,219.002 1047.64,220.189" shape-rendering="crispEdges"/>
   <polygon fill="#d85218" points="1058.6,222.652 1057.98,224.572 1056.34,225.759 1054.32,225.759 1052.69,224.572 1052.07,222.652 1052.69,220.732 1054.32,219.545 1056.34,219.545 1057.98,220.732" shape-rendering="crispEdges"/>
   <polygon fill="#d85218" points="1068.93,222.779 1068.31,224.7 1066.68,225.886 1064.66,225.886 1063.02,224.7 1062.4,222.779 1063.02,220.859 1064.66,219.673 1066.68,219.673 1068.31,220.859" shape-rendering="crispEdges"/>
   <polygon fill="#d85218" points="1079.27,223.175 1078.64,225.095 1077.01,226.282 1074.99,226.282 1073.36,225.095 1072.73,223.175 1073.36,221.255 1074.99,220.068 1077.01,220.068 1078.64,221.255" shape-rendering="crispEdges"/>
   <polygon fill="#d85218" points="1089.6,223.765 1088.98,225.685 1087.34,226.872 1085.32,226.872 1083.69,225.685 1083.07,223.765 1083.69,221.845 1085.32,220.658 1087.34,220.658 1088.98,221.845" shape-rendering="crispEdges"/>
   <polygon fill="#d85218" points="1099.93,223.839 1099.31,225.759 1097.68,226.945 1095.66,226.945 1094.02,225.759 1093.4,223.839 1094.02,221.918 1095.66,220.732 1097.68,220.732 1099.31,221.918" shape-rendering="crispEdges"/>
   <polygon fill="#d85218" points="1110.27,224.368 1109.64,226.289 1108.01,227.475 1105.99,227.475 1104.36,226.289 1103.73,224.368 1104.36,222.448 1105.99,221.262 1108.01,221.262 1109.64,222.448" shape-rendering="crispEdges"/>
   <polygon fill="#d85218" points="1120.6,224.73 1119.98,226.65 1118.34,227.837 1116.32,227.837 1114.69,226.65 1114.07,224.73 1114.69,222.81 1116.32,221.624 1118.34,221.624 1119.98,222.81" shape-rendering="crispEdges"/>
   <polygon fill="#d85218" points="1130.93,224.918 1130.31,226.838 1128.68,228.025 1126.66,228.025 1125.02,226.838 1124.4,224.918 1125.02,222.998 1126.66,221.811 1128.68,221.811 1130.31,222.998" shape-rendering="crispEdges"/>
   <polygon fill="#d85218" points="1141.27,225.548 1140.64,227.468 1139.01,228.655 1136.99,228.655 1135.36,227.468 1134.73,225.548 1135.36,223.628 1136.99,222.441 1139.01,222.441 1140.64,223.628" shape-rendering="crispEdges"/>
   <polygon fill="#d85218" points="1151.6,225.776 1150.98,227.696 1149.34,228.883 1147.32,228.883 1145.69,227.696 1145.07,225.776 1145.69,223.856 1147.32,222.669 1149.34,222.669 1150.98,223.856" shape-rendering="crispEdges"/>
   <polygon fill="#d85218" points="1161.93,225.971 1161.31,227.891 1159.68,229.077 1157.66,229.077 1156.02,227.891 1155.4,225.971 1156.02,224.05 1157.66,222.864 1159.68,222.864 1161.31,224.05" shape-rendering="crispEdges"/>
   <polygon fill="#d85218" points="1172.27,226.587 1171.64,228.507 1170.01,229.694 1167.99,229.694 1166.36,228.507 1165.73,226.587 1166.36,224.667 1167.99,223.48 1170.01,223.48 1171.64,224.667" shape-rendering="crispEdges"/>
   <polygon fill="#d85218" points="1182.6,226.802 1181.98,228.722 1180.34,229.909 1178.32,229.909 1176.69,228.722 1176.07,226.802 1176.69,224.882 1178.32,223.695 1180.34,223.695 1181.98,224.882" shape-rendering="crispEdges"/>
   <polygon fill="#d85218" points="1192.93,227.057 1192.31,228.977 1190.68,230.164 1188.66,230.164 1187.02,228.977 1186.4,227.057 1187.02,225.137 1188.66,223.95 1190.68,223.95 1192.31,225.137" shape-rendering="crispEdges"/>
   <polygon fill="#d85218" points="1203.27,227.539 1202.64,229.459 1201.01,230.646 1198.99,230.646 1197.36,229.459 1196.73,227.539 1197.36,225.619 1198.99,224.433 1201.01,224.433 1202.64,225.619" shape-rendering="crispEdges"/>
   <polygon fill="#d85218" points="1213.6,227.626 1212.98,229.546 1211.34,230.733 1209.32,230.733 1207.69,229.546 1207.07,227.626 1207.69,225.707 1209.32,224.52 1211.34,224.52 1212.98,225.707" shape-rendering="crispEdges"/>
   <polygon fill="#d85218" points="1223.93,228.015 1223.31,229.936 1221.68,231.122 1219.66,231.122 1218.02,229.936 1217.4,228.015 1218.02,226.095 1219.66,224.909 1221.68,224.909 1223.31,226.095" shape-rendering="crispEdges"/>
   <polygon fill="#d85218" points="1234.27,228.203 1233.64,230.123 1232.01,231.31 1229.99,231.31 1228.36,230.123 1227.73,228.203 1228.36,226.283 1229.99,225.096 1232.01,225.096 1233.64,226.283" shape-rendering="crispEdges"/>
   <polygon fill="#d85218" points="1244.6,228.236 1243.98,230.157 1242.34,231.343 1240.32,231.343 1238.69,230.157 1238.07,228.236 1238.69,226.316 1240.32,225.13 1242.34,225.13 1243.98,226.316" shape-rendering="crispEdges"/>
   <polygon fill="#d85218" points="1254.93,228.894 1254.31,230.813 1252.68,232 1250.66,232 1249.02,230.813 1248.4,228.894 1249.02,226.974 1250.66,225.787 1252.68,225.787 1254.31,226.974" shape-rendering="crispEdges"/>
   <polygon fill="#d85218" points="1265.27,229.135 1264.64,231.055 1263.01,232.242 1260.99,232.242 1259.36,231.055 1258.73,229.135 1259.36,227.215 1260.99,226.028 1263.01,226.028 1264.64,227.215" shape-rendering="crispEdges"/>
   <polygon fill="#d85218" points="1275.6,229.222 1274.98,231.142 1273.34,232.329 1271.32,232.329 1269.69,231.142 1269.07,229.222 1269.69,227.302 1271.32,226.115 1273.34,226.115 1274.98,227.302" shape-rendering="crispEdges"/>
   <polygon fill="#d85218" points="1285.93,229.792 1285.31,231.712 1283.68,232.898 1281.66,232.898 1280.02,231.712 1279.4,229.792 1280.02,227.872 1281.66,226.685 1283.68,226.685 1285.31,227.872" shape-rendering="crispEdges"/>
   <polygon fill="#d85218" points="1296.27,229.979 1295.64,231.9 1294.01,233.086 1291.99,233.086 1290.36,231.9 1289.73,229.979 1290.36,228.06 1291.99,226.873 1294.01,226.873 1295.64,228.06" shape-rendering="crispEdges"/>
   <polygon fill="#d85218" points="1306.6,230.147 1305.98,232.067 1304.34,233.254 1302.32,233.254 1300.69,232.067 1300.07,230.147 1300.69,228.227 1302.32,227.041 1304.34,227.041 1305.98,228.227" shape-rendering="crispEdges"/>
   <polygon fill="#d85218" points="1316.93,230.543 1316.31,232.463 1314.68,233.649 1312.66,233.649 1311.02,232.463 1310.4,230.543 1311.02,228.623 1312.66,227.436 1314.68,227.436 1316.31,228.623" shape-rendering="crispEdges"/>
   <polygon fill="#d85218" points="1327.27,230.65 1326.64,232.57 1325.01,233.757 1322.99,233.757 1321.36,232.57 1320.73,230.65 1321.36,228.73 1322.99,227.543 1325.01,227.543 1326.64,228.73" shape-rendering="crispEdges"/>
   <polygon fill="#d85218" points="1337.6,230.958 1336.98,232.878 1335.34,234.065 1333.32,234.065 1331.69,232.878 1331.07,230.958 1331.69,229.038 1333.32,227.852 1335.34,227.852 1336.98,229.038" shape-rendering="crispEdges"/>
   <polygon fill="#d85218" points="1347.93,231.341 1347.31,233.261 1345.68,234.447 1343.66,234.447 1342.02,233.261 1341.4,231.341 1342.02,229.42 1343.66,228.234 1345.68,228.234 1347.31,229.42" shape-rendering="crispEdges"/>
   <polygon fill="#d85218" points="1358.27,231.388 1357.64,233.308 1356.01,234.494 1353.99,234.494 1352.36,233.308 1351.73,231.388 1352.36,229.467 1353.99,228.281 1356.01,228.281 1357.64,229.467" shape-rendering="crispEdges"/>
   <polygon fill="#d85218" points="1368.6,231.676 1367.98,233.596 1366.34,234.783 1364.32,234.783 1362.69,233.596 1362.07,231.676 1362.69,229.756 1364.32,228.569 1366.34,228.569 1367.98,229.756" shape-rendering="crispEdges"/>
   <polygon fill="#d85218" points="1378.93,232.044 1378.31,233.965 1376.68,235.151 1374.66,235.151 1373.02,233.965 1372.4,232.044 1373.02,230.125 1374.66,228.938 1376.68,228.938 1378.31,230.125" shape-rendering="crispEdges"/>
   <polygon fill="#d85218" points="1389.27,231.944 1388.64,233.864 1387.01,235.051 1384.99,235.051 1383.36,233.864 1382.73,231.944 1383.36,230.024 1384.99,228.837 1387.01,228.837 1388.64,230.024" shape-rendering="crispEdges"/>
   <polygon fill="#d85218" points="1399.6,232.373 1398.98,234.293 1397.34,235.48 1395.32,235.48 1393.69,234.293 1393.07,232.373 1393.69,230.453 1395.32,229.266 1397.34,229.266 1398.98,230.453" shape-rendering="crispEdges"/>
   <polygon fill="#d85218" points="1409.93,232.541 1409.31,234.461 1407.68,235.647 1405.66,235.647 1404.02,234.461 1403.4,232.541 1404.02,230.621 1405.66,229.434 1407.68,229.434 1409.31,230.621" shape-rendering="crispEdges"/>
   <polygon fill="#d85218" points="1420.27,232.775 1419.64,234.695 1418.01,235.882 1415.99,235.882 1414.36,234.695 1413.73,232.775 1414.36,230.855 1415.99,229.668 1418.01,229.668 1419.64,230.855" shape-rendering="crispEdges"/>
   <polygon fill="#d85218" points="1430.6,233.164 1429.98,235.084 1428.34,236.271 1426.32,236.271 1424.69,235.084 1424.07,233.164 1424.69,231.244 1426.32,230.057 1428.34,230.057 1429.98,231.244" shape-rendering="crispEdges"/>
   <polygon fill="#d85218" points="1440.93,233.312 1440.31,235.231 1438.68,236.418 1436.66,236.418 1435.02,235.231 1434.4,233.312 1435.02,231.392 1436.66,230.205 1438.68,230.205 1440.31,231.392" shape-rendering="crispEdges"/>
   <polygon fill="#d85218" points="1451.27,233.553 1450.64,235.473 1449.01,236.66 1446.99,236.66 1445.36,235.473 1444.73,233.553 1445.36,231.633 1446.99,230.446 1449.01,230.446 1450.64,231.633" shape-rendering="crispEdges"/>
   <polyline fill="none" points="208,425.238 218.333,423.139 228.667,420.92 239,418.969 249.333,416.985 259.667,415.718 270,414.484 280.333,413.398 290.667,412.641 301,412.017 311.333,411.354 321.667,410.877 332,410.489 342.333,410.106 352.667,409.885 363,409.503 373.333,409.376 383.667,409.154 394,408.906 404.333,408.806 414.667,408.645 425,408.35 435.333,408.343 445.667,408.162 456,407.867 466.333,407.894 476.667,407.727 487,407.492 497.333,407.438 507.667,407.297 518,407.197 528.333,407.197 538.667,406.996 549,406.969 559.333,406.875 569.667,406.708 580,406.674 590.333,406.553 600.667,406.325 611,406.332 621.333,406.218 631.667,406.151 642,406.165 652.333,406.104 662.667,405.983 673,405.997 683.333,405.829 693.667,405.796 704,405.769 714.333,405.588 724.667,405.622 735,405.541 745.333,405.279 755.667,405.434 766,405.306 776.333,405.132 786.667,405.172 797,405.099 807.333,405.051 817.667,405.038 828,404.951 838.333,404.924 848.667,404.884 859,404.703 869.333,404.683 879.667,404.709 890,404.481 900.333,404.529 910.667,404.488 921,404.348 931.333,404.401 941.667,404.321 952,404.233 962.333,404.207 972.667,404.093 983,404.086 993.333,404.08 1003.67,403.945 1014,403.985 1024.33,403.872 1034.67,403.751 1045,403.832 1055.33,403.812 1065.67,403.67 1076,403.717 1086.33,403.583 1096.67,403.516 1107,403.563 1117.33,403.463 1127.67,403.456 1138,403.483 1148.33,403.335 1158.67,403.362 1169,403.309 1179.33,403.201 1189.67,403.188 1200,403.235 1210.33,403.067 1220.67,403.147 1231,403.067 1241.33,403.007 1251.67,403.067 1262,403 1272.33,403.014 1282.67,403 1293,402.913 1303.33,402.973 1313.67,402.953 1324,402.819 1334.33,402.899 1344.67,402.839 1355,402.718 1365.33,402.799 1375.67,402.739 1386,402.691 1396.33,402.746 1406.67,402.691 1417,402.691 1427.33,402.772 1437.67,402.631 1448,402.732" stroke="#ecb01f" stroke-linecap="butt" stroke-linejoin="round" stroke-width="0.7"/>
   <polygon fill="#ecb01f" points="211.267,425.238 210.643,427.158 209.009,428.345 206.991,428.345 205.357,427.158 204.733,425.238 205.357,423.317 206.991,422.131 209.009,422.131 210.643,423.317" shape-rendering="crispEdges"/>
   <polygon fill="#ecb01f" points="221.6,423.139 220.976,425.06 219.343,426.246 217.324,426.246 215.69,425.06 215.066,423.139 215.69,421.219 217.324,420.033 219.343,420.033 220.976,421.219" shape-rendering="crispEdges"/>
   <polygon fill="#ecb01f" points="231.934,420.92 231.31,422.84 229.676,424.027 227.657,424.027 226.024,422.84 225.4,420.92 226.024,419 227.657,417.813 229.676,417.813 231.31,419" shape-rendering="crispEdges"/>
   <polygon fill="#ecb01f" points="242.267,418.969 241.643,420.89 240.009,422.076 237.991,422.076 236.357,420.89 235.733,418.969 236.357,417.049 237.991,415.863 240.009,415.863 241.643,417.049" shape-rendering="crispEdges"/>
   <polygon fill="#ecb01f" points="252.6,416.985 251.976,418.905 250.343,420.092 248.324,420.092 246.69,418.905 246.066,416.985 246.69,415.065 248.324,413.878 250.343,413.878 251.976,415.065" shape-rendering="crispEdges"/>
   <polygon fill="#ecb01f" points="262.933,415.718 262.31,417.638 260.676,418.825 258.657,418.825 257.024,417.638 256.4,415.718 257.024,413.798 258.657,412.611 260.676,412.611 262.31,413.798" shape-rendering="crispEdges"/>
   <polygon fill="#ecb01f" points="273.267,414.484 272.643,416.404 271.009,417.591 268.991,417.591 267.357,416.404 266.733,414.484 267.357,412.564 268.991,411.377 271.009,411.377 272.643,412.564" shape-rendering="crispEdges"/>
   <polygon fill="#ecb01f" points="283.6,413.398 282.976,415.318 281.343,416.505 279.324,416.505 277.69,415.318 277.066,413.398 277.69,411.478 279.324,410.292 281.343,410.292 282.976,411.478" shape-rendering="crispEdges"/>
   <polygon fill="#ecb01f" points="293.934,412.641 293.31,414.561 291.676,415.748 289.657,415.748 288.024,414.561 287.4,412.641 288.024,410.721 289.657,409.534 291.676,409.534 293.31,410.721" shape-rendering="crispEdges"/>
   <polygon fill="#ecb01f" points="304.267,412.017 303.643,413.938 302.009,415.124 299.991,415.124 298.357,413.938 297.733,412.017 298.357,410.097 299.991,408.91 302.009,408.91 303.643,410.097" shape-rendering="crispEdges"/>
   <polygon fill="#ecb01f" points="314.6,411.354 313.976,413.273 312.343,414.46 310.324,414.46 308.69,413.273 308.067,411.354 308.69,409.433 310.324,408.247 312.343,408.247 313.976,409.433" shape-rendering="crispEdges"/>
   <polygon fill="#ecb01f" points="324.933,410.877 324.31,412.797 322.676,413.984 320.657,413.984 319.024,412.797 318.4,410.877 319.024,408.958 320.657,407.771 322.676,407.771 324.31,408.958" shape-rendering="crispEdges"/>
   <polygon fill="#ecb01f" points="335.267,410.489 334.643,412.409 333.009,413.595 330.991,413.595 329.357,412.409 328.733,410.489 329.357,408.568 330.991,407.382 333.009,407.382 334.643,408.568" shape-rendering="crispEdges"/>
   <polygon fill="#ecb01f" points="345.6,410.106 344.976,412.026 343.343,413.213 341.324,413.213 339.69,412.026 339.066,410.106 339.69,408.187 341.324,407 343.343,407 344.976,408.187" shape-rendering="crispEdges"/>
   <polygon fill="#ecb01f" points="355.933,409.885 355.31,411.805 353.676,412.992 351.657,412.992 350.024,411.805 349.4,409.885 350.024,407.965 351.657,406.778 353.676,406.778 355.31,407.965" shape-rendering="crispEdges"/>
   <polygon fill="#ecb01f" points="366.267,409.503 365.643,411.423 364.009,412.61 361.991,412.61 360.357,411.423 359.733,409.503 360.357,407.583 361.991,406.396 364.009,406.396 365.643,407.583" shape-rendering="crispEdges"/>
   <polygon fill="#ecb01f" points="376.6,409.375 375.976,411.296 374.343,412.482 372.324,412.482 370.69,411.296 370.067,409.375 370.69,407.456 372.324,406.269 374.343,406.269 375.976,407.456" shape-rendering="crispEdges"/>
   <polygon fill="#ecb01f" points="386.933,409.154 386.31,411.075 384.676,412.261 382.657,412.261 381.024,411.075 380.4,409.154 381.024,407.234 382.657,406.048 384.676,406.048 386.31,407.234" shape-rendering="crispEdges"/>
   <polygon fill="#ecb01f" points="397.267,408.906 396.643,410.827 395.009,412.013 392.99,412.013 391.357,410.827 390.733,408.906 391.357,406.986 392.99,405.8 395.009,405.8 396.643,406.986" shape-rendering="crispEdges"/>
   <polygon fill="#ecb01f" points="407.6,408.806 406.976,410.726 405.343,411.913 403.324,411.913 401.69,410.726 401.067,408.806 401.69,406.886 403.324,405.699 405.343,405.699 406.976,406.886" shape-rendering="crispEdges"/>
   <polygon fill="#ecb01f" points="417.933,408.645 417.31,410.565 415.676,411.752 413.657,411.752 412.024,410.565 411.4,408.645 412.024,406.725 413.657,405.538 415.676,405.538 417.31,406.725" shape-rendering="crispEdges"/>
   <polygon fill="#ecb01f" points="428.267,408.35 427.643,410.27 426.009,411.457 423.991,411.457 422.357,410.27 421.733,408.35 422.357,406.43 423.991,405.243 426.009,405.243 427.643,406.43" shape-rendering="crispEdges"/>
   <polygon fill="#ecb01f" points="438.6,408.343 437.976,410.263 436.343,411.45 434.324,411.45 432.69,410.263 432.067,408.343 432.69,406.423 434.324,405.236 436.343,405.236 437.976,406.423" shape-rendering="crispEdges"/>
   <polygon fill="#ecb01f" points="448.933,408.162 448.31,410.083 446.676,411.269 444.657,411.269 443.024,410.083 442.4,408.162 443.024,406.242 444.657,405.056 446.676,405.056 448.31,406.242" shape-rendering="crispEdges"/>
   <polygon fill="#ecb01f" points="459.267,407.867 458.643,409.788 457.009,410.974 454.991,410.974 453.357,409.788 452.733,407.867 453.357,405.947 454.991,404.761 457.009,404.761 458.643,405.947" shape-rendering="crispEdges"/>
   <polygon fill="#ecb01f" points="469.6,407.894 468.976,409.814 467.343,411.001 465.324,411.001 463.69,409.814 463.067,407.894 463.69,405.974 465.324,404.787 467.343,404.787 468.976,405.974" shape-rendering="crispEdges"/>
   <polygon fill="#ecb01f" points="479.933,407.727 479.31,409.646 477.676,410.833 475.657,410.833 474.024,409.646 473.4,407.727 474.024,405.807 475.657,404.62 477.676,404.62 479.31,405.807" shape-rendering="crispEdges"/>
   <polygon fill="#ecb01f" points="490.267,407.492 489.643,409.412 488.009,410.599 485.991,410.599 484.357,409.412 483.733,407.492 484.357,405.572 485.991,404.385 488.009,404.385 489.643,405.572" shape-rendering="crispEdges"/>
   <polygon fill="#ecb01f" points="500.6,407.438 499.976,409.358 498.343,410.545 496.324,410.545 494.69,409.358 494.067,407.438 494.69,405.518 496.324,404.332 498.343,404.332 499.976,405.518" shape-rendering="crispEdges"/>
   <polygon fill="#ecb01f" points="510.933,407.297 510.31,409.218 508.676,410.404 506.657,410.404 505.024,409.218 504.4,407.297 505.024,405.377 506.657,404.19 508.676,404.19 510.31,405.377" shape-rendering="crispEdges"/>
   <polygon fill="#ecb01f" points="521.267,407.197 520.643,409.117 519.009,410.304 516.991,410.304 515.357,409.117 514.733,407.197 515.357,405.277 516.991,404.09 519.009,404.09 520.643,405.277" shape-rendering="crispEdges"/>
   <polygon fill="#ecb01f" points="531.6,407.197 530.976,409.117 529.343,410.304 527.324,410.304 525.69,409.117 525.066,407.197 525.69,405.277 527.324,404.09 529.343,404.09 530.976,405.277" shape-rendering="crispEdges"/>
   <polygon fill="#ecb01f" points="541.934,406.996 541.31,408.916 539.676,410.103 537.657,410.103 536.024,408.916 535.4,406.996 536.024,405.076 537.657,403.889 539.676,403.889 541.31,405.076" shape-rendering="crispEdges"/>
   <polygon fill="#ecb01f" points="552.267,406.969 551.643,408.889 550.009,410.076 547.991,410.076 546.357,408.889 545.733,406.969 546.357,405.049 547.991,403.862 550.009,403.862 551.643,405.049" shape-rendering="crispEdges"/>
   <polygon fill="#ecb01f" points="562.6,406.875 561.976,408.795 560.343,409.982 558.324,409.982 556.69,408.795 556.066,406.875 556.69,404.955 558.324,403.768 560.343,403.768 561.976,404.955" shape-rendering="crispEdges"/>
   <polygon fill="#ecb01f" points="572.933,406.708 572.31,408.627 570.676,409.814 568.657,409.814 567.024,408.627 566.4,406.708 567.024,404.788 568.657,403.601 570.676,403.601 572.31,404.788" shape-rendering="crispEdges"/>
   <polygon fill="#ecb01f" points="583.267,406.674 582.643,408.594 581.009,409.781 578.991,409.781 577.357,408.594 576.733,406.674 577.357,404.754 578.991,403.567 581.009,403.567 582.643,404.754" shape-rendering="crispEdges"/>
   <polygon fill="#ecb01f" points="593.6,406.553 592.976,408.473 591.343,409.66 589.324,409.66 587.69,408.473 587.066,406.553 587.69,404.633 589.324,403.446 591.343,403.446 592.976,404.633" shape-rendering="crispEdges"/>
   <polygon fill="#ecb01f" points="603.933,406.325 603.31,408.246 601.676,409.432 599.657,409.432 598.024,408.246 597.4,406.325 598.024,404.405 599.657,403.219 601.676,403.219 603.31,404.405" shape-rendering="crispEdges"/>
   <polygon fill="#ecb01f" points="614.267,406.332 613.643,408.252 612.009,409.439 609.991,409.439 608.357,408.252 607.733,406.332 608.357,404.412 609.991,403.225 612.009,403.225 613.643,404.412" shape-rendering="crispEdges"/>
   <polygon fill="#ecb01f" points="624.6,406.218 623.976,408.138 622.343,409.325 620.324,409.325 618.69,408.138 618.066,406.218 618.69,404.298 620.324,403.111 622.343,403.111 623.976,404.298" shape-rendering="crispEdges"/>
   <polygon fill="#ecb01f" points="634.933,406.151 634.31,408.071 632.676,409.258 630.657,409.258 629.024,408.071 628.4,406.151 629.024,404.231 630.657,403.044 632.676,403.044 634.31,404.231" shape-rendering="crispEdges"/>
   <polygon fill="#ecb01f" points="645.267,406.165 644.643,408.084 643.009,409.271 640.991,409.271 639.357,408.084 638.733,406.165 639.357,404.244 640.991,403.058 643.009,403.058 644.643,404.244" shape-rendering="crispEdges"/>
   <polygon fill="#ecb01f" points="655.6,406.104 654.976,408.024 653.343,409.211 651.324,409.211 649.69,408.024 649.066,406.104 649.69,404.184 651.324,402.998 653.343,402.998 654.976,404.184" shape-rendering="crispEdges"/>
   <polygon fill="#ecb01f" points="665.933,405.983 665.31,407.903 663.676,409.09 661.657,409.09 660.024,407.903 659.4,405.983 660.024,404.063 661.657,402.876 663.676,402.876 665.31,404.063" shape-rendering="crispEdges"/>
   <polygon fill="#ecb01f" points="676.267,405.997 675.643,407.917 674.009,409.104 671.991,409.104 670.357,407.917 669.733,405.997 670.357,404.077 671.991,402.89 674.009,402.89 675.643,404.077" shape-rendering="crispEdges"/>
   <polygon fill="#ecb01f" points="686.6,405.829 685.976,407.75 684.343,408.936 682.324,408.936 680.69,407.75 680.066,405.829 680.69,403.909 682.324,402.723 684.343,402.723 685.976,403.909" shape-rendering="crispEdges"/>
   <polygon fill="#ecb01f" points="696.933,405.796 696.31,407.716 694.676,408.902 692.657,408.902 691.024,407.716 690.4,405.796 691.024,403.875 692.657,402.689 694.676,402.689 696.31,403.875" shape-rendering="crispEdges"/>
   <polygon fill="#ecb01f" points="707.267,405.769 706.643,407.689 705.009,408.875 702.991,408.875 701.357,407.689 700.733,405.769 701.357,403.849 702.991,402.662 705.009,402.662 706.643,403.849" shape-rendering="crispEdges"/>
   <polygon fill="#ecb01f" points="717.6,405.588 716.976,407.508 715.343,408.695 713.324,408.695 711.69,407.508 711.066,405.588 711.69,403.668 713.324,402.481 715.343,402.481 716.976,403.668" shape-rendering="crispEdges"/>
   <polygon fill="#ecb01f" points="727.934,405.622 727.31,407.542 725.676,408.728 723.657,408.728 722.024,407.542 721.4,405.622 722.024,403.701 723.657,402.515 725.676,402.515 727.31,403.701" shape-rendering="crispEdges"/>
   <polygon fill="#ecb01f" points="738.267,405.541 737.643,407.461 736.009,408.648 733.991,408.648 732.357,407.461 731.733,405.541 732.357,403.621 733.991,402.434 736.009,402.434 737.643,403.621" shape-rendering="crispEdges"/>
   <polygon fill="#ecb01f" points="748.6,405.279 747.976,407.2 746.343,408.386 744.324,408.386 742.69,407.2 742.066,405.279 742.69,403.359 744.324,402.173 746.343,402.173 747.976,403.359" shape-rendering="crispEdges"/>
   <polygon fill="#ecb01f" points="758.934,405.434 758.31,407.354 756.676,408.541 754.657,408.541 753.024,407.354 752.4,405.434 753.024,403.514 754.657,402.327 756.676,402.327 758.31,403.514" shape-rendering="crispEdges"/>
   <polygon fill="#ecb01f" points="769.267,405.306 768.643,407.227 767.009,408.413 764.991,408.413 763.357,407.227 762.733,405.306 763.357,403.386 764.991,402.2 767.009,402.2 768.643,403.386" shape-rendering="crispEdges"/>
   <polygon fill="#ecb01f" points="779.6,405.132 778.976,407.052 777.343,408.239 775.324,408.239 773.69,407.052 773.066,405.132 773.69,403.212 775.324,402.025 777.343,402.025 778.976,403.212" shape-rendering="crispEdges"/>
   <polygon fill="#ecb01f" points="789.933,405.172 789.31,407.092 787.676,408.279 785.657,408.279 784.024,407.092 783.4,405.172 784.024,403.252 785.657,402.065 787.676,402.065 789.31,403.252" shape-rendering="crispEdges"/>
   <polygon fill="#ecb01f" points="800.267,405.099 799.643,407.019 798.009,408.205 795.991,408.205 794.357,407.019 793.733,405.099 794.357,403.178 795.991,401.992 798.009,401.992 799.643,403.178" shape-rendering="crispEdges"/>
   <polygon fill="#ecb01f" points="810.6,405.052 809.976,406.972 808.343,408.158 806.324,408.158 804.69,406.972 804.066,405.052 804.69,403.131 806.324,401.945 808.343,401.945 809.976,403.131" shape-rendering="crispEdges"/>
   <polygon fill="#ecb01f" points="820.933,405.038 820.31,406.958 818.676,408.145 816.657,408.145 815.024,406.958 814.4,405.038 815.024,403.118 816.657,401.931 818.676,401.931 820.31,403.118" shape-rendering="crispEdges"/>
   <polygon fill="#ecb01f" points="831.267,404.951 830.643,406.871 829.009,408.058 826.991,408.058 825.357,406.871 824.733,404.951 825.357,403.031 826.991,401.844 829.009,401.844 830.643,403.031" shape-rendering="crispEdges"/>
   <polygon fill="#ecb01f" points="841.6,404.924 840.976,406.844 839.343,408.031 837.324,408.031 835.69,406.844 835.067,404.924 835.69,403.004 837.324,401.817 839.343,401.817 840.976,403.004" shape-rendering="crispEdges"/>
   <polygon fill="#ecb01f" points="851.933,404.884 851.31,406.804 849.676,407.991 847.657,407.991 846.024,406.804 845.4,404.884 846.024,402.964 847.657,401.777 849.676,401.777 851.31,402.964" shape-rendering="crispEdges"/>
   <polygon fill="#ecb01f" points="862.267,404.703 861.643,406.623 860.009,407.81 857.991,407.81 856.357,406.623 855.733,404.703 856.357,402.783 857.991,401.596 860.009,401.596 861.643,402.783" shape-rendering="crispEdges"/>
   <polygon fill="#ecb01f" points="872.6,404.683 871.976,406.603 870.343,407.79 868.324,407.79 866.69,406.603 866.066,404.683 866.69,402.763 868.324,401.576 870.343,401.576 871.976,402.763" shape-rendering="crispEdges"/>
   <polygon fill="#ecb01f" points="882.934,404.709 882.31,406.63 880.676,407.816 878.657,407.816 877.024,406.63 876.4,404.709 877.024,402.79 878.657,401.603 880.676,401.603 882.31,402.79" shape-rendering="crispEdges"/>
   <polygon fill="#ecb01f" points="893.267,404.482 892.643,406.402 891.009,407.588 888.991,407.588 887.357,406.402 886.733,404.482 887.357,402.562 888.991,401.375 891.009,401.375 892.643,402.562" shape-rendering="crispEdges"/>
   <polygon fill="#ecb01f" points="903.6,404.529 902.976,406.449 901.343,407.635 899.324,407.635 897.69,406.449 897.066,404.529 897.69,402.608 899.324,401.422 901.343,401.422 902.976,402.608" shape-rendering="crispEdges"/>
   <polygon fill="#ecb01f" points="913.933,404.488 913.31,406.409 911.676,407.595 909.657,407.595 908.024,406.409 907.4,404.488 908.024,402.568 909.657,401.382 911.676,401.382 913.31,402.568" shape-rendering="crispEdges"/>
   <polygon fill="#ecb01f" points="924.267,404.348 923.643,406.268 922.009,407.455 919.991,407.455 918.357,406.268 917.733,404.348 918.357,402.428 919.991,401.241 922.009,401.241 923.643,402.428" shape-rendering="crispEdges"/>
   <polygon fill="#ecb01f" points="934.6,404.401 933.976,406.321 932.343,407.508 930.324,407.508 928.69,406.321 928.066,404.401 928.69,402.481 930.324,401.294 932.343,401.294 933.976,402.481" shape-rendering="crispEdges"/>
   <polygon fill="#ecb01f" points="944.934,404.321 944.31,406.241 942.676,407.428 940.657,407.428 939.024,406.241 938.4,404.321 939.024,402.401 940.657,401.214 942.676,401.214 944.31,402.401" shape-rendering="crispEdges"/>
   <polygon fill="#ecb01f" points="955.267,404.234 954.643,406.154 953.009,407.34 950.991,407.34 949.357,406.154 948.733,404.234 949.357,402.313 950.991,401.127 953.009,401.127 954.643,402.313" shape-rendering="crispEdges"/>
   <polygon fill="#ecb01f" points="965.6,404.207 964.976,406.127 963.343,407.313 961.324,407.313 959.69,406.127 959.066,404.207 959.69,402.287 961.324,401.1 963.343,401.1 964.976,402.287" shape-rendering="crispEdges"/>
   <polygon fill="#ecb01f" points="975.933,404.093 975.31,406.013 973.676,407.2 971.657,407.2 970.024,406.013 969.4,404.093 970.024,402.173 971.657,400.986 973.676,400.986 975.31,402.173" shape-rendering="crispEdges"/>
   <polygon fill="#ecb01f" points="986.267,404.086 985.643,406.006 984.009,407.193 981.991,407.193 980.357,406.006 979.733,404.086 980.357,402.166 981.991,400.979 984.009,400.979 985.643,402.166" shape-rendering="crispEdges"/>
   <polygon fill="#ecb01f" points="996.6,404.08 995.976,406 994.343,407.186 992.324,407.186 990.69,406 990.066,404.08 990.69,402.159 992.324,400.973 994.343,400.973 995.976,402.159" shape-rendering="crispEdges"/>
   <polygon fill="#ecb01f" points="1006.93,403.945 1006.31,405.865 1004.68,407.052 1002.66,407.052 1001.02,405.865 1000.4,403.945 1001.02,402.025 1002.66,400.838 1004.68,400.838 1006.31,402.025" shape-rendering="crispEdges"/>
   <polygon fill="#ecb01f" points="1017.27,403.986 1016.64,405.906 1015.01,407.092 1012.99,407.092 1011.36,405.906 1010.73,403.986 1011.36,402.065 1012.99,400.879 1015.01,400.879 1016.64,402.065" shape-rendering="crispEdges"/>
   <polygon fill="#ecb01f" points="1027.6,403.872 1026.98,405.792 1025.34,406.979 1023.32,406.979 1021.69,405.792 1021.07,403.872 1021.69,401.952 1023.32,400.765 1025.34,400.765 1026.98,401.952" shape-rendering="crispEdges"/>
   <polygon fill="#ecb01f" points="1037.93,403.751 1037.31,405.671 1035.68,406.858 1033.66,406.858 1032.02,405.671 1031.4,403.751 1032.02,401.831 1033.66,400.644 1035.68,400.644 1037.31,401.831" shape-rendering="crispEdges"/>
   <polygon fill="#ecb01f" points="1048.27,403.832 1047.64,405.751 1046.01,406.938 1043.99,406.938 1042.36,405.751 1041.73,403.832 1042.36,401.911 1043.99,400.725 1046.01,400.725 1047.64,401.911" shape-rendering="crispEdges"/>
   <polygon fill="#ecb01f" points="1058.6,403.812 1057.98,405.731 1056.34,406.918 1054.32,406.918 1052.69,405.731 1052.07,403.812 1052.69,401.891 1054.32,400.705 1056.34,400.705 1057.98,401.891" shape-rendering="crispEdges"/>
   <polygon fill="#ecb01f" points="1068.93,403.67 1068.31,405.591 1066.68,406.777 1064.66,406.777 1063.02,405.591 1062.4,403.67 1063.02,401.75 1064.66,400.563 1066.68,400.563 1068.31,401.75" shape-rendering="crispEdges"/>
   <polygon fill="#ecb01f" points="1079.27,403.717 1078.64,405.638 1077.01,406.824 1074.99,406.824 1073.36,405.638 1072.73,403.717 1073.36,401.797 1074.99,400.611 1077.01,400.611 1078.64,401.797" shape-rendering="crispEdges"/>
   <polygon fill="#ecb01f" points="1089.6,403.583 1088.98,405.503 1087.34,406.69 1085.32,406.69 1083.69,405.503 1083.07,403.583 1083.69,401.663 1085.32,400.477 1087.34,400.477 1088.98,401.663" shape-rendering="crispEdges"/>
   <polygon fill="#ecb01f" points="1099.93,403.516 1099.31,405.437 1097.68,406.623 1095.66,406.623 1094.02,405.437 1093.4,403.516 1094.02,401.596 1095.66,400.41 1097.68,400.41 1099.31,401.596" shape-rendering="crispEdges"/>
   <polygon fill="#ecb01f" points="1110.27,403.563 1109.64,405.483 1108.01,406.67 1105.99,406.67 1104.36,405.483 1103.73,403.563 1104.36,401.643 1105.99,400.457 1108.01,400.457 1109.64,401.643" shape-rendering="crispEdges"/>
   <polygon fill="#ecb01f" points="1120.6,403.463 1119.98,405.383 1118.34,406.569 1116.32,406.569 1114.69,405.383 1114.07,403.463 1114.69,401.542 1116.32,400.356 1118.34,400.356 1119.98,401.542" shape-rendering="crispEdges"/>
   <polygon fill="#ecb01f" points="1130.93,403.456 1130.31,405.376 1128.68,406.563 1126.66,406.563 1125.02,405.376 1124.4,403.456 1125.02,401.536 1126.66,400.349 1128.68,400.349 1130.31,401.536" shape-rendering="crispEdges"/>
   <polygon fill="#ecb01f" points="1141.27,403.483 1140.64,405.403 1139.01,406.589 1136.99,406.589 1135.36,405.403 1134.73,403.483 1135.36,401.563 1136.99,400.376 1139.01,400.376 1140.64,401.563" shape-rendering="crispEdges"/>
   <polygon fill="#ecb01f" points="1151.6,403.335 1150.98,405.255 1149.34,406.442 1147.32,406.442 1145.69,405.255 1145.07,403.335 1145.69,401.415 1147.32,400.229 1149.34,400.229 1150.98,401.415" shape-rendering="crispEdges"/>
   <polygon fill="#ecb01f" points="1161.93,403.362 1161.31,405.282 1159.68,406.469 1157.66,406.469 1156.02,405.282 1155.4,403.362 1156.02,401.442 1157.66,400.255 1159.68,400.255 1161.31,401.442" shape-rendering="crispEdges"/>
   <polygon fill="#ecb01f" points="1172.27,403.309 1171.64,405.229 1170.01,406.415 1167.99,406.415 1166.36,405.229 1165.73,403.309 1166.36,401.388 1167.99,400.202 1170.01,400.202 1171.64,401.388" shape-rendering="crispEdges"/>
   <polygon fill="#ecb01f" points="1182.6,403.201 1181.98,405.121 1180.34,406.308 1178.32,406.308 1176.69,405.121 1176.07,403.201 1176.69,401.281 1178.32,400.094 1180.34,400.094 1181.98,401.281" shape-rendering="crispEdges"/>
   <polygon fill="#ecb01f" points="1192.93,403.188 1192.31,405.108 1190.68,406.294 1188.66,406.294 1187.02,405.108 1186.4,403.188 1187.02,401.268 1188.66,400.081 1190.68,400.081 1192.31,401.268" shape-rendering="crispEdges"/>
   <polygon fill="#ecb01f" points="1203.27,403.235 1202.64,405.155 1201.01,406.341 1198.99,406.341 1197.36,405.155 1196.73,403.235 1197.36,401.314 1198.99,400.128 1201.01,400.128 1202.64,401.314" shape-rendering="crispEdges"/>
   <polygon fill="#ecb01f" points="1213.6,403.067 1212.98,404.987 1211.34,406.174 1209.32,406.174 1207.69,404.987 1207.07,403.067 1207.69,401.147 1209.32,399.96 1211.34,399.96 1212.98,401.147" shape-rendering="crispEdges"/>
   <polygon fill="#ecb01f" points="1223.93,403.147 1223.31,405.068 1221.68,406.254 1219.66,406.254 1218.02,405.068 1217.4,403.147 1218.02,401.228 1219.66,400.041 1221.68,400.041 1223.31,401.228" shape-rendering="crispEdges"/>
   <polygon fill="#ecb01f" points="1234.27,403.067 1233.64,404.987 1232.01,406.174 1229.99,406.174 1228.36,404.987 1227.73,403.067 1228.36,401.147 1229.99,399.96 1232.01,399.96 1233.64,401.147" shape-rendering="crispEdges"/>
   <polygon fill="#ecb01f" points="1244.6,403.007 1243.98,404.927 1242.34,406.114 1240.32,406.114 1238.69,404.927 1238.07,403.007 1238.69,401.087 1240.32,399.9 1242.34,399.9 1243.98,401.087" shape-rendering="crispEdges"/>
   <polygon fill="#ecb01f" points="1254.93,403.067 1254.31,404.987 1252.68,406.174 1250.66,406.174 1249.02,404.987 1248.4,403.067 1249.02,401.147 1250.66,399.96 1252.68,399.96 1254.31,401.147" shape-rendering="crispEdges"/>
   <polygon fill="#ecb01f" points="1265.27,403 1264.64,404.92 1263.01,406.107 1260.99,406.107 1259.36,404.92 1258.73,403 1259.36,401.08 1260.99,399.893 1263.01,399.893 1264.64,401.08" shape-rendering="crispEdges"/>
   <polygon fill="#ecb01f" points="1275.6,403.014 1274.98,404.934 1273.34,406.12 1271.32,406.12 1269.69,404.934 1269.07,403.014 1269.69,401.093 1271.32,399.907 1273.34,399.907 1274.98,401.093" shape-rendering="crispEdges"/>
   <polygon fill="#ecb01f" points="1285.93,403 1285.31,404.92 1283.68,406.107 1281.66,406.107 1280.02,404.92 1279.4,403 1280.02,401.08 1281.66,399.893 1283.68,399.893 1285.31,401.08" shape-rendering="crispEdges"/>
   <polygon fill="#ecb01f" points="1296.27,402.913 1295.64,404.833 1294.01,406.02 1291.99,406.02 1290.36,404.833 1289.73,402.913 1290.36,400.993 1291.99,399.806 1294.01,399.806 1295.64,400.993" shape-rendering="crispEdges"/>
   <polygon fill="#ecb01f" points="1306.6,402.973 1305.98,404.894 1304.34,406.08 1302.32,406.08 1300.69,404.894 1300.07,402.973 1300.69,401.053 1302.32,399.867 1304.34,399.867 1305.98,401.053" shape-rendering="crispEdges"/>
   <polygon fill="#ecb01f" points="1316.93,402.953 1316.31,404.873 1314.68,406.06 1312.66,406.06 1311.02,404.873 1310.4,402.953 1311.02,401.033 1312.66,399.846 1314.68,399.846 1316.31,401.033" shape-rendering="crispEdges"/>
   <polygon fill="#ecb01f" points="1327.27,402.819 1326.64,404.739 1325.01,405.926 1322.99,405.926 1321.36,404.739 1320.73,402.819 1321.36,400.899 1322.99,399.712 1325.01,399.712 1326.64,400.899" shape-rendering="crispEdges"/>
   <polygon fill="#ecb01f" points="1337.6,402.899 1336.98,404.82 1335.34,406.006 1333.32,406.006 1331.69,404.82 1331.07,402.899 1331.69,400.979 1333.32,399.793 1335.34,399.793 1336.98,400.979" shape-rendering="crispEdges"/>
   <polygon fill="#ecb01f" points="1347.93,402.839 1347.31,404.759 1345.68,405.946 1343.66,405.946 1342.02,404.759 1341.4,402.839 1342.02,400.919 1343.66,399.732 1345.68,399.732 1347.31,400.919" shape-rendering="crispEdges"/>
   <polygon fill="#ecb01f" points="1358.27,402.719 1357.64,404.639 1356.01,405.825 1353.99,405.825 1352.36,404.639 1351.73,402.719 1352.36,400.798 1353.99,399.612 1356.01,399.612 1357.64,400.798" shape-rendering="crispEdges"/>
   <polygon fill="#ecb01f" points="1368.6,402.799 1367.98,404.719 1366.34,405.906 1364.32,405.906 1362.69,404.719 1362.07,402.799 1362.69,400.879 1364.32,399.692 1366.34,399.692 1367.98,400.879" shape-rendering="crispEdges"/>
   <polygon fill="#ecb01f" points="1378.93,402.739 1378.31,404.659 1376.68,405.845 1374.66,405.845 1373.02,404.659 1372.4,402.739 1373.02,400.818 1374.66,399.632 1376.68,399.632 1378.31,400.818" shape-rendering="crispEdges"/>
   <polygon fill="#ecb01f" points="1389.27,402.692 1388.64,404.612 1387.01,405.798 1384.99,405.798 1383.36,404.612 1382.73,402.692 1383.36,400.771 1384.99,399.585 1387.01,399.585 1388.64,400.771" shape-rendering="crispEdges"/>
   <polygon fill="#ecb01f" points="1399.6,402.745 1398.98,404.666 1397.34,405.852 1395.32,405.852 1393.69,404.666 1393.07,402.745 1393.69,400.825 1395.32,399.639 1397.34,399.639 1398.98,400.825" shape-rendering="crispEdges"/>
   <polygon fill="#ecb01f" points="1409.93,402.692 1409.31,404.612 1407.68,405.798 1405.66,405.798 1404.02,404.612 1403.4,402.692 1404.02,400.771 1405.66,399.585 1407.68,399.585 1409.31,400.771" shape-rendering="crispEdges"/>
   <polygon fill="#ecb01f" points="1420.27,402.692 1419.64,404.612 1418.01,405.798 1415.99,405.798 1414.36,404.612 1413.73,402.692 1414.36,400.771 1415.99,399.585 1418.01,399.585 1419.64,400.771" shape-rendering="crispEdges"/>
   <polygon fill="#ecb01f" points="1430.6,402.772 1429.98,404.692 1428.34,405.879 1426.32,405.879 1424.69,404.692 1424.07,402.772 1424.69,400.852 1426.32,399.666 1428.34,399.666 1429.98,400.852" shape-rendering="crispEdges"/>
   <polygon fill="#ecb01f" points="1440.93,402.631 1440.31,404.551 1438.68,405.738 1436.66,405.738 1435.02,404.551 1434.4,402.631 1435.02,400.711 1436.66,399.524 1438.68,399.524 1440.31,400.711" shape-rendering="crispEdges"/>
   <polygon fill="#ecb01f" points="1451.27,402.732 1450.64,404.652 1449.01,405.839 1446.99,405.839 1445.36,404.652 1444.73,402.732 1445.36,400.812 1446.99,399.625 1449.01,399.625 1450.64,400.812" shape-rendering="crispEdges"/>
  </g>
  <clipPath id="cp0016001000">
   <polygon points="0,1000 1600,1000 1600,0 0,0"/>
  </clipPath>
  <g clip-path="url(#cp0016001000)">
   <polygon fill="#ffffff" points="1175.86,201.068 1426.14,201.068 1426.14,93.2129 1175.86,93.2129" shape-rendering="crispEdges"/>
   <polyline fill="none" points="1175.86,201.068 1426.14,201.068" stroke="#262626" stroke-dasharray="16,0" stroke-linecap="square" stroke-linejoin="miter" stroke-width="0.7"/>
   <polyline fill="none" points="1175.86,93.2129 1426.14,93.2129" stroke="#262626" stroke-dasharray="16,0" stroke-linecap="square" stroke-linejoin="miter" stroke-width="0.7"/>
   <polyline fill="none" points="1175.86,201.068 1175.86,93.2129" stroke="#262626" stroke-dasharray="16,0" stroke-linecap="square" stroke-linejoin="miter" stroke-width="0.7"/>
   <polyline fill="none" points="1426.14,201.068 1426.14,93.2129" stroke="#262626" stroke-dasharray="16,0" stroke-linecap="square" stroke-linejoin="miter" stroke-width="0.7"/>
   <polygon fill="#0071bc" points="1216.45,114.224 1215.28,116.245 1212.95,116.245 1211.78,114.224 1212.95,112.204 1215.28,112.204 1216.45,114.224" shape-rendering="crispEdges"/>
   <polygon fill="#d85218" points="1216.45,147.141 1215.28,149.161 1212.95,149.161 1211.78,147.141 1212.95,145.12 1215.28,145.12 1216.45,147.141" shape-rendering="crispEdges"/>
   <polygon fill="#ecb01f" points="1216.45,180.057 1215.28,182.077 1212.95,182.077 1211.78,180.057 1212.95,178.036 1215.28,178.036 1216.45,180.057" shape-rendering="crispEdges"/>
   <polyline fill="none" points="1186.79,114.224 1241.43,114.224" stroke="#0071bc" stroke-linecap="butt" stroke-linejoin="round" stroke-width="0.7"/>
   <g font-family="'Noto Sans'" font-size="36.6038" font-style="normal" font-weight="normal" transform="translate(1252.36,130.724) rotate(-0,-0,-16.5)" xml:space="preserve">
    <text fill="rgb(0,0,0)" x="0 21 39 52 67 88 101 121 136 156 165 185 " y="-6">Est_EIS_1,5A</text>
   </g>
   <polyline fill="none" points="1186.79,147.141 1241.43,147.141" stroke="#d85218" stroke-linecap="butt" stroke-linejoin="round" stroke-width="0.7"/>
   <g font-family="'Noto Sans'" font-size="36.6038" font-style="normal" font-weight="normal" transform="translate(1252.36,163.64) rotate(-0,-0,-16.5)" xml:space="preserve">
    <text fill="rgb(0,0,0)" x="0 21 39 52 67 88 101 121 136 156 176 " y="-6">Est_EIS_18A</text>
   </g>
   <polyline fill="none" points="1186.79,180.057 1241.43,180.057" stroke="#ecb01f" stroke-linecap="butt" stroke-linejoin="round" stroke-width="0.7"/>
   <g font-family="'Noto Sans'" font-size="36.6038" font-style="normal" font-weight="normal" transform="translate(1252.36,196.556) rotate(-0,-0,-16.5)" xml:space="preserve">
    <text fill="rgb(0,0,0)" x="0 21 39 52 67 88 101 121 136 156 " y="-6">Est_EIS_9A</text>
   </g>
  </g>
 </g>
</svg>
