<?xml version='1.0' encoding='UTF-8' standalone='no'?>
<svg height="1200pt" viewBox="0 0 1200 1200" width="1200pt" xmlns="http://www.w3.org/2000/svg" xmlns:xlink="http://www.w3.org/1999/xlink">
 <title>Figure 15: Nyquist: EISPOT_0V_1</title>
 <desc>
Creator: GL2PS 1.4.2, (C) 1999-2020 C. Geuzaine
For: Octave
CreationDate: Sun Nov  9 14:35:33 2025
</desc>
 <defs/>
 <polygon fill="#ffffff" points="0,0 1200,0 1200,1200 0,1200"/>
 <g>
  <polygon fill="#ffffff" points="0,1200 1200,1200 1200,0 0,0" shape-rendering="crispEdges"/>
  <clipPath id="cp0012001200">
   <polygon points="0,1200 1200,1200 1200,0 0,0"/>
  </clipPath>
  <g clip-path="url(#cp0012001200)">
   <polygon fill="#ffffff" points="156,1044 1086,1044 1086,114 156,114" shape-rendering="crispEdges"/>
   <polyline fill="none" points="267.969,1044 267.969,114" stroke="#262626" stroke-dasharray="16,0" stroke-linecap="butt" stroke-linejoin="miter" stroke-opacity="0.15" stroke-width="0.7"/>
   <polyline fill="none" points="479.923,1044 479.923,114" stroke="#262626" stroke-dasharray="16,0" stroke-linecap="butt" stroke-linejoin="miter" stroke-opacity="0.15" stroke-width="0.7"/>
   <polyline fill="none" points="691.877,1044 691.877,114" stroke="#262626" stroke-dasharray="16,0" stroke-linecap="butt" stroke-linejoin="miter" stroke-opacity="0.15" stroke-width="0.7"/>
   <polyline fill="none" points="903.832,1044 903.832,114" stroke="#262626" stroke-dasharray="16,0" stroke-linecap="butt" stroke-linejoin="miter" stroke-opacity="0.15" stroke-width="0.7"/>
   <polyline fill="none" points="267.969,1044 267.969,1034.22" stroke="#262626" stroke-linecap="butt" stroke-linejoin="miter" stroke-width="0.7"/>
   <polyline fill="none" points="267.969,114 267.969,123.78" stroke="#262626" stroke-linecap="butt" stroke-linejoin="miter" stroke-width="0.7"/>
   <polyline fill="none" points="479.923,1044 479.923,1034.22" stroke="#262626" stroke-linecap="butt" stroke-linejoin="miter" stroke-width="0.7"/>
   <polyline fill="none" points="479.923,114 479.923,123.78" stroke="#262626" stroke-linecap="butt" stroke-linejoin="miter" stroke-width="0.7"/>
   <polyline fill="none" points="691.877,1044 691.877,1034.22" stroke="#262626" stroke-linecap="butt" stroke-linejoin="miter" stroke-width="0.7"/>
   <polyline fill="none" points="691.877,114 691.877,123.78" stroke="#262626" stroke-linecap="butt" stroke-linejoin="miter" stroke-width="0.7"/>
   <polyline fill="none" points="903.832,1044 903.832,1034.22" stroke="#262626" stroke-linecap="butt" stroke-linejoin="miter" stroke-width="0.7"/>
   <polyline fill="none" points="903.832,114 903.832,123.78" stroke="#262626" stroke-linecap="butt" stroke-linejoin="miter" stroke-width="0.7"/>
   <g font-family="'Noto Sans'" font-size="30.5031" font-style="normal" font-weight="normal" transform="translate(238.469,1090.88) rotate(-0,29.5,-24)" xml:space="preserve">
    <text fill="rgb(38,38,38)" x="0 17 25 42 " y="-1">0.01</text>
   </g>
   <g font-family="'Noto Sans'" font-size="30.5031" font-style="normal" font-weight="normal" transform="translate(433.423,1090.88) rotate(-0,46.5,-24)" xml:space="preserve">
    <text fill="rgb(38,38,38)" x="0 17 25 42 59 76 " y="-1">0.0105</text>
   </g>
   <g font-family="'Noto Sans'" font-size="30.5031" font-style="normal" font-weight="normal" transform="translate(653.877,1090.88) rotate(-0,38,-24)" xml:space="preserve">
    <text fill="rgb(38,38,38)" x="0 17 25 42 59 " y="-1">0.011</text>
   </g>
   <g font-family="'Noto Sans'" font-size="30.5031" font-style="normal" font-weight="normal" transform="translate(857.332,1090.88) rotate(-0,46.5,-24)" xml:space="preserve">
    <text fill="rgb(38,38,38)" x="0 17 25 42 59 76 " y="-1">0.0115</text>
   </g>
   <polyline fill="none" points="156,862.425 1086,862.425" stroke="#262626" stroke-dasharray="16,0" stroke-linecap="butt" stroke-linejoin="miter" stroke-opacity="0.15" stroke-width="0.7"/>
   <polyline fill="none" points="156,650.471 1086,650.471" stroke="#262626" stroke-dasharray="16,0" stroke-linecap="butt" stroke-linejoin="miter" stroke-opacity="0.15" stroke-width="0.7"/>
   <polyline fill="none" points="156,438.517 1086,438.517" stroke="#262626" stroke-dasharray="16,0" stroke-linecap="butt" stroke-linejoin="miter" stroke-opacity="0.15" stroke-width="0.7"/>
   <polyline fill="none" points="156,226.563 1086,226.563" stroke="#262626" stroke-dasharray="16,0" stroke-linecap="butt" stroke-linejoin="miter" stroke-opacity="0.15" stroke-width="0.7"/>
   <polyline fill="none" points="156,862.425 165.78,862.425" stroke="#262626" stroke-linecap="butt" stroke-linejoin="miter" stroke-width="0.7"/>
   <polyline fill="none" points="1086,862.425 1076.22,862.425" stroke="#262626" stroke-linecap="butt" stroke-linejoin="miter" stroke-width="0.7"/>
   <polyline fill="none" points="156,650.471 165.78,650.471" stroke="#262626" stroke-linecap="butt" stroke-linejoin="miter" stroke-width="0.7"/>
   <polyline fill="none" points="1086,650.471 1076.22,650.471" stroke="#262626" stroke-linecap="butt" stroke-linejoin="miter" stroke-width="0.7"/>
   <polyline fill="none" points="156,438.517 165.78,438.517" stroke="#262626" stroke-linecap="butt" stroke-linejoin="miter" stroke-width="0.7"/>
   <polyline fill="none" points="1086,438.517 1076.22,438.517" stroke="#262626" stroke-linecap="butt" stroke-linejoin="miter" stroke-width="0.7"/>
   <polyline fill="none" points="156,226.563 165.78,226.563" stroke="#262626" stroke-linecap="butt" stroke-linejoin="miter" stroke-width="0.7"/>
   <polyline fill="none" points="1086,226.563 1076.22,226.563" stroke="#262626" stroke-linecap="butt" stroke-linejoin="miter" stroke-width="0.7"/>
   <g font-family="'Noto Sans'" font-size="30.5031" font-style="normal" font-weight="normal" transform="translate(123.748,874.425) rotate(-0,17,-12)" xml:space="preserve">
    <text fill="rgb(38,38,38)" x="0 " y="-1">0</text>
   </g>
   <g font-family="'Noto Sans'" font-size="30.5031" font-style="normal" font-weight="normal" transform="translate(47.7484,662.471) rotate(-0,93,-12)" xml:space="preserve">
    <text fill="rgb(38,38,38)" x="0 17 25 42 59 76 " y="-1">0.0005</text>
   </g>
   <g font-family="'Noto Sans'" font-size="30.5031" font-style="normal" font-weight="normal" transform="translate(64.7484,450.517) rotate(-0,76,-12)" xml:space="preserve">
    <text fill="rgb(38,38,38)" x="0 17 25 42 59 " y="-1">0.001</text>
   </g>
   <g font-family="'Noto Sans'" font-size="30.5031" font-style="normal" font-weight="normal" transform="translate(47.7484,238.563) rotate(-0,93,-12)" xml:space="preserve">
    <text fill="rgb(38,38,38)" x="0 17 25 42 59 76 " y="-1">0.0015</text>
   </g>
   <polyline fill="none" points="156,1044 1086,1044" stroke="#262626" stroke-dasharray="16,0" stroke-linecap="square" stroke-linejoin="miter" stroke-width="0.7"/>
   <polyline fill="none" points="156,114 1086,114" stroke="#262626" stroke-dasharray="16,0" stroke-linecap="square" stroke-linejoin="miter" stroke-width="0.7"/>
   <polyline fill="none" points="156,1044 156,114" stroke="#262626" stroke-dasharray="16,0" stroke-linecap="square" stroke-linejoin="miter" stroke-width="0.7"/>
   <polyline fill="none" points="1086,1044 1086,114" stroke="#262626" stroke-dasharray="16,0" stroke-linecap="square" stroke-linejoin="miter" stroke-width="0.7"/>
   <g font-family="'Noto Sans'" font-size="33.5535" font-style="normal" font-weight="normal" transform="translate(523,1136.88) rotate(-0,98,-41)" xml:space="preserve">
    <text fill="rgb(38,38,38)" x="0 19 30 39 51 66 93 125 144 165 184 " y="-10">Z' (\Omega)</text>
   </g>
   <g font-family="'Noto Sans'" font-size="33.5535" font-style="normal" font-weight="normal" transform="translate(-66.7516,579) rotate(-90,109.5,0)" xml:space="preserve">
    <text fill="rgb(38,38,38)" x="0 12 31 42 53 62 74 89 116 148 167 188 207 " y="-10">-Z'' (\Omega)</text>
   </g>
   <g font-family="'Noto Sans'" font-size="33.5535" font-style="normal" font-weight="normal" transform="translate(443.5,104) rotate(-0,177.5,0)" xml:space="preserve">
    <text fill="rgb(0,0,0)" x="0 26 43 64 85 94 110 122 131 143 152 171 183 202 223 250 269 283 302 322 336 " y="-8">Nyquist - EISPOT_0V_1</text>
   </g>
   <polygon fill="#0071bc" points="505.275,1021.86 504.652,1023.78 503.019,1024.96 501,1024.96 499.366,1023.78 498.742,1021.86 499.366,1019.94 501,1018.75 503.019,1018.75 504.652,1019.94" shape-rendering="crispEdges"/>
   <polygon fill="#0071bc" points="529.693,856.23 529.069,858.15 527.436,859.337 525.417,859.337 523.783,858.15 523.159,856.23 523.783,854.31 525.417,853.123 527.436,853.123 529.069,854.31" shape-rendering="crispEdges"/>
   <polygon fill="#0071bc" points="562.503,710.624 561.879,712.543 560.246,713.73 558.227,713.73 556.594,712.543 555.97,710.624 556.594,708.704 558.227,707.517 560.246,707.517 561.879,708.704" shape-rendering="crispEdges"/>
   <polygon fill="#0071bc" points="605.233,560.984 604.609,562.904 602.976,564.091 600.957,564.091 599.324,562.904 598.7,560.984 599.324,559.064 600.957,557.877 602.976,557.877 604.609,559.064" shape-rendering="crispEdges"/>
   <polygon fill="#0071bc" points="668.735,374.506 668.111,376.427 666.478,377.613 664.458,377.613 662.825,376.427 662.201,374.506 662.825,372.586 664.458,371.4 666.478,371.4 668.111,372.586" shape-rendering="crispEdges"/>
   <polygon fill="#0071bc" points="743.258,136.143 742.634,138.063 741,139.25 738.981,139.25 737.348,138.063 736.725,136.143 737.348,134.223 738.981,133.036 741,133.036 742.634,134.223" shape-rendering="crispEdges"/>
  </g>
 </g>
</svg>
